<?xml version="1.0" standalone="no"?>
<!DOCTYPE svg PUBLIC "-//W3C//DTD SVG 20010904//EN"
 "http://www.w3.org/TR/2001/REC-SVG-20010904/DTD/svg10.dtd">
<svg version="1.0" xmlns="http://www.w3.org/2000/svg"
 width="2136.000000pt" height="2136.000000pt" viewBox="0 0 2136.000000 2136.000000"
 preserveAspectRatio="xMidYMid meet">
<metadata>
Created by potrace 1.11, written by Peter Selinger 2001-2013
</metadata>
<g transform="translate(0.000000,2136.000000) scale(0.100000,-0.100000)"
fill="#000000" stroke="none">
<path d="M8156 16647 c3 -10 9 -15 12 -12 3 3 0 11 -7 18 -10 9 -11 8 -5 -6z"/>
<path d="M8195 16644 c-19 -14 -19 -15 0 -12 11 2 26 8 34 12 10 6 12 5 7 -2
-4 -7 -2 -12 3 -12 6 0 11 6 11 13 0 8 4 7 10 -3 6 -10 10 -11 10 -2 0 6 5 12
11 12 5 0 8 -4 5 -9 -4 -5 -1 -11 5 -13 6 -2 -22 -4 -63 -5 -55 0 -75 3 -84
15 -9 12 -13 12 -19 2 -5 -9 -4 -11 3 -6 7 4 12 2 12 -4 0 -5 -12 -10 -27 -9
-86 3 -183 -4 -183 -12 0 -6 -6 -7 -12 -2 -7 4 -21 9 -31 10 -15 3 -16 1 -5
-11 7 -8 15 -10 18 -6 3 4 10 3 16 -4 10 -11 -29 -15 -192 -19 -23 -1 -41 -6
-41 -12 0 -7 6 -12 13 -12 7 0 11 4 9 8 -9 13 25 3 38 -11 10 -12 9 -12 -5 -2
-9 7 -19 9 -22 4 -3 -5 -40 -10 -83 -11 -43 -1 -80 -7 -84 -13 -4 -7 -9 -7
-13 1 -10 16 -23 14 -30 -5 -3 -8 -2 -12 4 -9 5 3 17 2 27 -3 12 -7 8 -10 -18
-9 -117 0 -137 -3 -141 -21 -4 -15 -17 -19 -69 -21 -35 -1 -70 -3 -76 -3 -13
-1 -17 -12 -14 -35 2 -12 -70 -20 -116 -14 -7 1 -13 -7 -13 -19 0 -17 -7 -20
-42 -21 -24 -1 -46 -1 -50 0 -5 0 -8 -5 -8 -12 0 -8 -4 -7 -11 3 -9 13 -10 13
-6 0 2 -8 11 -14 21 -12 9 2 16 -2 16 -8 0 -5 -3 -9 -7 -9 -33 5 -103 -3 -98
-11 3 -5 2 -10 -4 -10 -5 0 -12 6 -15 13 -4 6 -4 2 -2 -10 4 -21 0 -23 -42
-24 -26 -1 -51 -1 -57 1 -5 1 -4 -4 3 -11 16 -17 15 -26 -3 -26 -8 0 -11 5 -8
11 3 6 0 5 -8 -1 -7 -7 -21 -13 -30 -13 -10 0 -20 -8 -23 -18 -5 -13 -18 -19
-44 -21 -20 -1 -43 -3 -49 -3 -7 -1 -13 -6 -13 -12 0 -6 -5 -4 -11 4 -9 13
-10 13 -6 -1 8 -26 -7 -39 -47 -41 -23 -1 -32 -4 -24 -9 10 -7 10 -9 -1 -9 -8
0 -11 -3 -8 -6 4 -4 13 -1 22 6 12 10 15 10 15 -2 0 -13 -20 -17 -107 -21 -7
0 -10 -4 -7 -8 2 -5 10 -6 18 -3 7 3 13 -2 13 -11 0 -10 -6 -13 -18 -10 -9 3
-20 2 -23 -3 -3 -5 -17 -7 -30 -5 -20 4 -24 2 -20 -14 6 -20 4 -21 -51 -24
-17 -1 -24 -7 -23 -18 2 -12 -7 -17 -39 -19 -33 -2 -43 -7 -43 -20 0 -10 3
-13 8 -7 11 15 29 16 29 1 0 -13 -9 -15 -58 -17 -22 0 -25 -4 -21 -25 4 -21 1
-24 -29 -25 -19 -1 -40 -1 -46 0 -7 1 -13 -2 -13 -7 0 -4 6 -14 13 -21 6 -7 8
-12 2 -11 -33 7 -55 -1 -55 -20 0 -19 -24 -26 -67 -21 -16 2 -17 -15 -1 -25 7
-4 8 -3 4 4 -5 8 -2 10 9 6 9 -4 14 -8 12 -11 -5 -4 -45 -14 -64 -15 -7 -1
-13 -10 -13 -20 0 -12 -7 -18 -23 -18 -15 0 -28 -9 -35 -22 -6 -13 -11 -17
-11 -10 -1 6 -6 12 -11 12 -6 0 -9 -6 -8 -12 2 -7 -3 -12 -9 -10 -15 2 -17
-14 -3 -23 6 -3 10 -12 9 -18 0 -9 -2 -8 -6 1 -2 6 -10 9 -15 6 -6 -4 -8 -3
-5 2 3 6 2 16 -4 24 -6 11 -9 8 -9 -12 0 -19 -5 -28 -16 -28 -9 0 -18 -9 -21
-20 -3 -11 -14 -20 -24 -20 -17 0 -24 -11 -20 -32 0 -5 -10 -8 -23 -8 -20 0
-23 -4 -20 -22 2 -13 2 -17 -2 -10 -3 7 -14 17 -24 22 -15 8 -18 6 -16 -8 2
-10 -7 -21 -23 -28 -22 -9 -23 -11 -8 -17 11 -4 16 -3 12 3 -3 6 -1 10 5 10 7
0 10 -6 7 -12 -2 -7 -11 -12 -21 -10 -9 2 -16 -2 -16 -8 0 -7 -8 -9 -20 -5
-11 4 -20 3 -19 -2 4 -22 -3 -33 -22 -33 -15 0 -20 -5 -17 -22 2 -17 -3 -24
-19 -26 -15 -2 -23 -10 -23 -23 0 -17 -11 -24 -32 -20 -5 0 -8 -8 -8 -19 0
-15 -7 -20 -25 -20 -14 0 -24 -3 -24 -7 4 -23 -3 -33 -21 -33 -13 0 -20 -7
-20 -20 0 -18 -10 -25 -32 -21 -5 0 -8 -14 -9 -31 0 -18 -3 -27 -6 -20 -9 22
-33 13 -33 -13 0 -23 -10 -30 -34 -26 -5 1 -6 -7 -4 -17 3 -11 2 -26 -3 -33
-6 -10 -9 -11 -9 -1 0 6 -7 12 -16 12 -11 0 -13 -6 -9 -19 3 -11 1 -22 -5 -26
-6 -4 -9 -13 -6 -20 3 -10 -2 -12 -20 -9 -13 2 -24 0 -24 -4 0 -5 -10 -14 -22
-21 l-23 -11 23 6 c12 3 22 1 22 -5 0 -6 -8 -11 -19 -11 -11 0 -21 -9 -24 -21
-4 -14 -11 -20 -21 -16 -9 4 -15 3 -15 -1 5 -32 -3 -52 -20 -52 -13 0 -21 -8
-23 -22 -2 -16 -9 -22 -21 -20 -9 2 -17 -1 -16 -5 4 -25 -3 -42 -21 -48 -14
-4 -20 -15 -20 -36 0 -25 -4 -29 -26 -29 -21 0 -25 -4 -21 -20 3 -11 1 -23 -4
-26 -5 -3 -6 -10 -3 -16 5 -7 2 -8 -6 -3 -10 6 -12 4 -7 -9 4 -9 3 -15 -2 -12
-4 3 -16 -3 -26 -14 -11 -13 -14 -20 -6 -20 7 0 10 -4 6 -10 -3 -5 -12 -7 -20
-3 -14 5 -19 -6 -16 -33 1 -7 -7 -11 -16 -10 -11 0 -18 -6 -18 -16 0 -9 -3
-20 -7 -23 -4 -4 -4 -14 -1 -23 5 -11 2 -14 -11 -9 -19 7 -26 -5 -30 -50 -2
-28 -19 -39 -23 -15 -3 26 -15 27 -13 2 5 -57 1 -70 -23 -70 -22 0 -26 -9 -30
-68 0 -8 -8 -11 -19 -9 -15 4 -18 -1 -19 -31 -1 -21 -1 -40 0 -44 0 -5 -6 -8
-15 -8 -14 0 -14 3 -4 15 7 9 10 18 6 22 -3 3 -6 1 -6 -6 0 -7 -4 -10 -8 -7
-4 2 -9 -12 -10 -32 -3 -37 -18 -56 -37 -44 -5 3 -4 -2 4 -11 15 -18 26 -23
16 -7 -3 6 -1 10 5 10 7 0 10 -6 7 -12 -2 -7 -11 -12 -21 -10 -16 3 -22 -22
-16 -72 1 -10 -2 -16 -7 -13 -17 11 -32 -9 -34 -44 -2 -21 -8 -36 -15 -36 -9
0 -10 6 -4 17 6 11 5 17 -3 17 -7 0 -13 -20 -15 -51 -2 -28 -8 -54 -14 -57 -7
-4 -5 -9 3 -12 8 -3 2 -6 -13 -6 -23 -1 -28 -6 -29 -26 -1 -14 -3 -29 -4 -35
-1 -5 -3 -15 -4 -21 0 -6 -7 -9 -14 -6 -12 5 -14 -6 -20 -99 0 -11 -7 -21 -14
-21 -8 0 -10 4 -3 12 7 8 6 12 -3 12 -8 0 -13 -19 -15 -55 -1 -31 -7 -61 -12
-67 -5 -7 -6 -16 -2 -20 4 -5 1 -5 -6 0 -10 5 -11 10 -3 18 15 15 14 27 -2 21
-12 -4 -17 -36 -17 -105 0 -15 -8 -33 -17 -40 -15 -12 -16 -12 -8 1 14 22 15
39 3 47 -6 3 -8 1 -4 -5 3 -6 2 -13 -3 -16 -11 -7 -9 -25 3 -45 6 -10 5 -12
-2 -7 -8 5 -12 -5 -12 -31 0 -22 -6 -45 -12 -52 -8 -9 -9 -12 -1 -7 7 4 10 0
9 -11 -2 -9 -9 -19 -17 -21 -9 -2 -10 -1 -3 5 9 6 9 11 0 19 -9 8 -13 -4 -15
-55 -2 -36 -4 -74 -4 -83 -1 -16 -15 -22 -38 -20 -6 1 -9 -45 -11 -151 -1 -35
-25 -76 -25 -42 0 8 3 12 7 10 4 -2 7 2 7 9 0 29 -22 10 -24 -21 -1 -18 2 -31
6 -29 4 3 8 -1 8 -9 0 -8 -4 -12 -9 -9 -7 5 -13 -77 -10 -143 1 -25 -8 -29
-24 -13 -6 6 -11 -1 -12 -22 -1 -17 3 -35 10 -40 10 -6 10 -8 1 -8 -10 0 -13
-26 -13 -96 0 -61 -4 -93 -10 -89 -5 3 -10 1 -10 -5 0 -6 -5 -8 -12 -4 -9 5
-9 2 1 -9 7 -9 9 -17 3 -17 -8 0 -10 -104 -12 -737 0 -18 -6 -23 -26 -23 -20
0 -24 -4 -19 -19 4 -12 0 -21 -12 -25 -14 -6 -15 -4 -6 5 12 12 7 39 -9 39 -5
0 -8 -6 -7 -12 3 -29 -2 -35 -33 -37 -18 -1 -38 -3 -45 -3 -7 -1 -15 -8 -17
-15 -3 -8 -1 -11 4 -8 6 3 10 2 10 -4 0 -5 -21 -11 -47 -13 -39 -2 -47 -6 -45
-20 3 -17 -7 -21 -59 -21 -9 0 -16 -6 -16 -13 0 -11 3 -11 16 -1 14 11 14 10
2 -5 -7 -10 -26 -18 -42 -18 -22 0 -29 -5 -29 -20 0 -22 -15 -27 -26 -8 -4 6
-3 8 3 5 5 -3 10 0 10 7 0 7 -6 13 -13 13 -7 0 -11 -9 -9 -19 3 -13 -2 -18
-21 -18 -17 0 -24 -5 -24 -20 0 -14 -7 -20 -25 -21 -44 -2 -48 -4 -52 -16 -2
-6 1 -14 6 -18 7 -4 9 1 5 12 -4 14 -4 15 4 4 8 -11 10 -11 15 0 3 8 4 4 4 -8
-1 -14 -7 -20 -19 -18 -10 2 -20 0 -23 -5 -3 -5 -12 -7 -21 -3 -8 3 -14 2 -13
-3 4 -24 -3 -34 -25 -34 -15 0 -26 -7 -29 -21 -3 -11 -11 -19 -19 -18 -31 4
-41 -1 -29 -14 11 -14 5 -27 -13 -27 -7 0 -7 3 0 8 9 5 8 11 -2 20 -12 11 -14
9 -14 -8 0 -13 -7 -20 -20 -20 -14 0 -20 -6 -18 -17 2 -12 -5 -19 -20 -21 -15
-2 -22 -9 -20 -20 2 -12 -5 -18 -23 -20 -22 -3 -25 -7 -21 -29 4 -23 2 -25
-22 -21 -25 5 -32 -5 -27 -35 3 -14 -22 -2 -27 13 -3 8 0 10 8 5 9 -5 11 -4 6
4 -10 15 -29 3 -22 -15 3 -8 1 -15 -4 -15 -6 -1 -15 -2 -22 -3 -15 -1 -23 -26
-8 -26 6 0 9 4 6 8 -3 5 1 9 8 9 7 0 13 -5 13 -12 0 -10 -14 -14 -58 -18 -9
-1 -16 -6 -17 -12 -3 -29 -10 -46 -22 -58 -12 -10 -12 -9 -2 4 10 14 10 18 -3
22 -8 4 -14 3 -14 -1 4 -26 -3 -43 -17 -40 -10 2 -19 -2 -21 -9 -3 -8 3 -11
18 -8 12 2 18 1 15 -3 -4 -4 -12 -8 -17 -8 -5 -1 -13 -2 -18 -3 -4 0 -8 -11
-7 -23 1 -18 -4 -23 -22 -22 -22 1 -26 -6 -23 -36 2 -13 1 -13 -8 0 -5 8 -7
18 -5 22 3 4 1 8 -4 8 -12 0 -22 -25 -22 -56 0 -13 -3 -23 -7 -23 -29 5 -41
-3 -36 -21 4 -15 0 -20 -16 -20 -11 0 -21 -3 -22 -7 -3 -36 -19 -72 -19 -45 0
7 -4 12 -10 12 -5 0 -10 -9 -10 -20 0 -11 -7 -20 -15 -20 -15 0 -30 -40 -27
-72 0 -13 -7 -18 -24 -18 -23 0 -28 -9 -27 -48 1 -10 -2 -10 -13 -1 -18 15
-21 12 -26 -30 -2 -19 -10 -37 -17 -39 -9 -3 -11 0 -6 8 5 9 4 11 -3 6 -7 -4
-12 -20 -12 -36 0 -23 -4 -28 -20 -25 -17 3 -20 -2 -21 -33 -1 -20 -1 -40 0
-45 0 -4 -2 -6 -6 -6 -22 4 -33 -3 -33 -20 0 -10 -9 -21 -20 -24 -15 -4 -20
-14 -20 -42 0 -21 -4 -34 -10 -30 -5 3 -10 1 -10 -4 0 -6 -5 -10 -11 -9 -6 2
-13 -2 -16 -9 -4 -12 14 -12 33 -1 6 4 11 1 11 -7 0 -7 -8 -12 -18 -10 -21 4
-34 -11 -34 -40 0 -11 -7 -20 -15 -20 -11 0 -16 -14 -19 -50 -2 -29 -6 -43
-10 -33 -11 32 -30 3 -32 -50 -3 -54 -12 -72 -25 -51 -4 7 -3 9 3 6 5 -3 10 0
10 7 0 22 -23 14 -24 -8 -2 -73 -8 -106 -19 -106 -7 0 -15 6 -17 13 -6 12 -9
-28 -9 -95 0 -20 -5 -39 -12 -41 -7 -3 -13 1 -13 9 0 7 3 11 7 9 4 -2 7 2 7 9
0 7 -5 13 -11 13 -10 0 -16 -48 -19 -143 -1 -17 -6 -21 -24 -18 -22 4 -23 1
-24 -53 -1 -32 -1 -62 0 -66 1 -4 -7 -7 -16 -5 -14 2 -18 -4 -19 -32 -8 -193
-12 -210 -33 -173 -9 16 -10 16 -11 -4 0 -13 5 -23 10 -23 6 0 10 -5 10 -11 0
-5 -4 -7 -10 -4 -9 5 -17 -109 -11 -154 2 -8 -2 -10 -11 -5 -11 6 -11 5 0 -8
11 -14 10 -17 -9 -23 -17 -6 -19 -9 -8 -16 12 -7 11 -9 -1 -9 -12 0 -12 -2 -1
-9 9 -6 10 -11 2 -15 -6 -4 -11 -17 -11 -29 0 -17 2 -19 9 -7 6 8 8 17 5 21
-2 4 0 10 5 14 5 3 8 14 6 25 -2 11 0 20 4 20 4 0 8 -18 7 -39 0 -22 -3 -38
-5 -35 -2 2 -10 -4 -17 -14 -18 -24 -20 -528 -1 -550 9 -13 9 -14 0 -8 -10 5
-13 -3 -13 -28 0 -22 5 -36 13 -36 8 0 8 -3 2 -8 -6 -4 -11 -22 -12 -39 -1
-30 6 -38 30 -34 9 1 9 -13 0 -22 -3 -4 -11 -2 -18 3 -8 7 -12 5 -12 -4 0 -8
8 -13 18 -11 11 2 18 -3 18 -13 -1 -116 4 -192 11 -197 4 -3 7 3 6 12 -2 10
-1 12 1 5 3 -7 8 -10 12 -8 4 3 7 -7 8 -22 4 -141 7 -194 10 -179 3 9 9 17 14
17 6 0 7 6 3 13 -4 6 -3 9 1 4 5 -4 10 -18 12 -30 2 -17 1 -19 -7 -7 -8 13
-10 13 -10 -2 0 -9 4 -18 9 -20 6 -1 11 -35 13 -74 2 -55 6 -71 17 -69 8 1 17
8 19 16 3 11 1 11 -8 -1 -10 -13 -11 -12 -6 3 4 13 2 16 -7 11 -6 -4 -8 -3 -4
1 4 5 13 10 20 11 12 1 14 -14 20 -129 1 -15 6 -26 12 -25 5 2 9 9 7 16 -2 6
1 12 5 12 4 0 9 -24 11 -53 2 -45 6 -80 11 -109 0 -5 6 -8 12 -8 8 0 7 5 -1
15 -10 12 -10 19 -2 27 7 7 12 10 13 7 0 -2 2 -13 5 -24 2 -11 5 -39 6 -62 1
-24 6 -43 11 -43 4 0 5 5 2 10 -3 6 -1 10 5 10 6 0 8 6 4 12 -4 7 -3 9 2 5 4
-4 9 -22 10 -40 4 -69 6 -82 11 -69 2 6 9 12 14 12 6 0 7 -4 4 -10 -3 -5 -1
-10 4 -10 6 0 11 -20 11 -46 0 -25 4 -43 9 -39 6 3 8 14 6 25 -2 12 0 18 5 15
5 -3 7 -17 4 -31 -3 -16 -1 -23 6 -19 6 4 10 -4 10 -19 0 -13 6 -27 13 -29 10
-4 10 -6 0 -6 -24 -2 -13 -21 12 -21 20 0 25 -5 26 -27 1 -16 1 -34 0 -42 -2
-7 4 -11 11 -8 7 2 12 11 12 20 -1 9 2 15 6 12 4 -2 8 -19 9 -37 4 -56 4 -58
15 -58 6 0 5 -4 -2 -9 -11 -7 -11 -9 1 -14 12 -5 14 0 11 21 -4 18 -2 24 5 17
5 -6 11 -27 13 -48 1 -28 6 -37 20 -37 17 0 24 -26 19 -67 -2 -16 15 -17 25
-1 4 6 3 8 -3 5 -5 -3 -10 1 -10 9 0 10 3 12 11 4 11 -11 13 -16 15 -50 1 -13
8 -20 21 -20 15 0 20 -7 20 -26 0 -14 4 -23 10 -19 5 3 10 1 10 -4 0 -6 -4
-11 -10 -11 -5 0 -10 -5 -10 -11 0 -8 6 -7 17 2 15 12 16 12 10 -3 -4 -10 -2
-18 4 -18 7 0 9 10 5 25 -4 14 -2 25 4 25 5 0 9 -3 9 -7 -1 -5 -1 -25 0 -47 1
-33 4 -38 21 -33 16 4 20 0 20 -19 0 -17 6 -24 20 -24 13 0 20 -7 20 -19 0
-10 9 -21 20 -24 11 -3 20 -12 20 -20 0 -9 8 -18 18 -21 18 -6 21 -12 24 -61
2 -19 5 -22 15 -13 14 12 18 22 5 14 -5 -3 -9 1 -9 8 0 7 6 13 13 13 7 0 11
-9 8 -20 -2 -11 4 -27 14 -34 9 -8 11 -12 5 -8 -8 4 -11 1 -7 -9 3 -9 9 -15
12 -14 30 3 40 -4 35 -24 -5 -23 -5 -23 10 -3 8 11 19 17 23 12 4 -4 2 -7 -4
-7 -7 0 -12 -5 -12 -11 0 -5 4 -7 10 -4 6 4 10 -5 10 -19 0 -21 5 -26 26 -26
14 0 23 -4 19 -10 -3 -5 0 -10 7 -10 9 0 9 -3 -2 -10 -12 -8 -11 -10 8 -10 19
0 26 -9 24 -31 -1 -3 5 -6 13 -6 11 0 12 5 3 21 -10 20 -9 20 7 5 9 -10 18
-30 18 -46 2 -29 8 -33 69 -36 9 -1 16 -4 16 -7 -2 -27 4 -39 18 -33 10 4 17
-1 21 -16 3 -12 13 -21 24 -21 13 0 19 -7 19 -21 0 -11 4 -18 9 -14 12 7 43
-24 36 -36 -4 -5 -1 -9 5 -9 7 0 10 7 6 17 -4 11 2 8 14 -7 11 -14 20 -29 20
-33 0 -5 5 -5 11 -1 8 4 7 9 -2 16 -11 8 -11 9 1 5 8 -2 14 -12 14 -21 -1 -11
6 -16 27 -16 24 0 29 -4 29 -25 0 -21 5 -25 29 -25 16 0 35 -8 42 -17 8 -9 9
-14 4 -11 -6 4 -17 2 -25 -3 -13 -9 -13 -10 0 -8 48 5 70 -2 70 -21 0 -16 7
-20 33 -21 17 -1 36 -1 40 0 5 1 6 -8 2 -19 -5 -17 -2 -20 27 -21 18 -1 37 -1
41 0 5 1 6 -3 2 -9 -3 -6 -11 -8 -16 -5 -5 3 -6 -1 -3 -9 3 -9 10 -16 16 -16
5 0 7 4 4 9 -3 5 1 11 9 14 9 4 12 1 8 -9 -4 -10 2 -14 22 -14 19 0 26 -4 22
-14 -6 -16 13 -26 49 -26 17 0 27 -8 34 -25 8 -21 16 -25 49 -25 31 0 40 -4
44 -21 3 -11 11 -19 19 -18 38 5 58 -2 58 -20 0 -11 7 -18 18 -18 88 0 102 -3
102 -23 0 -17 7 -20 48 -21 58 -1 82 -5 94 -17 10 -10 -22 -10 -39 1 -6 4 -14
3 -18 -3 -3 -5 -4 -11 -1 -11 3 -1 11 -3 16 -4 6 -1 32 -3 59 -4 39 -1 50 -5
53 -19 2 -13 14 -17 48 -18 108 -4 131 -8 148 -28 13 -16 13 -18 1 -8 -12 9
-20 9 -34 -2 -19 -13 -19 -14 0 -13 96 1 136 -4 129 -15 -6 -10 -4 -10 7 -1
16 15 43 17 34 3 -3 -6 -1 -10 5 -10 6 0 9 -4 6 -9 -4 -5 2 -8 11 -6 11 1 17
10 15 21 -2 17 -1 17 10 -2 11 -18 24 -21 83 -23 58 -2 73 -6 88 -24 l18 -22
-11 23 c-9 18 -8 22 5 22 10 0 13 -5 9 -12 -5 -7 -3 -8 7 -2 19 11 49 16 48 6
-3 -20 3 -28 28 -30 14 -1 23 1 19 5 -4 5 -13 8 -19 8 -5 0 -11 6 -13 13 -1 7
0 8 3 2 3 -7 10 -7 21 2 10 7 14 9 10 4 -31 -37 -213 -36 5995 -36 l5974 0 12
23 c9 18 10 19 6 2 -4 -17 0 -20 24 -20 16 -1 27 3 25 7 -7 12 10 10 22 -2 7
-7 11 -6 11 4 0 9 -9 13 -24 11 -13 -1 -21 0 -17 4 6 7 33 8 168 10 49 0 87 4
83 7 -3 4 -1 12 6 19 11 10 51 14 184 18 13 1 22 6 22 11 -4 33 -1 34 126 40
33 2 50 18 22 22 -10 1 -14 -2 -11 -8 4 -7 2 -8 -4 -4 -20 12 -13 25 11 24 77
-3 105 2 110 22 3 11 9 20 14 19 4 -1 31 -1 60 0 47 1 51 3 45 23 -3 11 -1 19
4 16 16 -10 89 7 89 20 0 6 5 12 10 11 6 0 9 -7 7 -15 -2 -8 2 -14 8 -14 6 0
9 4 6 8 -10 16 11 31 46 34 20 1 36 4 36 7 -1 17 3 31 10 30 4 -1 24 -1 45 0
26 1 37 6 37 16 0 8 -5 15 -11 15 -5 0 -8 -4 -5 -8 2 -4 -5 -9 -16 -9 -21 -2
-21 -2 1 13 22 16 63 27 94 26 9 0 15 3 13 7 -9 15 10 29 44 34 26 3 34 8 32
20 -2 12 4 17 23 17 22 0 29 9 27 31 -1 4 7 6 16 6 62 0 72 3 72 23 0 16 7 20
33 21 17 1 35 1 38 1 3 -1 6 5 6 13 0 8 -3 12 -7 10 -3 -2 -12 1 -20 6 -13 9
-13 10 0 8 53 -5 70 1 70 26 0 19 5 25 17 23 10 -2 19 5 22 17 6 19 19 24 69
27 14 0 22 7 22 19 0 12 7 19 20 19 11 0 19 3 19 8 -4 22 3 32 21 32 13 0 20
7 20 20 0 15 7 20 26 20 21 0 24 4 19 20 -5 15 -2 18 14 15 12 -2 21 1 21 6 0
6 5 7 12 3 7 -5 8 -3 2 7 -14 22 -13 36 3 36 7 0 12 -6 9 -12 -6 -17 10 -40
18 -26 4 6 3 11 -3 11 -6 0 -4 12 4 27 8 15 12 30 9 35 -3 5 -2 8 3 7 20 -4
44 2 39 9 -2 4 -1 14 3 21 6 10 10 9 14 -4 5 -10 3 -14 -5 -9 -7 4 -8 3 -4 -4
10 -16 29 -15 23 1 -3 7 1 26 9 42 8 17 12 21 9 9 -4 -14 0 -21 9 -21 8 0 13
8 11 18 -2 11 4 19 19 23 21 5 26 15 27 59 0 10 6 16 12 14 7 -2 11 -11 9 -21
-2 -9 2 -16 8 -16 5 0 9 3 9 8 -4 26 3 44 16 39 20 -8 37 21 36 65 0 10 3 17
7 17 22 -3 32 3 32 21 0 13 7 20 20 20 17 0 25 15 22 41 -1 4 9 4 21 1 20 -5
21 -4 7 13 -9 11 -10 16 -2 11 7 -4 12 -1 13 8 1 9 2 22 3 29 0 6 7 13 14 13
6 1 17 2 23 3 5 0 7 6 4 11 -3 6 -2 10 4 10 5 0 12 -6 14 -12 4 -10 6 -10 6 0
1 7 -6 15 -14 18 -22 9 -18 24 5 24 18 0 25 10 21 33 0 4 10 7 24 7 20 0 25 5
26 28 1 15 1 33 0 40 -2 15 15 16 25 0 4 -6 3 -8 -3 -5 -5 3 -10 0 -10 -7 0
-7 6 -13 12 -13 7 0 12 7 12 16 0 51 4 61 22 61 13 0 19 8 20 25 3 53 5 58 23
63 11 3 18 13 18 29 0 17 5 23 16 21 10 -2 19 3 22 11 3 10 0 12 -11 8 -9 -3
-19 -2 -22 4 -4 5 -3 9 2 8 22 -4 33 3 33 21 0 14 7 20 23 20 16 0 18 3 8 9
-8 5 -9 10 -3 12 6 2 13 23 14 46 2 22 7 39 11 36 5 -3 6 -11 3 -18 -3 -8 2
-11 13 -8 18 4 20 12 22 66 0 24 9 32 32 28 4 0 7 16 7 38 0 29 5 40 18 43 17
5 21 21 25 103 2 21 7 29 18 27 15 -2 22 33 21 101 -1 13 4 16 19 12 15 -5 19
-1 19 17 1 93 4 118 18 123 12 4 13 3 2 -10 -8 -10 -9 -15 -1 -15 6 0 11 -5
11 -11 0 -5 -5 -7 -12 -3 -7 4 -8 3 -4 -5 12 -19 23 -4 24 34 1 26 -2 34 -11
28 -7 -4 -5 1 3 12 8 10 14 27 12 38 -3 13 0 17 8 12 9 -6 9 -2 1 13 -14 25
-14 43 -1 22 8 -13 10 -12 10 3 0 9 -5 17 -11 17 -5 0 -7 5 -3 11 4 8 11 4 18
-10 7 -12 15 -19 19 -15 4 4 1 14 -6 22 -9 13 -9 14 1 8 11 -7 14 25 15 155 0
9 6 16 13 16 9 0 10 -4 4 -12 -5 -6 -5 -17 -1 -24 13 -21 17 3 20 129 3 115 5
125 22 125 5 0 9 5 8 10 0 6 -6 9 -12 8 -7 -2 -12 9 -12 27 -1 16 1 27 3 25 3
-2 10 1 16 8 13 13 19 60 7 53 -4 -3 -8 1 -8 9 0 8 4 12 9 9 4 -3 8 116 8 265
l0 270 -21 -4 c-12 -3 -18 -1 -15 3 4 4 13 7 19 7 7 0 13 15 14 33 1 17 -3 32
-8 32 -5 0 -9 -4 -9 -10 0 -19 -16 -10 -17 10 -2 17 2 20 20 15 l22 -6 -21 18
c-12 11 -21 32 -22 53 -2 26 0 31 8 20 5 -8 10 -10 10 -4 0 5 -4 14 -9 20 -6
5 -11 52 -13 106 -2 53 -5 95 -8 93 -19 -12 -29 19 -31 97 -2 48 -7 84 -11 82
-5 -3 -5 -11 -1 -17 4 -7 0 -6 -10 2 -19 15 -23 1 -5 -17 9 -9 9 -12 0 -12 -7
0 -13 3 -13 8 -7 46 -6 62 4 62 9 0 9 2 0 8 -7 4 -13 33 -15 63 -2 32 -7 56
-14 56 -6 0 -11 -6 -11 -13 0 -7 4 -11 9 -8 4 3 5 -2 2 -11 -13 -33 -19 -6
-26 133 l-2 33 -13 -26 c-16 -30 -19 -31 -19 -6 0 11 4 17 8 15 4 -3 8 0 8 5
0 6 -4 11 -10 11 -5 0 -10 8 -10 17 0 9 -8 26 -17 37 -17 20 -17 20 1 6 17
-13 18 -13 14 5 -2 12 -11 19 -20 17 -11 -2 -16 5 -16 20 1 13 -1 37 -3 55 -2
25 -6 30 -16 21 -10 -8 -12 -7 -7 6 3 9 11 16 17 16 6 0 7 3 4 6 -4 4 -12 2
-20 -4 -13 -11 -17 5 -20 71 -1 10 -7 15 -13 13 -19 -7 -25 6 -11 22 9 13 9
14 0 8 -9 -5 -13 2 -13 23 0 26 -4 31 -25 31 -27 0 -33 18 -12 39 10 11 10 13
0 7 -9 -5 -13 1 -13 18 0 19 -5 26 -20 26 -16 0 -20 7 -21 33 -1 17 -1 36 0
41 1 5 -7 6 -19 3 -17 -4 -20 0 -21 24 -2 44 -3 49 -11 49 -5 0 -11 0 -14 0
-4 0 -1 -7 6 -15 10 -12 10 -15 -3 -15 -10 0 -15 7 -12 20 2 11 -3 24 -13 30
-10 5 -12 10 -4 10 21 0 13 30 -8 30 -19 0 -24 16 -23 67 0 7 -2 12 -6 11 -21
-2 -31 4 -31 22 0 15 -7 20 -25 20 -25 0 -30 13 -28 67 1 7 -4 10 -9 7 -5 -3
-7 -13 -4 -21 4 -9 1 -13 -6 -10 -7 2 -12 12 -10 21 2 10 -7 20 -23 26 -29 11
-34 20 -7 13 12 -3 19 1 19 11 0 9 -5 16 -11 15 -27 -3 -34 2 -29 22 5 16 2
20 -13 17 -13 -2 -20 4 -22 20 -2 14 -10 22 -23 22 -16 0 -19 5 -14 20 6 19
-7 26 -37 21 -15 -2 -8 18 10 29 15 10 15 11 0 6 -9 -2 -22 3 -30 12 -7 8 -8
13 -2 9 6 -3 11 0 11 7 0 7 -6 13 -14 13 -13 0 -17 -12 -13 -32 1 -5 -2 -6 -6
-2 -8 7 -12 24 -16 60 -2 16 -11 21 -30 18 -5 0 -8 10 -8 24 0 23 -2 25 -21
14 -12 -6 -19 -7 -16 -2 9 16 -13 55 -28 49 -9 -3 -15 0 -15 9 0 8 -7 15 -15
15 -9 0 -18 7 -22 16 -3 9 -12 13 -22 10 -13 -5 -13 -4 2 8 23 18 22 29 -3 16
-16 -8 -20 -8 -18 2 2 8 -7 13 -24 12 -20 -1 -25 3 -23 17 2 11 -1 19 -6 19
-6 0 -7 5 -3 11 4 8 0 8 -15 0 -12 -7 -21 -8 -20 -4 1 4 1 18 0 30 -1 16 -6
20 -21 16 -12 -3 -20 -2 -19 3 4 23 -3 34 -21 34 -14 0 -20 6 -18 18 2 11 -4
18 -18 20 -12 2 -24 12 -27 23 -3 10 -11 19 -17 19 -10 0 -10 -4 0 -15 7 -9
10 -18 7 -22 -4 -3 -11 6 -18 19 -8 18 -18 24 -35 22 -13 -1 -23 1 -23 4 3 22
-3 32 -21 32 -13 0 -20 7 -20 20 0 14 -7 20 -25 21 -47 3 -50 4 -50 24 0 13
-8 22 -25 25 -16 4 -24 11 -22 22 2 11 -6 18 -20 20 -13 2 -23 9 -23 17 0 9
-14 15 -40 18 -22 2 -52 12 -67 23 -15 11 -34 20 -43 20 -8 0 -15 9 -15 21 0
13 -6 20 -17 18 -47 -4 -63 1 -63 22 0 13 -6 20 -17 18 -49 -4 -75 1 -69 16 3
8 1 15 -5 15 -6 0 -7 5 -4 10 6 10 -20 14 -57 11 -16 -2 -18 9 -18 101 0 69
-4 108 -12 117 -10 11 -10 12 -1 7 10 -5 12 4 11 33 -1 23 -5 41 -10 41 -5 0
-6 -4 -3 -10 3 -5 1 -10 -5 -10 -7 0 -10 7 -6 15 3 8 2 15 -2 15 -4 0 -8 18
-8 40 -1 21 3 37 8 34 4 -3 6 -16 4 -30 -3 -13 -1 -22 5 -19 5 3 6 -1 3 -9 -3
-9 -2 -16 4 -16 11 0 9 44 -4 74 -6 15 -4 17 6 11 8 -5 11 -4 6 3 -4 6 -13 9
-20 6 -11 -4 -14 11 -15 67 -1 46 -6 76 -13 81 -10 5 -10 8 -1 8 6 0 11 13 11
30 -1 18 -6 30 -15 30 -14 0 -14 -20 2 -33 6 -5 4 -7 -4 -5 -12 3 -16 27 -18
99 -4 110 -6 119 -30 115 -15 -3 -19 3 -19 38 -4 137 -7 159 -24 163 -17 5
-21 20 -22 101 0 14 -6 22 -17 22 -16 0 -22 22 -24 98 -1 12 -5 22 -10 22 -4
0 -5 5 -1 12 4 6 3 8 -4 4 -6 -3 -9 -18 -6 -31 2 -14 1 -25 -4 -25 -5 0 -9 17
-9 38 -2 91 -2 93 -20 90 -18 -3 -20 3 -25 89 -1 24 -6 37 -10 30 -13 -21 -29
7 -30 52 0 25 -5 41 -12 40 -28 -3 -36 3 -36 27 0 17 -4 23 -12 18 -9 -5 -8
-2 1 9 8 10 11 20 7 24 -3 4 -12 -1 -19 -11 -12 -16 -13 -16 -14 1 -3 76 -8
93 -25 93 -13 0 -18 8 -18 31 0 27 -3 30 -22 23 -23 -7 -23 -6 1 13 18 15 20
20 8 20 -9 0 -14 -4 -11 -9 3 -4 0 -8 -5 -8 -6 0 -11 16 -11 35 0 37 -8 43
-29 23 -10 -11 -12 -10 -11 2 6 41 -1 78 -16 84 -8 3 -12 2 -9 -3 3 -5 2 -12
-3 -15 -4 -2 -9 9 -10 27 -2 17 -7 36 -12 42 -6 7 -6 15 0 21 6 6 2 10 -12 11
-18 2 -20 0 -8 -7 13 -8 13 -10 1 -10 -11 0 -9 -4 5 -14 19 -15 19 -15 -1 -12
-16 2 -21 12 -23 44 -3 34 -7 42 -23 42 -12 0 -19 7 -19 20 0 13 -7 20 -20 20
-14 0 -20 7 -20 23 0 43 -3 57 -16 57 -7 0 -15 -6 -17 -12 -3 -7 -6 2 -6 20
-1 25 -5 32 -21 32 -15 0 -20 7 -20 25 0 19 -5 25 -21 25 -16 0 -20 5 -16 20
3 11 1 20 -3 20 -5 0 -7 8 -5 18 2 10 -2 19 -9 19 -7 0 -13 -6 -13 -13 0 -7 5
-10 10 -7 6 3 7 1 3 -5 -7 -11 -36 -6 -34 6 3 25 -4 33 -24 28 l-23 -6 23 11
c12 7 22 16 22 21 0 12 -14 10 -29 -4 -7 -7 -12 -8 -11 -3 5 26 -2 46 -17 52
-29 11 -45 30 -30 36 6 3 2 6 -10 6 -18 1 -23 7 -23 26 0 18 -5 25 -20 25 -13
0 -20 7 -20 20 0 13 -7 20 -20 20 -13 0 -20 7 -20 19 0 14 -8 21 -27 23 -20 2
-27 8 -25 21 2 11 -4 17 -18 17 -14 0 -20 7 -20 21 0 15 -5 20 -22 17 -19 -2
-23 1 -21 20 2 16 -2 22 -17 22 -11 0 -20 6 -20 13 0 8 -4 7 -10 -3 -13 -20
-13 -4 0 21 14 24 -5 26 -20 2 -11 -17 -11 -17 -6 0 3 9 1 18 -4 18 -6 1 -15
2 -22 3 -6 0 -13 8 -15 16 -4 13 -3 13 6 0 10 -13 11 -13 11 0 0 13 1 13 11 0
9 -13 10 -13 6 0 -4 16 -7 17 -57 19 -23 1 -30 6 -30 20 0 13 -8 21 -22 23
-16 2 -22 9 -20 22 3 15 -1 18 -17 13 -12 -3 -22 -1 -22 4 -1 5 -2 15 -3 22
-1 6 -9 11 -19 11 -9 -1 -17 2 -17 6 0 5 -10 6 -22 3 -23 -4 -23 -4 1 10 20
12 21 15 7 20 -10 4 -15 3 -11 -3 3 -6 1 -10 -4 -10 -6 0 -11 5 -11 10 0 6 -9
10 -20 10 -15 0 -20 7 -20 25 0 25 -7 28 -72 28 -9 0 -17 2 -16 6 2 21 -5 30
-24 33 -16 2 -22 9 -20 21 2 14 -5 17 -38 17 -33 0 -40 3 -40 20 0 20 -11 23
-72 23 -22 0 -23 13 -2 21 8 3 13 2 10 -2 -3 -5 1 -9 8 -9 7 0 13 5 13 11 0 6
-18 12 -41 13 -38 3 -60 18 -50 35 3 5 2 8 -3 7 -28 -5 -73 2 -68 11 3 6 -1
10 -9 10 -9 0 -16 5 -16 11 0 5 5 7 10 4 6 -3 10 -1 10 5 0 6 -8 10 -17 9 -41
-4 -61 2 -65 19 -4 14 -16 19 -49 21 -24 2 -51 4 -60 4 -9 1 -16 7 -16 14 0 7
3 10 7 8 3 -2 12 1 20 6 13 9 13 10 0 8 -42 -4 -81 2 -74 12 4 8 0 8 -15 0
-24 -13 -30 3 -6 17 11 5 2 9 -27 10 -24 1 -54 3 -68 6 -14 2 -31 4 -37 5 -7
0 -13 6 -13 11 0 12 22 9 32 -5 5 -6 8 -3 8 6 0 12 -12 16 -56 18 -65 2 -75 6
-67 26 3 8 0 15 -6 15 -6 0 -11 -4 -11 -10 0 -5 -5 -10 -11 -10 -5 0 -8 4 -4
9 3 6 -12 11 -32 13 -32 3 -38 6 -37 25 1 13 -2 20 -7 18 -4 -3 -6 -14 -4 -25
2 -11 0 -20 -6 -20 -7 0 -13 19 -11 40 0 3 -7 6 -16 6 -123 6 -133 9 -112 30
7 7 6 11 -4 11 -8 0 -15 -3 -14 -6 2 -19 -4 -28 -17 -28 -11 0 -12 4 -5 11 19
19 10 23 -52 25 -34 1 -69 8 -77 14 -12 9 -13 9 -7 0 5 -9 -1 -13 -18 -13 -14
0 -26 5 -26 11 0 6 7 9 15 5 22 -8 18 2 -6 15 -12 6 -19 7 -16 2 3 -5 2 -15
-4 -23 -7 -12 -9 -10 -9 8 0 13 -6 22 -15 22 -8 0 -15 -7 -15 -16 0 -9 5 -12
12 -8 7 4 8 3 4 -5 -9 -14 -26 -5 -26 15 0 11 -16 14 -67 15 -38 1 -76 0 -87
-1 -13 -1 -16 2 -10 12 6 10 5 11 -7 1 -19 -15 -60 -13 -77 4 -7 7 -9 13 -3
13 5 0 12 -4 16 -9 6 -11 44 -6 57 7 5 5 2 9 -7 9 -8 0 -15 -4 -15 -9 0 -5 -6
-6 -12 -1 -7 4 -46 9 -86 10 -57 3 -72 1 -66 -9 6 -11 5 -11 -8 0 -19 15 -648
16 -648 0 0 -5 4 -7 9 -3 5 3 13 0 17 -6 4 -8 9 -7 15 2 4 7 11 10 15 6 4 -4
5 -10 1 -13 -10 -10 -67 -12 -61 -3 3 5 0 9 -6 9 -6 0 -9 4 -6 8 2 4 -4 8 -14
8 -10 0 -16 -6 -13 -13 3 -7 9 -10 14 -7 5 3 9 1 9 -4 0 -8 -141 -16 -222 -14
-10 1 -18 -3 -18 -9 0 -5 5 -9 10 -9 6 0 10 -5 10 -11 0 -8 -4 -8 -14 0 -8 7
-17 8 -20 3 -2 -4 -40 -9 -83 -11 -111 -3 -152 -7 -159 -14 -3 -3 12 -4 34 -2
33 2 39 0 35 -12 -5 -12 -7 -12 -14 -1 -6 8 -12 9 -16 3 -8 -10 -15 -11 -114
-17 -51 -2 -56 -5 -54 -24 2 -18 -4 -22 -29 -22 -17 -1 -40 -2 -51 -2 -11 -1
-23 -6 -27 -13 -6 -9 -8 -8 -9 3 0 10 -3 8 -8 -5 -5 -11 -17 -20 -27 -21 -10
-1 -32 -2 -47 -3 -19 0 -26 -5 -21 -13 5 -7 3 -8 -7 -2 -21 13 -38 14 -46 2
-3 -6 -2 -9 3 -5 5 3 20 -1 34 -8 l25 -13 -25 0 c-60 2 -139 -6 -134 -13 2 -5
11 -6 19 -2 9 3 15 -1 15 -8 0 -9 -13 -15 -36 -16 -52 -3 -65 -9 -58 -30 5
-15 4 -15 -4 -3 -6 8 -8 18 -6 22 6 10 -10 11 -19 1 -4 -3 -3 -11 3 -18 7 -8
-2 -11 -32 -12 -29 -1 -46 -7 -57 -22 -10 -12 -29 -21 -49 -23 -38 -3 -51 -15
-27 -24 26 -10 -2 -24 -48 -24 -30 0 -40 -4 -44 -20 -5 -18 -38 -27 -75 -21
-5 0 -8 -4 -8 -9 0 -6 6 -10 14 -8 8 2 15 -1 15 -7 0 -5 -6 -9 -14 -7 -7 1
-16 -2 -20 -7 -3 -6 -12 -8 -20 -4 -9 3 -15 -1 -15 -10 0 -23 -19 -31 -37 -15
-12 9 -15 9 -9 1 4 -8 2 -13 -5 -13 -6 0 -9 8 -6 19 3 14 -1 18 -17 17 -16 -1
-20 4 -19 22 2 16 -2 22 -17 22 -13 0 -20 7 -20 20 0 13 -7 20 -20 20 -15 0
-20 7 -20 25 0 14 -3 24 -7 24 -21 -3 -34 2 -31 14 1 6 -6 26 -15 42 -16 27
-17 27 -11 5 5 -18 3 -22 -5 -14 -6 6 -13 24 -14 41 -1 20 -6 29 -15 26 -9 -4
-9 -9 -2 -18 7 -8 6 -12 -4 -12 -8 0 -13 7 -11 16 4 29 -17 63 -37 58 -14 -4
-18 1 -18 19 0 17 -6 24 -20 24 -15 0 -20 7 -20 25 0 18 -5 25 -20 25 -13 0
-20 7 -20 20 0 19 -22 27 -55 20 -5 -1 -4 4 3 11 18 19 15 29 -8 29 -13 0 -20
7 -20 20 0 13 -7 20 -20 20 -13 0 -20 7 -20 20 0 15 -7 20 -25 20 -18 0 -25 5
-25 20 0 13 -7 20 -19 20 -13 0 -21 8 -23 23 -2 14 -11 23 -24 25 -17 2 -21 8
-16 24 4 15 2 19 -7 14 -6 -4 -17 -3 -24 2 -7 5 -19 8 -28 7 -11 -2 -16 4 -15
17 1 13 -16 34 -44 57 -25 20 -39 28 -31 19 12 -16 11 -18 -3 -18 -9 0 -16 8
-16 20 0 13 -7 20 -20 20 -13 0 -20 7 -20 20 0 12 -7 20 -17 21 -30 1 -55 7
-61 15 -4 4 1 4 10 1 10 -3 20 -2 23 3 4 6 0 10 -7 10 -9 0 -9 3 2 10 12 8 10
10 -10 11 -14 1 -33 1 -42 0 -11 -2 -18 5 -18 16 0 15 2 16 10 3 7 -11 10 -11
10 -2 0 8 5 10 13 6 7 -4 9 -3 4 2 -9 10 -14 11 -52 13 -18 1 -25 7 -25 22 0
17 -5 20 -21 16 -15 -4 -22 1 -29 19 -5 13 -13 24 -17 23 -37 -6 -63 3 -63 21
0 19 -17 25 -60 21 -11 -1 -11 1 3 9 17 11 24 31 10 29 -5 -1 -23 -1 -40 0
-29 1 -33 5 -33 27 0 19 -4 25 -15 20 -8 -3 -15 -1 -15 5 0 6 -4 7 -10 4 -5
-3 -10 -1 -10 4 0 6 -5 11 -11 11 -5 0 -8 -4 -5 -8 3 -5 -2 -9 -11 -9 -12 0
-11 5 7 19 20 16 20 18 4 17 -46 -5 -64 1 -64 21 0 21 -20 29 -20 8 0 -8 -5
-6 -10 4 -6 10 -19 15 -30 13 -14 -3 -20 2 -20 15 0 12 -8 20 -22 22 -13 2
-22 9 -20 16 1 8 -2 11 -8 7 -6 -3 -8 -10 -5 -15 3 -4 -3 -7 -12 -6 -9 2 -19
9 -21 17 -3 11 -2 12 6 1 8 -11 10 -11 15 0 3 10 -4 15 -27 16 -61 5 -79 14
-60 30 4 4 4 2 1 -4 -3 -6 0 -11 7 -11 30 0 9 22 -23 25 -61 4 -74 8 -77 24
-1 8 4 15 12 15 7 0 12 -5 11 -10 -1 -5 4 -11 11 -12 7 -2 8 -1 3 1 -6 3 -8
11 -5 18 4 10 -6 14 -33 15 -84 3 -94 3 -89 8 2 2 12 6 23 7 23 4 24 18 0 22
-9 1 -15 -2 -11 -7 3 -5 1 -9 -5 -9 -5 0 -11 5 -13 11 -2 6 -20 11 -41 11 -30
0 -37 4 -37 19 0 16 -8 19 -42 20 -24 1 -47 1 -53 0 -5 -1 -2 5 7 12 19 15 14
27 -9 27 -8 0 -12 -4 -8 -9 3 -5 0 -13 -6 -17 -7 -4 -9 -3 -5 4 9 15 -13 26
-51 25 -18 0 -38 6 -44 14 -10 11 -8 12 13 4 18 -7 25 -6 25 3 0 6 -7 12 -16
12 -99 5 -130 8 -129 13 2 26 -6 31 -51 31 -35 0 -51 4 -55 16 -9 22 -8 26 6
18 6 -4 8 -3 5 3 -3 5 -25 10 -49 11 -42 2 -93 7 -113 11 -5 1 0 7 12 14 21
11 18 13 -30 15 -116 6 -127 7 -127 14 0 5 5 8 12 8 6 0 8 3 5 6 -7 8 -42 12
-112 15 -27 1 -55 6 -62 11 -7 5 -14 5 -18 -2 -8 -13 -25 -13 -25 1 0 5 4 8 9
4 5 -3 13 -1 16 5 5 8 11 8 20 0 10 -8 15 -8 21 1 4 7 3 9 -4 5 -6 -3 -13 -3
-15 1 -3 5 -45 9 -93 11 -55 2 -91 8 -96 15 -4 7 -8 8 -8 2 0 -5 -11 -11 -25
-11 -14 -1 -25 2 -25 8 0 5 6 6 13 2 7 -5 7 -1 -2 10 -14 16 -15 16 -28 -6
-12 -19 -13 -20 -8 -3 5 22 -6 23 -190 29 -23 1 -40 6 -40 13 0 6 -3 15 -7 19
-4 3 -6 -2 -3 -14 3 -17 -1 -20 -31 -18 -44 3 -66 22 -25 21 16 0 27 -4 24 -9
-4 -5 -1 -6 5 -2 7 4 12 11 12 16 0 4 -210 8 -468 8 -390 0 -471 -2 -487 -14z
m129 -10 c3 -8 2 -12 -4 -9 -6 3 -10 10 -10 16 0 14 7 11 14 -7z m56 12 c0 -3
-4 -8 -10 -11 -5 -3 -10 -1 -10 4 0 6 5 11 10 11 6 0 10 -2 10 -4z m650 -7 c0
-5 -4 -7 -10 -4 -5 3 -10 1 -10 -6 0 -7 -3 -10 -6 -6 -8 7 4 27 17 27 5 0 9
-5 9 -11z m40 -4 c11 -13 10 -14 -4 -9 -9 3 -16 10 -16 15 0 13 6 11 20 -6z
m-1123 -47 c-3 -8 -6 -5 -6 6 -1 11 2 17 5 13 3 -3 4 -12 1 -19z m1873 -68 c0
-5 -5 -10 -11 -10 -5 0 -7 5 -4 10 3 6 8 10 11 10 2 0 4 -4 4 -10z m-2563 -89
c-1 -16 -5 -18 -19 -10 -23 12 -24 20 -1 12 11 -4 14 -3 9 5 -4 7 -3 12 3 12
5 0 9 -9 8 -19z m2850 12 c-4 -3 -2 -11 3 -18 7 -8 5 -12 -4 -12 -8 0 -12 7
-11 16 5 22 4 21 12 21 3 0 3 -3 0 -7z m-2977 -62 c0 -4 -6 -8 -13 -8 -8 0
-14 6 -14 13 0 7 6 10 14 7 7 -3 13 -8 13 -12z m-500 -199 c0 -13 -12 -22 -22
-16 -10 6 -1 24 13 24 5 0 9 -4 9 -8z m1605 -192 c-7 -11 8 -14 19 -3 13 14
91 9 104 -7 10 -13 11 -12 5 5 -6 18 -5 19 12 5 10 -8 16 -10 12 -3 -6 9 65
12 308 11 188 0 315 -4 315 -10 0 -5 -4 -6 -10 -3 -5 3 -10 1 -10 -4 0 -16 20
-13 26 3 8 20 106 15 112 -5 3 -11 1 -10 -7 1 -6 9 -11 10 -11 3 0 -6 -8 -10
-17 -8 -10 2 -18 4 -18 5 0 1 -11 3 -25 6 -23 3 -24 3 -5 -8 29 -17 95 -21 95
-6 0 9 3 8 10 -2 9 -13 11 -13 20 0 5 8 10 10 10 4 0 -11 44 -15 175 -17 28 0
44 -2 38 -4 -7 -3 -13 -9 -13 -14 0 -6 4 -7 10 -4 5 3 18 2 27 -4 15 -8 13 -9
-10 -7 -16 2 -32 8 -36 14 -4 7 -12 3 -20 -11 -13 -20 -13 -21 2 -8 10 8 17 9
17 3 0 -14 61 -13 79 2 11 8 13 8 7 -1 -7 -12 23 -16 117 -16 10 0 17 -7 17
-18 0 -22 10 -24 29 -6 11 10 13 10 7 0 -5 -10 7 -13 46 -14 75 -2 76 -2 90
-21 9 -12 29 -18 65 -19 29 -1 50 -6 47 -11 -8 -12 10 -10 24 4 7 7 12 8 12 4
0 -5 -8 -15 -17 -23 -17 -13 -17 -14 2 -12 11 1 41 1 68 0 40 -1 47 -4 47 -21
0 -11 5 -20 11 -20 5 0 7 5 4 10 -3 6 -1 10 5 10 6 0 8 5 4 12 -4 7 -3 8 4 4
6 -4 9 -13 5 -21 -4 -12 4 -15 33 -16 22 -1 42 -1 47 0 4 0 7 -4 7 -10 0 -6
-9 -9 -19 -6 -12 3 -18 0 -15 -7 2 -6 12 -12 22 -13 9 0 36 -2 60 -4 23 -1 42
-7 41 -13 -3 -26 2 -36 18 -36 15 0 14 2 -3 16 -17 15 -17 15 8 0 15 -9 43
-17 63 -18 20 -2 35 -8 35 -16 0 -10 -5 -10 -20 -2 -15 8 -20 8 -20 -3 0 -7 8
-13 18 -14 106 -7 112 -8 111 -23 0 -12 -2 -12 -6 -1 -5 11 -7 11 -14 0 -8
-12 -11 -11 -20 1 -9 13 -10 13 -6 0 2 -9 16 -15 38 -16 19 0 40 -3 46 -7 6
-4 18 -4 27 -1 9 3 16 1 16 -6 0 -6 -4 -8 -10 -5 -5 3 -10 1 -10 -5 0 -6 -6
-8 -12 -4 -7 4 -10 4 -6 -1 8 -8 51 -16 96 -18 14 -1 22 -7 22 -18 0 -11 9
-19 23 -21 13 -2 21 -9 19 -19 -1 -11 6 -16 25 -17 25 -1 58 -6 73 -12 3 -1 8
-2 11 -2 3 1 6 -6 6 -13 0 -11 -4 -12 -14 -4 -10 9 -13 8 -13 -5 0 -10 8 -16
23 -16 15 0 28 -9 36 -22 l11 -23 -6 23 c-3 12 -1 22 5 22 6 0 10 -5 9 -12 -2
-7 7 -17 20 -23 12 -5 25 -18 28 -27 3 -10 11 -18 18 -18 8 0 21 -10 30 -22
l17 -23 -11 23 c-9 19 -8 22 10 22 13 0 20 -7 20 -20 0 -13 7 -20 20 -20 13 0
20 -7 20 -20 0 -11 5 -20 10 -20 6 0 10 5 10 10 0 6 5 10 10 10 6 0 9 -6 8
-12 -2 -8 6 -12 20 -10 12 2 22 -2 22 -8 0 -6 -4 -8 -10 -5 -5 3 -10 1 -10 -5
0 -6 -6 -8 -12 -4 -8 4 -9 3 -5 -2 8 -9 12 -10 55 -12 17 -2 22 -8 22 -28 0
-21 4 -25 20 -21 18 5 26 -7 21 -35 -2 -12 17 -10 24 2 3 6 12 10 18 10 7 0 6
-4 -3 -10 -13 -8 -13 -10 3 -11 30 -3 35 -4 42 -10 3 -4 1 -10 -6 -15 -7 -4
-10 -3 -6 3 3 5 0 10 -7 10 -23 0 -13 -23 11 -25 61 -5 63 -7 36 -28 -17 -13
-17 -14 0 -8 9 3 17 2 17 -4 0 -6 9 -8 20 -5 15 4 20 0 20 -16 0 -14 6 -21 20
-21 11 0 20 -7 20 -15 0 -9 11 -20 24 -26 16 -8 22 -17 19 -30 -4 -15 0 -19
21 -19 20 0 26 -5 26 -20 0 -14 6 -20 18 -18 11 2 18 -4 20 -19 2 -17 10 -23
27 -23 18 0 22 -4 18 -20 -4 -15 0 -20 16 -20 14 0 21 -6 21 -20 0 -13 7 -20
20 -20 13 0 20 -7 20 -20 0 -13 7 -20 20 -20 15 0 20 -7 20 -25 0 -20 5 -25
25 -25 18 0 25 -5 25 -20 0 -18 10 -25 33 -21 4 0 7 -10 7 -23 0 -20 4 -23 22
-18 17 4 20 2 15 -11 -3 -9 -2 -19 3 -22 5 -3 7 -14 5 -24 -2 -10 3 -18 11
-18 10 0 11 4 3 14 -11 12 -8 16 8 11 9 -3 14 -25 14 -50 0 -12 8 -18 23 -18
19 0 22 -4 18 -25 -3 -20 0 -25 17 -25 12 0 20 -4 17 -9 -3 -4 3 -18 13 -30
19 -21 37 -29 26 -11 -3 6 -1 10 5 10 6 0 10 -6 9 -12 -5 -39 2 -68 16 -68 13
0 14 4 5 23 -11 21 -10 21 4 3 9 -11 16 -30 16 -43 0 -16 6 -23 18 -23 10 0
19 -6 19 -12 1 -23 8 -43 18 -50 6 -5 5 -8 -2 -8 -7 0 -13 -5 -13 -11 0 -5 5
-7 11 -4 13 9 38 -25 32 -42 -3 -8 2 -11 15 -8 15 2 20 -1 19 -13 -2 -36 13
-71 28 -66 11 5 15 -1 15 -19 0 -21 4 -25 25 -23 13 2 22 -1 19 -6 -3 -5 -12
-7 -20 -4 -7 3 -16 1 -19 -3 -6 -11 23 -23 36 -15 8 5 14 -38 10 -80 -1 -16 1
-16 17 4 l18 22 2 -38 c4 -50 5 -51 47 -46 30 4 36 8 32 23 -4 15 0 19 19 19
18 0 24 5 22 18 -2 12 5 18 24 20 24 3 27 6 18 23 -9 16 -7 21 12 28 13 5 26
7 31 4 4 -2 7 5 7 16 0 15 7 21 23 21 12 0 31 7 41 15 11 8 15 15 10 15 -6 0
-16 -6 -23 -12 -11 -11 -13 -10 -9 2 3 8 14 16 26 18 12 2 20 8 17 13 -4 5 -2
9 4 9 5 0 11 -6 14 -12 2 -7 8 -10 12 -6 4 4 2 15 -5 23 -7 9 -9 15 -4 14 33
-6 54 3 54 22 0 16 5 20 20 16 11 -3 20 -2 20 3 0 4 10 7 23 6 15 -1 22 4 21
17 -1 12 6 17 23 17 13 0 21 4 18 10 -3 6 -2 10 4 10 6 0 8 7 5 15 -6 14 21
21 62 16 6 -1 11 5 11 13 0 16 -17 17 -30 1 -5 -6 -7 -4 -4 5 4 15 7 16 51 19
15 1 26 9 29 22 3 11 11 19 19 18 44 -6 68 2 68 21 0 17 7 20 40 20 33 0 40 3
38 17 -2 12 5 18 22 20 54 6 65 11 62 27 -3 15 33 21 113 17 15 0 13 2 -7 10
-36 14 -26 37 18 38 63 3 66 4 61 23 -3 10 -1 16 4 12 5 -3 9 -12 9 -20 0 -8
4 -14 10 -14 5 0 7 6 4 14 -8 20 6 25 69 27 31 1 56 5 55 8 -2 25 6 31 40 31
21 0 44 6 51 13 11 10 13 10 7 0 -4 -8 -1 -13 8 -13 9 0 16 8 16 19 0 13 7 19
23 18 12 0 46 1 75 3 43 3 52 7 47 19 -4 13 -3 13 8 -1 11 -14 25 -16 55 -9 2
1 0 6 -3 11 -5 8 -11 8 -20 0 -9 -8 -14 -7 -18 4 -4 9 2 14 21 13 15 0 78 2
140 3 102 3 114 5 128 24 l14 21 6 -22 c4 -13 10 -23 16 -23 5 0 4 9 -2 20
-11 20 -9 20 334 18 190 -1 343 -5 340 -9 -2 -4 4 -10 13 -12 10 -3 6 -4 -9
-4 -15 1 -25 4 -23 7 2 4 -2 7 -10 7 -8 0 -16 -5 -18 -11 -3 -7 32 -12 107
-14 85 -2 114 -6 123 -18 6 -9 14 -11 17 -5 3 5 0 12 -6 14 -7 3 5 5 28 4 25
-1 41 -7 41 -14 0 -9 -4 -10 -14 -2 -10 9 -13 8 -13 -2 0 -11 -3 -11 -11 1 -8
12 -10 12 -7 1 4 -16 17 -18 126 -22 59 -3 72 -6 72 -20 0 -13 11 -17 62 -18
33 -1 67 -6 75 -12 10 -9 13 -8 13 1 0 8 3 11 6 7 3 -3 3 -11 -1 -17 -5 -8
-11 -8 -21 1 -12 9 -13 9 -9 -3 4 -9 21 -15 47 -16 22 -1 48 -8 56 -14 13 -10
14 -10 8 0 -4 7 -1 12 9 12 13 0 14 -4 5 -21 -9 -16 -8 -20 2 -18 32 4 99 -2
94 -9 -2 -4 2 -16 10 -27 8 -10 14 -14 14 -8 0 7 -5 15 -10 18 -11 7 -4 25 10
25 5 0 7 -6 5 -12 -9 -24 12 -40 51 -40 22 0 34 -3 27 -5 -10 -4 -10 -7 0 -18
9 -10 15 -10 26 -1 12 8 13 8 7 -1 -8 -14 2 -17 43 -13 13 1 21 -2 18 -7 -11
-18 10 -34 46 -35 29 -1 37 -5 37 -20 0 -13 7 -18 25 -18 14 0 25 -6 26 -12 0
-10 2 -10 6 0 2 6 9 12 14 12 6 0 5 -8 -1 -20 -6 -11 -7 -20 -3 -19 4 1 21 1
36 0 24 -1 27 -4 22 -22 -5 -14 -3 -20 7 -18 7 1 29 1 49 0 33 -1 36 -3 31
-27 -4 -22 -2 -25 19 -22 18 2 23 -1 21 -14 -1 -9 2 -19 7 -22 5 -3 8 2 7 11
0 9 6 18 14 20 13 4 13 3 0 -6 -11 -8 -12 -11 -2 -11 7 0 10 -4 7 -10 -6 -10
7 -14 33 -11 6 1 12 -8 12 -20 0 -15 4 -19 15 -15 9 3 18 -1 21 -9 4 -8 11
-12 18 -8 6 4 5 -1 -3 -10 -8 -10 -9 -17 -3 -17 6 0 14 5 18 11 4 8 11 3 20
-12 7 -13 10 -27 8 -30 -2 -4 4 -6 14 -6 52 0 62 -4 62 -23 0 -18 10 -25 33
-21 4 0 7 -10 7 -24 0 -18 5 -25 20 -25 18 0 25 -10 21 -32 0 -5 8 -8 19 -8
13 0 20 -7 20 -19 0 -14 8 -21 28 -23 19 -2 26 -8 24 -20 -2 -13 4 -18 22 -18
14 0 28 -5 32 -12 4 -7 3 -8 -4 -4 -7 4 -12 1 -12 -6 0 -8 10 -14 21 -15 12
-1 27 -7 33 -14 8 -9 8 -10 -1 -5 -8 4 -13 1 -13 -8 0 -9 9 -16 20 -16 15 0
20 -7 20 -24 0 -18 6 -26 23 -28 12 -2 21 -9 19 -17 -4 -19 20 -33 30 -18 5 7
8 1 8 -15 0 -23 4 -28 25 -28 14 0 25 -5 25 -11 0 -5 -4 -8 -9 -4 -5 3 -13 0
-17 -6 -4 -7 -3 -9 4 -5 6 3 14 1 19 -6 4 -7 14 -13 21 -13 6 0 11 -4 10 -10
-2 -5 -9 -9 -15 -9 -7 1 -10 -3 -7 -8 3 -5 12 -7 20 -4 8 3 15 1 15 -4 1 -6 2
-16 3 -22 0 -7 11 -14 23 -16 19 -3 21 -7 13 -21 -11 -21 -4 -31 22 -31 17 0
24 -24 19 -70 -2 -13 -1 -13 8 0 5 8 8 17 6 20 -2 4 2 7 9 7 7 0 13 -7 13 -16
0 -52 4 -61 23 -61 11 0 19 -3 19 -7 -4 -26 2 -43 14 -37 9 6 9 4 -1 -8 -15
-19 -2 -31 22 -22 13 5 16 -1 16 -29 0 -30 3 -34 20 -30 12 3 20 0 20 -6 0 -7
-4 -10 -9 -7 -5 3 -11 -1 -14 -9 -4 -9 -1 -12 9 -8 10 4 14 -2 14 -22 0 -22 4
-26 20 -22 13 3 20 0 20 -10 0 -9 -6 -13 -15 -10 -8 4 -17 2 -20 -4 -4 -5 -3
-9 2 -8 23 4 32 -4 35 -28 2 -20 8 -27 21 -25 14 2 17 -5 18 -45 1 -26 1 -52
0 -57 -1 -5 5 -4 13 3 9 7 13 18 9 24 -3 6 -1 7 5 3 6 -3 11 -14 10 -24 -1
-71 6 -112 21 -112 9 0 12 3 6 8 -15 11 -16 29 -1 29 9 0 13 -19 15 -56 1 -31
7 -60 13 -66 8 -7 9 -5 5 7 -5 15 -4 16 13 6 13 -9 20 -26 22 -58 3 -39 6 -45
23 -42 16 2 17 1 5 -7 -8 -5 -18 -7 -22 -5 -4 3 -8 0 -8 -6 0 -7 8 -14 18 -17
18 -4 20 -12 26 -115 1 -22 4 -24 18 -17 12 6 18 6 18 0 0 -5 -9 -13 -20 -16
-23 -7 -27 -22 -5 -22 8 0 12 4 9 9 -3 4 -1 8 4 8 5 0 10 -30 12 -67 1 -38 3
-78 3 -90 1 -12 3 -21 7 -21 23 2 28 -8 30 -69 2 -68 8 -179 11 -198 1 -5 -2
-19 -6 -30 -6 -18 -5 -18 5 -2 17 26 21 57 7 57 -9 0 -9 2 0 8 8 5 9 13 3 22
-6 8 -10 20 -10 25 1 6 6 1 12 -10 7 -11 13 -55 14 -98 3 -72 1 -77 -14 -65
-15 11 -15 10 0 -8 16 -18 18 -48 17 -297 -1 -203 -5 -279 -14 -287 -8 -7 -12
-5 -12 5 0 8 4 12 9 9 4 -3 8 0 8 5 0 6 -7 11 -15 11 -16 0 -16 -25 -1 -49 6
-10 5 -12 -2 -7 -7 4 -12 1 -12 -6 0 -8 8 -14 18 -15 52 -2 80 -8 76 -15 -3
-5 -10 -5 -16 -2 -7 4 -8 2 -4 -4 4 -6 14 -8 23 -5 12 5 14 3 8 -7 -5 -8 -4
-11 3 -6 6 4 9 14 6 24 -4 13 -2 12 8 -3 15 -23 20 -24 83 -27 25 0 43 -3 40
-6 -3 -3 0 -11 6 -19 9 -9 8 -13 0 -13 -6 0 -11 4 -11 8 0 5 -6 9 -13 9 -8 0
-14 -5 -14 -11 0 -6 16 -12 36 -12 70 -2 129 -9 126 -14 -9 -15 16 -32 47 -32
27 0 35 -4 34 -16 -1 -11 7 -17 21 -18 13 -1 30 -7 40 -15 11 -9 14 -10 9 -1
-4 7 -2 12 8 12 8 0 13 -8 12 -17 -3 -14 6 -19 43 -23 37 -4 45 -8 43 -22 -2
-11 3 -18 13 -18 10 0 13 5 9 13 -6 10 -4 10 7 0 7 -7 21 -13 31 -13 11 0 18
-7 18 -20 0 -13 7 -20 20 -20 11 0 20 -7 20 -15 0 -8 5 -15 10 -15 6 0 9 3 8
8 -2 4 1 9 6 12 5 3 10 -3 12 -13 1 -9 -2 -15 -7 -11 -5 3 -9 0 -9 -5 0 -6 14
-11 31 -11 26 0 31 -3 26 -20 -5 -20 3 -22 74 -23 9 0 16 -5 16 -12 0 -6 -6
-12 -13 -12 -7 0 -10 5 -7 10 3 6 1 7 -6 3 -18 -11 -6 -21 30 -24 40 -3 55
-12 38 -23 -14 -8 -14 -8 37 -24 9 -3 14 -11 10 -20 -4 -11 3 -15 27 -16 18
-1 35 -1 38 -1 3 1 6 -6 6 -13 0 -11 -4 -12 -13 -4 -13 10 -32 -6 -20 -18 3
-4 6 -1 6 6 0 8 7 7 23 -4 13 -8 27 -12 30 -8 4 3 7 0 7 -8 0 -11 2 -11 10 1
8 12 10 9 11 -12 2 -41 3 -46 12 -55 5 -4 7 -2 5 6 -1 7 3 16 10 18 7 3 12 -3
12 -15 0 -11 9 -22 20 -25 11 -3 20 -12 20 -21 0 -9 8 -16 19 -16 13 0 21 -8
23 -22 2 -16 9 -22 21 -20 11 2 17 -4 17 -18 0 -13 7 -20 20 -20 13 0 20 -7
20 -20 0 -14 7 -20 24 -20 20 0 24 -4 21 -25 -2 -19 2 -25 17 -25 21 0 32 -22
37 -72 1 -5 6 -8 12 -8 8 0 8 5 -1 15 -7 8 -10 15 -6 15 3 0 9 0 14 0 7 0 9
-5 11 -46 0 -14 5 -23 10 -20 4 3 17 -2 27 -10 10 -9 13 -13 7 -9 -9 4 -11 1
-7 -9 3 -9 15 -16 26 -16 10 0 18 -6 17 -12 -3 -26 1 -39 11 -33 5 3 10 0 10
-7 0 -9 3 -9 10 2 7 12 9 10 8 -10 -2 -60 1 -70 27 -70 24 0 31 -15 26 -57 -1
-6 7 -14 18 -18 11 -3 21 -16 23 -28 2 -13 10 -22 20 -21 16 2 17 -2 18 -63 0
-16 6 -23 20 -23 17 0 20 -7 20 -40 0 -33 3 -40 20 -40 17 0 20 -7 20 -40 0
-33 3 -40 20 -40 17 0 20 -7 20 -45 0 -39 3 -45 20 -45 26 0 30 -10 33 -90 1
-41 6 -65 14 -65 19 0 22 -9 26 -70 3 -40 8 -60 18 -63 11 -3 11 -1 -1 7 -11
8 -12 11 -2 11 7 0 10 5 7 10 -3 6 -2 10 3 10 8 0 14 -65 14 -148 0 -24 3 -31
11 -23 19 19 23 12 24 -34 1 -25 2 -68 2 -96 1 -47 2 -50 19 -38 16 13 16 13
0 -7 -10 -11 -18 -34 -18 -50 0 -21 3 -25 9 -15 5 8 7 21 4 30 -5 12 -3 13 7
5 13 -13 25 -98 12 -90 -4 2 -14 0 -22 -5 -12 -8 -11 -9 5 -7 20 3 20 -3 21
-304 0 -254 -2 -306 -13 -297 -14 13 -18 23 -5 15 5 -3 9 1 9 8 0 7 -5 13 -11
13 -6 0 -12 -16 -12 -36 -5 -190 -9 -260 -14 -252 -3 6 -11 7 -18 2 -7 -4 -13
-38 -14 -89 -2 -66 -6 -82 -18 -82 -13 0 -13 1 0 10 12 8 12 10 1 10 -10 0
-11 3 -2 13 8 10 7 14 -2 14 -7 0 -13 -10 -14 -21 -5 -133 -7 -146 -25 -146
-18 0 -21 -17 -21 -111 0 -9 -6 -16 -13 -15 -25 4 -29 18 -10 31 18 14 18 14
-1 13 -15 -2 -19 -11 -21 -47 -3 -59 -6 -79 -15 -87 -7 -7 -11 9 -8 36 1 11 0
12 -7 2 -4 -6 -9 -33 -11 -59 -3 -55 -7 -64 -26 -56 -11 4 -15 -3 -15 -27 0
-22 -4 -29 -12 -24 -10 6 -10 4 0 -7 17 -19 15 -30 -5 -27 -10 2 -19 -4 -19
-12 -1 -8 -2 -21 -3 -29 0 -7 -7 -11 -16 -8 -8 4 -17 2 -20 -4 -4 -5 -3 -9 2
-8 19 3 33 -2 33 -12 0 -6 -7 -8 -15 -5 -17 6 -24 -6 -29 -48 -1 -14 -7 -26
-12 -26 -5 1 -8 8 -6 16 2 8 -2 14 -8 14 -5 0 -9 -3 -9 -7 1 -5 1 -23 0 -40
-1 -28 -5 -33 -25 -33 -17 0 -25 -6 -25 -17 -2 -54 -6 -70 -16 -70 -7 0 -12 6
-12 13 0 7 5 10 11 7 6 -3 8 -3 4 1 -3 4 -10 7 -15 7 -9 -1 -10 -6 -12 -47 -1
-19 -5 -25 -16 -20 -9 3 -18 -1 -20 -9 -14 -43 -17 -50 -22 -37 -3 6 -9 9 -14
6 -6 -3 -5 -12 3 -22 10 -12 10 -14 1 -8 -8 4 -13 1 -14 -8 -1 -9 -2 -22 -3
-28 0 -7 -7 -14 -13 -14 -7 -1 -18 -2 -23 -3 -6 0 -8 -13 -5 -28 5 -23 4 -25
-5 -10 -6 9 -16 17 -23 17 -8 0 -6 -4 3 -11 11 -8 12 -12 3 -16 -7 -2 -13 -14
-13 -25 0 -13 -5 -18 -17 -16 -10 2 -17 11 -15 19 2 8 0 10 -5 6 -8 -9 -10
-14 -12 -47 -1 -13 -8 -20 -21 -20 -18 0 -25 -10 -21 -32 0 -5 -8 -8 -19 -8
-13 0 -20 -7 -20 -20 0 -13 -7 -20 -20 -20 -13 0 -20 -7 -20 -20 0 -13 -7 -20
-20 -20 -15 0 -20 -7 -20 -26 0 -17 -4 -24 -12 -21 -17 6 -58 -10 -58 -23 0
-5 5 -10 11 -10 5 0 7 5 4 10 -3 6 -1 10 4 10 6 0 11 -7 11 -16 0 -12 -7 -15
-25 -12 -14 3 -25 2 -25 -3 0 -4 -8 -6 -18 -4 -11 2 -19 -3 -19 -11 0 -10 4
-11 14 -3 7 6 13 9 13 5 0 -3 0 -8 0 -11 0 -3 -1 -4 -3 -2 -2 1 -16 -6 -31
-17 -16 -10 -25 -13 -22 -7 4 6 2 11 -3 11 -6 0 -11 -9 -11 -20 0 -13 -7 -20
-20 -20 -14 0 -20 -7 -20 -21 0 -11 -5 -17 -10 -14 -6 4 -8 10 -5 15 3 5 1 11
-4 15 -6 3 -8 -3 -6 -15 4 -19 -5 -24 -32 -21 -7 1 -14 -3 -14 -9 -1 -5 -2
-16 -3 -22 -1 -8 -12 -12 -26 -10 -20 2 -26 -2 -27 -19 -2 -28 -4 -29 -47 -31
-36 -1 -46 -11 -24 -24 6 -4 8 -3 5 3 -3 5 0 10 7 10 7 0 13 -6 13 -12 0 -7
-7 -12 -16 -11 -31 1 -81 -14 -81 -24 0 -6 5 -8 10 -5 5 3 10 1 10 -4 0 -6
-18 -11 -40 -11 -33 0 -40 -3 -40 -20 0 -16 -7 -20 -40 -21 -54 -2 -57 -3 -67
-13 -5 -5 -3 -6 5 -2 7 4 12 1 12 -8 0 -9 -3 -15 -7 -15 -5 1 -23 1 -41 0 -27
-1 -32 -4 -28 -19 5 -15 -1 -18 -36 -19 -41 -2 -60 -16 -52 -38 4 -9 -13 -13
-58 -14 -35 -1 -72 -3 -82 -5 -24 -3 -34 -26 -12 -26 9 0 16 4 16 8 0 4 11 8
25 8 21 0 30 -7 8 -8 -4 0 -15 -4 -24 -9 -9 -5 -51 -9 -93 -10 -71 -1 -91 -9
-66 -24 6 -4 17 -1 25 5 12 10 15 10 15 -2 0 -9 -11 -15 -27 -16 -16 0 -56 -2
-90 -3 -51 -2 -61 -5 -52 -16 6 -7 8 -13 3 -14 -59 -6 -125 -10 -203 -12 -76
-2 -96 -6 -106 -21 -14 -18 -44 -19 -57 -1 -5 6 -8 5 -8 -3 0 -10 -1180 -12
-5906 -12 -5526 0 -5908 1 -5919 17 -15 21 -130 31 -119 10 5 -9 4 -9 -7 1 -7
6 -37 12 -67 12 -40 0 -51 3 -46 13 6 9 4 9 -7 1 -8 -6 -25 -11 -39 -12 -18
-1 -21 1 -10 8 8 5 18 6 24 3 5 -3 6 -1 2 5 -3 5 -2 12 4 14 8 3 -76 8 -177
11 -17 1 -31 4 -31 7 2 20 -4 30 -18 30 -11 0 -14 -4 -8 -13 5 -7 2 -6 -6 3
-9 9 -21 15 -28 12 -7 -2 -20 2 -29 10 -12 9 -15 9 -9 1 5 -9 2 -11 -8 -7 -9
3 -16 12 -16 20 0 13 -61 21 -110 14 -10 -1 -9 3 5 14 11 8 16 16 10 16 -5 0
-3 5 5 10 12 7 10 9 -7 7 -12 0 -20 -4 -17 -8 2 -4 0 -10 -6 -14 -5 -3 -10 1
-10 9 0 11 -10 16 -34 16 -33 0 -62 20 -49 33 3 4 -12 7 -35 7 -36 0 -42 3
-42 21 0 16 -5 20 -20 16 -11 -3 -22 -2 -25 3 -2 4 -17 5 -32 2 -24 -4 -26 -3
-16 10 16 19 7 28 -29 28 -16 0 -28 5 -28 13 0 8 -4 7 -11 -3 -9 -12 -10 -11
-6 8 4 19 1 22 -23 22 -38 0 -60 9 -54 23 2 7 -7 17 -21 24 -14 6 -23 7 -19 2
3 -5 0 -9 -5 -9 -10 0 -15 13 -12 35 0 6 -7 12 -17 13 -14 1 -41 7 -60 11 -2
1 0 6 3 11 5 8 11 8 19 1 9 -8 13 -7 13 3 0 7 -7 13 -16 13 -52 0 -61 4 -61
23 0 13 -7 20 -20 20 -13 0 -20 7 -20 20 0 20 -11 24 -70 22 -14 0 -20 2 -13
5 21 8 -7 41 -31 37 -12 -3 -15 -1 -7 2 11 5 11 8 0 16 -10 7 -7 8 10 4 16 -3
21 -2 14 5 -6 6 -24 11 -42 11 -26 1 -31 5 -31 25 0 20 -10 28 -32 24 -5 0 -8
8 -8 19 0 13 -7 20 -20 20 -13 0 -20 7 -20 20 0 13 -7 20 -20 20 -13 0 -20 7
-20 20 0 15 -7 20 -25 20 -18 0 -25 5 -25 20 0 14 -7 20 -21 20 -14 0 -19 5
-16 14 6 15 -16 40 -25 30 -8 -7 -26 48 -22 69 1 11 -1 16 -4 12 -4 -4 -7 -11
-7 -16 0 -5 -4 -8 -10 -6 -10 2 -11 5 -13 41 -1 12 -7 16 -18 12 -8 -3 -12 -2
-9 4 3 6 1 10 -4 10 -6 0 -11 11 -11 25 0 23 -2 24 -20 15 -18 -10 -20 -8 -20
20 0 25 -4 29 -22 27 -23 -2 -25 1 -27 56 0 16 -5 26 -9 23 -17 -10 -33 12
-34 48 -1 23 -4 32 -9 24 -7 -10 -9 -10 -9 1 0 8 -3 11 -6 8 -4 -4 -2 -13 4
-20 9 -10 8 -14 -3 -14 -7 0 -14 3 -13 6 0 3 0 21 -1 39 -1 25 -5 32 -21 32
-12 0 -20 7 -20 18 0 14 2 15 10 2 6 -9 10 -10 10 -3 0 6 -4 15 -10 18 -5 3
-10 15 -10 26 0 12 -7 19 -20 19 -17 0 -20 7 -20 45 0 38 -3 45 -20 45 -17 0
-20 7 -20 41 0 22 -4 38 -9 34 -5 -3 -12 -1 -16 5 -4 6 -10 8 -14 5 -5 -2 -9
5 -9 18 -2 43 -10 98 -16 104 -3 3 -9 -2 -12 -12 -4 -10 -1 -21 7 -27 12 -8
11 -9 -1 -5 -8 2 -16 15 -17 28 -5 77 -9 96 -25 110 -13 12 -18 34 -20 87 -2
38 -5 69 -8 67 -18 -11 -29 19 -32 90 -3 69 -6 80 -21 77 -15 -2 -17 7 -18 75
-1 43 -1 84 0 91 3 20 -9 14 -20 -10 -8 -21 -9 -20 -4 5 4 21 2 27 -6 21 -8
-4 -9 -3 -5 4 4 6 13 9 21 5 8 -3 15 0 15 6 0 6 -8 11 -19 11 -17 0 -18 14
-19 295 0 179 3 293 9 290 5 -4 9 -1 9 4 0 6 -4 11 -8 11 -4 0 -8 18 -8 40 0
38 8 51 20 31 4 -5 1 -11 -4 -13 -8 -2 -8 -11 -1 -28 6 -15 10 -19 11 -10 8
68 7 97 -3 109 -9 12 -9 13 1 7 11 -7 14 14 15 151 0 12 3 21 6 19 7 -5 25 15
29 33 1 7 3 42 4 76 1 35 4 64 7 63 29 -3 33 13 32 105 0 19 5 27 17 26 10 0
12 -3 5 -6 -7 -2 -13 -10 -13 -16 0 -8 4 -7 12 1 11 11 18 51 21 119 1 12 3
21 7 21 22 -2 30 5 30 26 0 14 5 28 10 31 6 3 10 12 10 18 0 7 -4 6 -10 -3 -8
-13 -10 -12 -10 3 0 12 8 17 25 17 23 0 25 4 26 43 0 23 3 36 6 29 8 -21 34
23 35 58 1 22 6 30 20 30 14 0 18 8 18 36 0 25 3 33 13 28 8 -5 8 -2 -2 9 -16
20 -1 23 18 5 7 -7 12 -8 11 -3 -2 6 -2 23 -1 38 1 25 4 27 24 21 22 -7 22 -6
-2 13 -18 15 -20 20 -8 20 9 0 14 -4 11 -9 -3 -4 0 -8 5 -8 6 0 11 14 11 30 0
24 4 30 17 28 13 -2 18 3 17 20 0 12 3 22 7 22 4 0 5 12 3 27 -3 15 -2 25 1
21 4 -3 8 -14 9 -24 2 -9 9 -18 17 -19 14 -3 17 9 20 68 0 11 8 17 24 17 18 0
22 4 18 20 -4 15 0 20 16 20 14 0 21 7 22 20 1 11 3 25 4 30 1 6 3 15 4 20 0
6 6 10 12 10 5 0 8 -4 5 -8 -2 -4 0 -14 5 -22 9 -13 10 -13 8 0 -3 29 3 75 8
63 3 -10 8 -10 19 1 8 8 14 20 14 26 0 6 5 8 13 4 8 -5 8 -2 -2 9 -12 15 -11
17 12 17 20 0 24 4 20 20 -4 16 0 20 21 20 19 0 26 5 26 20 0 13 7 20 20 20
13 0 20 7 20 20 0 11 3 19 8 19 22 -4 32 3 32 21 0 13 7 20 20 20 13 0 20 7
20 20 0 15 7 20 26 20 15 0 23 4 19 10 -4 6 -4 18 -1 27 5 13 9 13 22 2 12
-10 15 -10 12 2 -2 8 3 13 10 11 6 -1 12 2 12 8 0 5 -5 10 -12 10 -6 0 -8 3
-5 7 7 6 31 10 70 12 11 1 17 7 15 19 -2 11 4 18 20 20 20 3 27 13 23 35 0 4
11 7 25 7 19 0 25 4 21 14 -4 10 -1 13 8 9 8 -3 12 -10 8 -16 -3 -6 -1 -7 6
-3 9 6 9 11 0 22 -7 9 -8 14 -3 13 5 -1 22 -1 38 0 23 1 26 4 17 15 -16 19 -3
26 49 28 23 1 36 5 28 9 -6 4 -17 5 -23 1 -5 -3 -4 1 3 10 10 13 10 17 0 20
-7 3 8 5 32 6 32 2 49 8 60 22 9 12 26 22 38 23 14 1 22 8 22 20 0 14 5 18 20
14 11 -3 20 -2 20 2 0 4 14 5 31 3 22 -3 30 -1 25 7 -4 6 -13 8 -19 4 -7 -4
-6 1 2 10 7 10 19 17 25 16 31 -4 67 2 62 10 -12 19 23 31 100 34 22 1 30 24
8 24 -7 0 -11 -3 -9 -7 2 -4 -3 -7 -11 -7 -10 0 -11 4 -4 11 13 13 33 16 102
17 32 0 60 4 63 9 3 4 -4 6 -15 3 -13 -4 -20 0 -20 10 0 17 20 27 54 27 12 0
28 6 35 13 11 9 13 9 7 0 -4 -8 -1 -13 8 -13 9 0 16 6 16 14 0 21 17 28 24 10
4 -10 2 -13 -6 -8 -7 4 -8 3 -4 -4 12 -20 29 -13 23 8 -5 18 0 20 46 21 29 1
56 1 60 0 5 -1 5 4 0 11 -13 22 -14 99 0 91 9 -5 9 -3 0 8 -6 8 -13 43 -14 77
-1 36 -7 62 -13 62 -7 0 -7 3 -1 8 6 4 10 33 10 64 1 46 -2 55 -12 46 -9 -7
-10 -14 -3 -23 8 -9 7 -14 -3 -18 -12 -4 -14 50 -16 340 -1 275 1 343 11 337
10 -6 10 -5 1 7 -13 16 -13 89 0 89 4 0 7 5 7 11 0 5 -3 8 -8 5 -4 -2 -8 11
-8 30 0 23 3 31 10 24 23 -23 23 -24 28 233 1 42 5 77 10 77 4 0 5 -13 3 -28
-2 -16 1 -35 6 -43 5 -8 9 -9 10 -4 0 6 2 18 4 28 2 9 -1 15 -6 11 -5 -3 -9 0
-9 5 0 6 4 11 8 11 4 0 8 9 9 20 1 13 -2 18 -10 13 -9 -5 -9 -3 -1 8 6 8 12
34 13 59 1 25 6 49 12 54 5 6 9 15 9 20 0 6 -4 5 -9 -3 -6 -9 -8 -4 -8 17 1
24 5 28 15 20 7 -6 15 -8 19 -4 4 3 -2 12 -12 20 -14 10 -15 15 -5 21 9 5 11
4 6 -3 -4 -7 -2 -12 3 -12 10 0 14 40 13 113 0 19 4 27 16 27 15 0 15 -2 2
-10 -13 -9 -13 -10 0 -10 12 0 12 -2 2 -9 -11 -7 -11 -9 0 -13 10 -4 13 9 14
55 1 39 6 63 14 65 10 4 10 6 0 12 -8 5 -9 16 -5 31 7 21 8 22 21 5 12 -17 13
-17 11 3 -1 11 -6 21 -12 21 -5 0 -4 4 3 9 8 5 14 28 14 57 1 27 3 41 5 32 5
-22 17 -23 33 -3 9 10 9 15 1 15 -6 0 -11 -5 -11 -12 0 -6 -2 -9 -5 -7 -2 3
-2 15 2 28 4 17 8 19 14 9 8 -12 15 53 10 91 -2 7 2 11 6 8 19 -12 32 10 34
57 2 32 9 52 20 60 10 6 19 27 22 46 3 26 8 34 20 32 13 -2 17 6 18 35 1 21 1
42 0 46 -1 5 8 11 19 14 15 4 20 14 20 40 0 26 5 36 20 40 18 5 23 17 23 65 0
10 7 16 18 15 19 -1 27 -17 9 -17 -5 0 -10 -4 -10 -8 0 -5 6 -9 13 -9 9 0 14
16 16 46 1 30 9 54 22 67 11 12 22 30 23 40 2 12 10 18 21 16 12 -3 16 1 12
12 -3 8 -2 18 4 21 5 4 7 11 4 16 -4 5 -1 9 4 9 6 0 11 -5 11 -12 0 -6 3 -8 7
-4 5 4 -1 15 -12 23 -20 15 -20 15 3 10 19 -4 22 -1 22 24 0 23 4 29 18 27 17
-3 18 1 21 60 1 15 7 22 20 22 13 0 21 8 23 23 2 16 9 21 26 19 18 -3 22 1 22
24 0 15 3 24 7 21 9 -10 32 25 33 51 0 15 6 22 20 22 15 0 20 7 20 25 0 22 9
30 33 26 4 0 7 7 7 18 0 10 9 21 21 24 13 3 19 12 17 24 -2 12 2 17 12 15 12
-3 13 -1 3 9 -19 19 -16 29 7 29 13 0 20 7 20 18 0 11 8 18 22 19 21 2 40 21
32 34 -2 4 5 9 16 12 12 3 20 14 20 26 0 14 6 21 20 21 11 0 19 3 19 8 -4 22
3 32 21 32 13 0 20 7 20 20 0 13 7 20 19 20 14 0 19 6 16 20 -3 16 2 20 21 20
14 0 24 5 23 13 -3 28 2 34 26 29 20 -3 25 0 25 17 0 14 6 21 19 21 14 0 21 8
23 28 2 19 8 26 21 24 12 -2 17 4 17 23 0 23 2 24 20 15 18 -9 20 -8 20 15 0
18 5 25 20 25 11 0 20 6 20 14 0 14 28 28 63 32 27 3 29 3 22 14 -5 8 -11 8
-20 0 -8 -7 -15 -7 -19 -1 -8 12 4 19 27 16 9 -2 17 0 17 5 0 4 9 6 20 3 15
-4 20 0 20 15 0 14 8 22 23 24 16 2 21 9 19 26 -3 17 2 22 20 22 13 0 29 5 36
12 9 9 12 9 12 -2 0 -7 3 -11 6 -7 12 12 -7 28 -20 18 -9 -8 -13 -7 -13 2 0
14 12 17 54 17 16 0 21 5 17 15 -4 8 -11 12 -18 8 -6 -3 -7 -2 -3 3 9 10 14
11 52 13 18 1 25 7 25 21 0 11 7 20 16 20 9 0 12 -5 8 -12 -5 -9 -3 -9 9 1 9
7 14 18 10 25 -4 6 1 5 10 -3 10 -8 20 -11 24 -7 4 3 -2 13 -13 20 -14 11 -15
14 -4 14 43 -3 60 3 60 20 0 18 4 20 55 23 19 1 25 7 25 25 0 21 5 24 38 25
20 1 40 1 43 1 4 -1 6 6 5 16 0 9 8 18 19 20 11 2 27 6 35 9 8 3 19 5 23 4 5
-1 6 3 2 9 -5 8 -11 8 -19 1 -9 -8 -13 -7 -13 2 0 7 15 13 35 14 33 2 56 19
46 34 -2 4 2 7 9 6 59 -2 79 4 75 21 -5 16 2 19 45 21 56 2 87 14 68 25 -6 4
-11 2 -11 -3 0 -6 -4 -11 -8 -11 -5 0 -9 6 -9 14 0 7 7 13 16 13 51 0 72 4 67
12 -15 23 7 36 61 39 54 3 84 19 63 32 -5 3 18 7 52 8 71 3 79 7 71 30 -6 15
-5 16 12 2 11 -9 16 -10 11 -2 -5 9 7 12 48 12 49 0 56 2 56 20 0 18 7 20 60
20 52 0 60 2 58 18 -3 19 -1 19 90 21 39 1 61 5 57 11 -3 6 -1 10 4 10 6 0 11
-4 11 -9 0 -6 9 -9 19 -8 11 0 17 5 15 9 -3 5 -10 5 -16 2 -6 -4 -8 -2 -4 4 3
5 0 12 -6 15 -7 2 1 4 17 4 131 -1 167 3 161 19 -3 8 -2 13 3 9 12 -7 42 5 36
15 -2 4 21 7 53 8 120 1 193 5 187 10 -2 3 0 11 6 19 13 15 23 18 14 3z m1200
-48 c-3 -3 -11 0 -18 7 -9 10 -8 11 6 5 10 -3 15 -9 12 -12z m352 -87 c0 -8
-4 -12 -9 -9 -5 3 -6 10 -3 15 9 13 12 11 12 -6z m-2335 -34 c8 11 9 11 6 1
-4 -16 -22 -18 -25 -3 -1 8 0 7 4 0 4 -8 8 -7 15 2z m3913 -29 c-3 -3 -11 0
-18 7 -9 10 -8 11 6 5 10 -3 15 -9 12 -12z m-4035 -24 c0 -6 -6 -5 -15 2 -8 7
-15 14 -15 16 0 2 7 1 15 -2 8 -4 15 -11 15 -16z m4376 -225 c-7 -7 -26 7 -26
19 0 6 6 6 15 -2 9 -7 13 -15 11 -17z m-6046 7 c0 -5 -2 -10 -4 -10 -3 0 -8 5
-11 10 -3 6 -1 10 4 10 6 0 11 -4 11 -10z m1033 -65 c-3 -9 -8 -14 -10 -11 -3
3 -2 9 2 15 9 16 15 13 8 -4z m3984 -2 c0 -9 -4 -10 -14 -2 -7 6 -13 12 -13
14 0 1 6 2 13 2 8 0 14 -6 14 -14z m1153 -63 c0 -5 -2 -10 -4 -10 -3 0 -8 5
-11 10 -3 6 -1 10 4 10 6 0 11 -4 11 -10z m-963 -72 c-3 -8 -6 -5 -6 6 -1 11
2 17 5 13 3 -3 4 -12 1 -19z m3200 -43 c0 -8 -4 -12 -9 -9 -5 3 -6 10 -3 15 9
13 12 11 12 -6z m633 0 c7 -9 8 -15 2 -15 -5 0 -12 7 -16 15 -3 8 -4 15 -2 15
2 0 9 -7 16 -15z m493 -80 c-3 -9 -8 -14 -10 -11 -3 3 -2 9 2 15 9 16 15 13 8
-4z m-1853 -44 c0 -6 -5 -13 -12 -17 -6 -4 -8 -3 -4 4 3 5 0 13 -6 15 -8 3 -6
6 5 6 9 1 17 -3 17 -8z m2030 -2 c0 -14 -29 -17 -34 -4 -3 9 2 13 15 12 10 -1
19 -4 19 -8z m-9162 -44 c-3 -3 -9 2 -12 12 -6 14 -5 15 5 6 7 -7 10 -15 7
-18z m5955 -38 c3 -8 -1 -14 -8 -14 -7 0 -11 6 -8 14 3 7 6 13 8 13 2 0 5 -6
8 -13z m633 -119 c4 -7 3 -8 -4 -4 -7 4 -12 2 -12 -5 0 -7 -3 -10 -6 -6 -6 5
3 27 11 27 2 0 7 -5 11 -12z m3117 -3 c-3 -9 -8 -14 -10 -11 -3 3 -2 9 2 15 9
16 15 13 8 -4z m-9998 -75 c-3 -5 -12 -10 -18 -10 -7 0 -6 4 3 10 19 12 23 12
15 0z m6715 -15 c0 -12 -19 -12 -23 0 -4 9 -1 12 9 8 7 -3 14 -7 14 -8z m3445
-5 c3 -6 -1 -7 -9 -4 -18 7 -21 14 -7 14 6 0 13 -4 16 -10z m-3717 -34 c-7 -8
-15 -12 -17 -11 -5 6 10 25 20 25 5 0 4 -6 -3 -14z m-7348 0 c0 -2 -7 -7 -16
-10 -8 -3 -12 -2 -9 4 6 10 25 14 25 6z m7386 -53 c-10 -10 -19 5 -10 18 6 11
8 11 12 0 2 -7 1 -15 -2 -18z m-7426 7 c0 -5 -7 -10 -16 -10 -8 0 -12 5 -9 10
3 6 10 10 16 10 5 0 9 -4 9 -10z m9018 -155 c-2 -5 -11 -11 -21 -12 -15 -3
-16 -1 -5 12 14 15 32 16 26 0z m808 -7 c3 -4 -1 -5 -10 -4 -8 1 -18 5 -22 8
-3 4 1 5 10 4 8 -1 18 -5 22 -8z m214 -32 c0 -3 -4 -8 -10 -11 -5 -3 -10 -1
-10 4 0 6 5 11 10 11 6 0 10 -2 10 -4z m-10219 -53 c13 -16 12 -17 -3 -4 -10
7 -18 15 -18 17 0 8 8 3 21 -13z m789 -34 c0 -5 -7 -9 -15 -9 -15 0 -20 12 -9
23 8 8 24 -1 24 -14z m7830 6 c-7 -8 -17 -15 -23 -15 -6 0 -2 7 9 15 25 19 30
19 14 0z m-7870 -39 c0 -2 -7 -7 -16 -10 -8 -3 -12 -2 -9 4 6 10 25 14 25 6z
m6290 -6 c0 -5 -5 -10 -11 -10 -5 0 -7 5 -4 10 3 6 8 10 11 10 2 0 4 -4 4 -10z
m3600 4 c0 -8 -19 -13 -24 -6 -3 5 1 9 9 9 8 0 15 -2 15 -3z m-9975 -124 c-3
-5 -10 -10 -16 -10 -5 0 -9 5 -9 10 0 6 7 10 16 10 8 0 12 -4 9 -10z m-36 -53
c0 -9 -2 -8 -6 1 -2 6 -10 9 -15 6 -7 -4 -8 -2 -4 5 9 13 26 5 25 -12z m10504
-70 c7 3 8 2 4 -2 -14 -16 -36 -14 -29 3 4 10 7 12 10 4 2 -7 9 -9 15 -5z
m-3256 -94 c2 -6 -4 -10 -13 -9 -10 2 -20 8 -22 15 -3 8 3 12 14 9 9 -1 19 -8
21 -15z m3551 -115 c-2 -5 -8 -9 -13 -9 -5 0 -11 4 -13 9 -1 5 4 9 13 9 9 0
14 -4 13 -9z m-3933 -178 c3 -6 -1 -7 -9 -4 -18 7 -21 14 -7 14 6 0 13 -4 16
-10z m4305 -166 c0 -8 -19 -13 -24 -6 -3 5 1 9 9 9 8 0 15 -2 15 -3z m165
-205 c-4 -5 -12 -9 -18 -8 -9 0 -8 2 1 6 6 2 9 10 6 15 -4 7 -2 8 5 4 6 -4 9
-12 6 -17z m820 -99 c3 -6 -1 -7 -9 -4 -18 7 -21 14 -7 14 6 0 13 -4 16 -10z
m-650 -140 c3 -5 1 -10 -4 -10 -6 0 -11 5 -11 10 0 6 2 10 4 10 3 0 8 -4 11
-10z m745 -7 c0 -1 -8 -7 -18 -12 -13 -7 -19 -6 -19 2 0 7 9 13 19 13 10 0 18
-1 18 -3z m-13490 -94 c0 -11 -29 -19 -34 -10 -3 5 -3 10 -1 13 8 7 35 5 35
-3z m13530 -5 c0 -8 -19 -13 -24 -6 -3 5 1 9 9 9 8 0 15 -2 15 -3z m112 -321
c-6 -2 -10 -9 -7 -13 3 -5 1 -11 -4 -14 -7 -5 -8 11 -2 32 1 1 7 2 14 1 9 0 9
-2 -1 -6z m-13744 -87 c-7 -8 -15 -12 -17 -11 -5 6 10 25 20 25 5 0 4 -6 -3
-14z m13788 -43 c-3 -19 -19 -21 -21 -2 -2 9 3 16 10 16 7 0 12 -6 11 -14z
m-13820 -251 c0 -36 -5 -59 -12 -59 -12 0 -13 45 -1 65 5 7 3 12 -4 12 -8 0
-9 3 0 13 6 8 8 17 4 20 -3 4 -2 7 4 7 6 0 10 -25 9 -58z m661 16 c0 -13 -1
-17 -4 -10 -3 6 -10 9 -16 5 -7 -4 -6 1 2 10 17 21 17 21 18 -5z m-662 -97 c3
-5 0 -13 -6 -17 -7 -4 -9 -3 -5 4 3 5 0 13 -6 15 -9 4 -10 6 -1 6 6 1 14 -3
18 -8z m13255 -69 c0 -13 -12 -22 -22 -16 -10 6 -1 24 13 24 5 0 9 -4 9 -8z
m767 -614 c-3 -7 -5 -2 -5 12 0 14 2 19 5 13 2 -7 2 -19 0 -25z m-14277 -68
c0 -5 -4 -10 -10 -10 -5 0 -10 5 -10 10 0 6 5 10 10 10 6 0 10 -4 10 -10z
m911 -43 c-6 -8 -7 -18 -3 -22 4 -5 1 -5 -6 -1 -10 6 -10 11 -1 22 6 8 14 14
16 14 3 0 0 -6 -6 -13z m13716 -45 c0 -7 -7 -12 -15 -10 -22 4 -25 24 -4 24
10 0 19 -6 19 -14z m-15372 -462 c-3 -5 -12 -10 -18 -10 -7 0 -6 4 3 10 19 12
23 12 15 0z m979 -65 c-4 -8 -8 -15 -10 -15 -2 0 -4 7 -4 15 0 8 4 15 10 15 5
0 7 -7 4 -15z m15091 -54 c3 -5 0 -13 -6 -17 -7 -4 -9 -3 -5 4 3 5 0 13 -6 15
-9 4 -10 6 -1 6 6 1 14 -3 18 -8z m334 -414 c8 -10 7 -14 -2 -14 -8 0 -14 6
-14 14 0 7 1 13 2 13 2 0 8 -6 14 -13z m-16201 -212 c-3 -3 -9 2 -12 12 -6 14
-5 15 5 6 7 -7 10 -15 7 -18z m-781 0 c0 -6 -6 -12 -12 -12 -6 0 -12 6 -12 12
0 6 6 12 12 12 6 0 12 -6 12 -12z m17108 -5 c3 -6 -1 -7 -9 -4 -18 7 -21 14
-7 14 6 0 13 -4 16 -10z m-16409 -105 c-3 -23 -12 -26 -13 -5 -1 11 2 20 7 20
4 0 7 -7 6 -15z m16484 -55 c0 -5 -5 -10 -11 -10 -5 0 -7 5 -4 10 3 6 8 10 11
10 2 0 4 -4 4 -10z m-690 -70 c-12 -8 -12 -10 -1 -10 8 0 12 -3 8 -6 -9 -9
-28 6 -22 17 4 5 12 9 18 9 7 0 6 -4 -3 -10z m-16636 -16 c3 -8 2 -12 -4 -9
-6 3 -10 10 -10 16 0 14 7 11 14 -7z m16887 -498 c-8 -10 -9 -16 -1 -21 15 -9
12 -22 -5 -22 -8 0 -13 7 -12 16 3 19 16 41 24 41 3 0 0 -6 -6 -14z m-17090
-73 c-11 -5 -11 -7 0 -15 12 -8 12 -9 0 -6 -22 6 -25 28 -4 27 12 0 14 -2 4
-6z m17830 -186 c-13 -13 -26 -3 -16 12 3 6 11 8 17 5 6 -4 6 -10 -1 -17z m-1
-37 c0 -5 -2 -10 -4 -10 -3 0 -8 5 -11 10 -3 6 -1 10 4 10 6 0 11 -4 11 -10z
m-17914 -318 c-17 -16 -18 -16 -5 5 7 12 15 20 18 17 3 -2 -3 -12 -13 -22z
m11 -578 c-3 -3 -12 -4 -19 -1 -8 3 -5 6 6 6 11 1 17 -2 13 -5z m17943 -3 c0
-6 -4 -12 -8 -15 -5 -3 -9 1 -9 9 0 8 4 15 9 15 4 0 8 -4 8 -9z m-17946 -40
c3 -5 0 -11 -7 -14 -8 -3 -14 1 -14 9 0 16 13 19 21 5z m17280 -51 c-6 -6 -10
-3 -10 10 0 13 4 16 10 10 7 -7 7 -13 0 -20z m-17274 16 c0 -11 -19 -15 -25
-6 -3 5 1 10 9 10 9 0 16 -2 16 -4z m697 -184 c0 -10 -7 -19 -13 -19 -15 0
-14 18 1 29 14 10 14 10 12 -10z m-2 -41 c3 -5 0 -13 -6 -17 -7 -4 -9 -3 -5 4
3 5 0 13 -6 15 -9 4 -10 6 -1 6 6 1 14 -3 18 -8z m17210 -1 c3 -5 2 -10 -4
-10 -5 0 -13 5 -16 10 -3 6 -2 10 4 10 5 0 13 -4 16 -10z m-17172 -116 c7 -8
-3 -34 -13 -34 -5 0 -8 9 -7 20 1 20 8 25 20 14z m31 -160 c3 -8 2 -12 -4 -9
-6 3 -10 10 -10 16 0 14 7 11 14 -7z m133 -309 c0 -8 -4 -12 -9 -9 -5 3 -6 10
-3 15 9 13 12 11 12 -6z m16800 -121 c0 -7 -6 -10 -14 -7 -7 3 -13 8 -13 12 0
4 6 8 13 8 8 0 14 -6 14 -13z m-60 -86 c-3 -8 -6 -5 -6 6 -1 11 2 17 5 13 3
-3 4 -12 1 -19z m-22 -68 c3 -5 1 -10 -4 -10 -6 0 -11 5 -11 10 0 6 2 10 4 10
3 0 8 -4 11 -10z m-17235 -94 c0 -3 -4 -8 -10 -11 -5 -3 -10 -1 -10 4 0 6 5
11 10 11 6 0 10 -2 10 -4z m267 -468 c-3 -8 -6 -5 -6 6 -1 11 2 17 5 13 3 -3
4 -12 1 -19z m1009 -80 c4 -7 3 -8 -4 -4 -7 4 -12 2 -12 -5 0 -7 -3 -10 -6 -6
-6 5 3 27 11 27 2 0 7 -5 11 -12z m14508 -89 c-3 -5 -10 -7 -15 -3 -5 3 -7 10
-3 15 3 5 10 7 15 3 5 -3 7 -10 3 -15z m952 -26 c-1 -8 -5 -13 -9 -13 -4 0
-11 0 -15 0 -5 0 -9 6 -9 14 0 8 8 14 17 13 10 0 17 -7 16 -14z m-16241 -42
c3 -5 2 -12 -3 -15 -5 -3 -9 1 -9 9 0 17 3 19 12 6z m16145 -41 c0 -5 -5 -10
-11 -10 -5 0 -7 5 -4 10 3 6 8 10 11 10 2 0 4 -4 4 -10z m-16067 -43 c3 -8 -1
-14 -8 -14 -7 0 -11 6 -8 14 3 7 6 13 8 13 2 0 5 -6 8 -13z m117 -127 c-9 -6
-9 -9 -1 -13 8 -4 8 -5 0 -3 -7 1 -13 9 -15 18 -1 11 3 15 13 11 11 -4 12 -8
3 -13z m15590 -173 c0 -7 -4 -6 -10 3 -8 12 -10 12 -10 1 0 -8 -3 -12 -6 -8
-9 9 6 28 17 22 5 -4 9 -12 9 -18z m-13687 -7 c4 0 6 4 3 9 -4 5 2 8 11 7 9
-2 19 -9 21 -17 3 -11 1 -11 -7 1 -7 9 -11 10 -11 3 0 -7 -14 -11 -32 -11 -18
1 -27 3 -20 5 6 3 9 10 6 16 -5 8 -2 8 7 0 7 -7 17 -13 22 -13z m12024 3 c0
-9 -4 -10 -11 -3 -12 12 -29 14 -22 2 2 -4 -9 -8 -25 -8 -26 -2 -36 5 -24 17
2 3 22 5 43 5 26 0 39 -4 39 -13z m1276 -236 c3 -8 -1 -14 -8 -14 -7 0 -11 6
-8 14 3 7 6 13 8 13 2 0 5 -6 8 -13z m-73 -31 c0 -2 -7 -7 -16 -10 -8 -3 -12
-2 -9 4 6 10 25 14 25 6z m-14385 -46 c3 -5 1 -10 -4 -10 -6 0 -11 5 -11 10 0
6 2 10 4 10 3 0 8 -4 11 -10z m14203 -65 c-3 -3 -9 2 -12 12 -6 14 -5 15 5 6
7 -7 10 -15 7 -18z m-14024 -36 c-3 -5 -10 -7 -15 -3 -5 3 -7 10 -3 15 3 5 10
7 15 3 5 -3 7 -10 3 -15z m131 -39 c3 -6 -1 -7 -9 -4 -18 7 -21 14 -7 14 6 0
13 -4 16 -10z m196 -83 c-13 -13 -26 -3 -16 12 3 6 11 8 17 5 6 -4 6 -10 -1
-17z m13119 -32 c-5 -7 -9 -14 -7 -16 1 -2 0 -3 -2 -1 -11 7 -7 29 5 29 9 0
11 -4 4 -12z m-12786 -51 c3 -8 2 -12 -4 -9 -6 3 -10 10 -10 16 0 14 7 11 14
-7z m70 8 c3 -5 -1 -9 -9 -9 -8 0 -12 4 -9 9 3 4 7 8 9 8 2 0 6 -4 9 -8z m273
-54 c-3 -8 -6 -5 -6 6 -1 11 2 17 5 13 3 -3 4 -12 1 -19z m34 -1 c-10 -9 -11
-8 -5 6 3 10 9 15 12 12 3 -3 0 -11 -7 -18z m49 13 c0 -5 -5 -10 -11 -10 -5 0
-7 5 -4 10 3 6 8 10 11 10 2 0 4 -4 4 -10z m11860 5 c0 -2 -10 -9 -22 -15 -22
-11 -22 -10 -4 4 21 17 26 19 26 11z m44 -11 c3 -8 2 -12 -4 -9 -6 3 -10 10
-10 16 0 14 7 11 14 -7z"/>
<path d="M8255 15979 c-4 -6 -14 -8 -22 -5 -8 3 -11 1 -8 -4 9 -15 32 -12 39
5 6 17 0 20 -9 4z"/>
<path d="M8281 15977 c-8 -10 -7 -14 2 -14 8 0 14 6 14 14 0 7 -1 13 -2 13 -2
0 -8 -6 -14 -13z"/>
<path d="M8320 15970 c8 -5 20 -10 25 -10 6 0 3 5 -5 10 -8 5 -19 10 -25 10
-5 0 -3 -5 5 -10z"/>
<path d="M7983 15934 c-18 -8 -33 -15 -33 -17 0 -1 14 -3 31 -3 22 -1 27 1 18
7 -11 7 -10 9 4 9 9 0 17 5 17 10 0 6 -1 10 -2 9 -2 0 -18 -7 -35 -15z"/>
<path d="M9330 15939 c0 -5 5 -7 10 -4 6 3 10 8 10 11 0 2 -4 4 -10 4 -5 0
-10 -5 -10 -11z"/>
<path d="M9550 15886 c0 -2 7 -6 15 -10 8 -3 15 -1 15 4 0 6 -7 10 -15 10 -8
0 -15 -2 -15 -4z"/>
<path d="M7603 15845 c6 -7 15 -11 20 -8 13 8 7 19 -13 20 -16 1 -17 -1 -7
-12z"/>
<path d="M9725 15849 c-4 -5 -4 -13 -1 -16 3 -4 6 0 6 8 0 11 2 11 10 -1 6 -9
10 -10 10 -3 0 17 -17 25 -25 12z"/>
<path d="M7490 15811 c0 -6 4 -13 10 -16 6 -3 7 1 4 9 -7 18 -14 21 -14 7z"/>
<path d="M9840 15806 c0 -2 7 -7 16 -10 8 -3 12 -2 9 4 -6 10 -25 14 -25 6z"/>
<path d="M9980 15771 c0 -6 4 -13 10 -16 6 -3 7 1 4 9 -7 18 -14 21 -14 7z"/>
<path d="M7236 15718 c3 -5 10 -6 15 -3 13 9 11 12 -6 12 -8 0 -12 -4 -9 -9z"/>
<path d="M7102 15678 c6 -18 28 -21 28 -4 0 9 -7 16 -16 16 -9 0 -14 -5 -12
-12z"/>
<path d="M6943 15595 c0 -7 6 -11 14 -8 7 3 13 6 13 8 0 2 -6 5 -13 8 -8 3
-14 -1 -14 -8z"/>
<path d="M6850 15548 c0 -4 4 -8 9 -8 6 0 12 4 15 8 3 5 -1 9 -9 9 -8 0 -15
-4 -15 -9z"/>
<path d="M10556 15521 c-4 -5 -2 -12 3 -15 5 -4 12 -2 15 3 4 5 2 12 -3 15 -5
4 -12 2 -15 -3z"/>
<path d="M14070 14640 c0 -5 5 -10 10 -10 6 0 10 5 10 10 0 6 -4 10 -10 10 -5
0 -10 -4 -10 -10z"/>
<path d="M14636 14633 c-6 -14 -5 -15 5 -6 7 7 10 15 7 18 -3 3 -9 -2 -12 -12z"/>
<path d="M5615 14560 c3 -5 8 -10 11 -10 2 0 4 5 4 10 0 6 -5 10 -11 10 -5 0
-7 -4 -4 -10z"/>
<path d="M11735 14559 c-4 -6 -5 -12 -2 -15 2 -3 7 2 10 11 7 17 1 20 -8 4z"/>
<path d="M13563 14555 c0 -7 6 -11 14 -8 7 3 13 6 13 8 0 2 -6 5 -13 8 -8 3
-14 -1 -14 -8z"/>
<path d="M15098 14563 c6 -2 9 -10 6 -15 -4 -7 -2 -8 5 -4 13 9 5 26 -12 25
-9 0 -8 -2 1 -6z"/>
<path d="M15220 14520 c0 -5 5 -10 11 -10 5 0 7 5 4 10 -3 6 -8 10 -11 10 -2
0 -4 -4 -4 -10z"/>
<path d="M13190 14440 c0 -5 5 -10 10 -10 6 0 10 5 10 10 0 6 -4 10 -10 10 -5
0 -10 -4 -10 -10z"/>
<path d="M15735 14300 c3 -5 8 -10 11 -10 2 0 4 5 4 10 0 6 -5 10 -11 10 -5 0
-7 -4 -4 -10z"/>
<path d="M12851 14273 c-1 -17 16 -25 25 -12 4 7 3 9 -4 5 -5 -3 -13 0 -15 6
-4 9 -6 10 -6 1z"/>
<path d="M5350 14229 c0 -5 5 -7 10 -4 6 3 10 8 10 11 0 2 -4 4 -10 4 -5 0
-10 -5 -10 -11z"/>
<path d="M11976 14223 c-6 -14 -5 -15 5 -6 7 7 10 15 7 18 -3 3 -9 -2 -12 -12z"/>
<path d="M12055 14090 c3 -5 8 -10 11 -10 2 0 4 5 4 10 0 6 -5 10 -11 10 -5 0
-7 -4 -4 -10z"/>
<path d="M5200 13975 c-8 -9 -8 -15 -2 -15 12 0 26 19 19 26 -2 2 -10 -2 -17
-11z"/>
<path d="M5105 13809 c-11 -16 -1 -19 13 -3 7 8 8 14 3 14 -5 0 -13 -5 -16
-11z"/>
<path d="M5067 13727 c-3 -8 0 -14 7 -14 7 0 13 6 13 14 0 7 -4 13 -8 13 -4 0
-9 -6 -12 -13z"/>
<path d="M5023 13636 c0 -7 6 -13 14 -13 7 0 13 4 13 8 0 4 -6 9 -13 12 -8 3
-14 0 -14 -7z"/>
<path d="M4987 13564 c-8 -8 1 -24 12 -24 4 0 8 7 8 15 0 16 -9 20 -20 9z"/>
<path d="M4946 13434 c-4 -9 -4 -19 -1 -22 3 -3 5 0 5 7 0 7 4 10 8 7 5 -3 9
1 9 9 0 20 -13 19 -21 -1z"/>
<path d="M16765 13380 c-3 -6 1 -7 9 -4 18 7 21 14 7 14 -6 0 -13 -4 -16 -10z"/>
<path d="M4791 12884 c0 -11 3 -14 6 -6 3 7 2 16 -1 19 -3 4 -6 -2 -5 -13z"/>
<path d="M17156 12692 c-2 -4 -1 -14 4 -22 7 -11 9 -9 7 8 -1 24 -3 26 -11 14z"/>
<path d="M4691 12404 c-1 -6 5 -17 12 -23 10 -8 14 -7 14 4 0 8 -4 12 -8 9 -4
-2 -10 2 -12 8 -4 8 -6 9 -6 2z"/>
<path d="M4705 12339 c-4 -6 -5 -12 -2 -15 2 -3 7 2 10 11 7 17 1 20 -8 4z"/>
<path d="M4695 12299 c-4 -6 -5 -12 -2 -15 2 -3 7 2 10 11 7 17 1 20 -8 4z"/>
<path d="M17266 12224 c-5 -14 -4 -15 9 -4 17 14 19 20 6 20 -5 0 -12 -7 -15
-16z"/>
<path d="M17311 11927 c-13 -21 -12 -21 5 -5 10 10 16 20 13 22 -3 3 -11 -5
-18 -17z"/>
<path d="M6548 11825 c-2 -2 -15 -6 -28 -9 -40 -7 -93 -33 -117 -55 -12 -12
-26 -21 -30 -21 -8 0 -63 -78 -81 -115 -5 -11 -13 -40 -17 -64 -12 -72 -9
-3582 3 -3590 14 -8 142 -181 142 -191 0 -5 4 -10 8 -12 11 -4 251 -324 258
-343 4 -8 10 -12 15 -9 5 3 9 0 9 -6 0 -22 51 -79 66 -73 8 3 14 10 14 17 0 6
18 31 40 56 22 24 43 52 46 62 3 10 10 16 15 13 5 -4 9 -1 9 5 0 11 27 50 105
149 17 21 37 49 45 61 8 13 25 34 38 48 12 14 22 28 22 32 0 3 8 15 18 26 10
10 28 35 42 54 13 19 27 37 30 40 3 3 20 25 38 49 l32 45 0 1768 c0 1619 -1
1773 -17 1828 -9 33 -20 60 -25 60 -5 0 -6 5 -3 10 3 6 2 10 -3 10 -5 0 -15
11 -22 25 -20 38 -110 101 -168 118 -38 12 -102 15 -265 15 -119 0 -217 -2
-219 -3z m448 -175 c34 -13 81 -62 95 -98 6 -16 11 -134 11 -292 l1 -265 -324
-1 c-178 0 -329 1 -335 4 -8 2 -12 80 -12 270 l1 267 31 48 c47 71 66 76 303
76 117 1 213 -3 229 -9z m105 -873 c4 -267 0 -2609 -5 -2614 -3 -3 -153 -6
-333 -6 l-328 0 -1 1335 -1 1335 333 1 334 1 1 -52z m-68 -2787 l28 0 -23 -31
c-13 -17 -30 -42 -39 -55 -9 -13 -18 -22 -21 -19 -3 3 -9 -6 -12 -20 -4 -14
-11 -23 -16 -20 -5 3 -11 -4 -15 -15 -3 -11 -12 -26 -18 -32 -7 -7 -37 -44
-67 -83 -30 -38 -57 -72 -61 -75 -3 -3 -8 -11 -10 -18 -3 -10 -9 -9 -22 5 -39
40 -87 98 -87 106 0 4 -9 18 -20 30 -12 12 -44 54 -73 92 -29 39 -58 76 -65
83 -27 29 -33 50 -15 54 13 2 348 1 536 -2z"/>
<path d="M8508 11815 c-21 -7 -38 -11 -38 -8 0 9 -97 -62 -124 -91 -16 -17
-41 -56 -55 -86 l-26 -55 0 -2005 0 -2005 27 -50 c32 -61 101 -135 131 -141
11 -2 25 -10 29 -18 5 -8 17 -13 28 -11 11 2 20 -1 20 -7 0 -5 7 -8 15 -5 8 4
16 3 19 -1 5 -8 2610 -7 2641 1 57 15 128 58 164 101 9 10 22 24 29 31 7 8 22
35 35 62 l22 48 3 874 3 874 32 36 c18 20 35 36 38 36 2 0 27 26 54 57 28 31
53 57 57 57 4 1 27 22 50 48 24 25 268 272 543 547 484 485 553 558 560 594 2
9 4 17 5 17 7 0 14 63 14 125 0 112 -26 158 -173 305 -65 66 -130 129 -143
140 -25 22 -88 58 -88 51 0 -3 -15 1 -32 8 -47 18 -150 12 -211 -13 -16 -6
-33 -11 -38 -11 -5 0 -9 -4 -9 -10 0 -5 -5 -10 -11 -10 -5 0 -153 -142 -326
-315 -174 -173 -323 -315 -330 -315 -7 0 -13 7 -13 16 0 8 -4 12 -10 9 -5 -3
-10 -2 -10 3 0 9 -22 37 -75 96 -11 12 -49 57 -85 99 -35 42 -68 77 -72 77 -4
0 -8 6 -8 13 0 7 -10 23 -22 34 -13 11 -32 31 -43 44 -11 13 -58 69 -105 124
-46 55 -89 106 -95 113 -5 7 -17 21 -26 30 -9 9 -49 55 -88 102 -40 47 -88
102 -107 122 -19 21 -34 40 -34 42 0 3 -10 16 -22 28 -23 23 -110 123 -156
179 l-24 28 -941 -1 c-746 0 -950 -2 -979 -13z m1752 -592 c0 -373 2 -445 16
-495 9 -32 21 -58 25 -58 5 0 9 -6 9 -13 0 -13 84 -107 95 -107 3 0 17 -8 32
-17 14 -10 32 -19 40 -20 33 -7 39 -9 50 -16 6 -4 15 -3 18 3 4 7 12 7 18 2 7
-4 164 -8 350 -8 185 1 337 -2 337 -5 0 -7 -712 -721 -794 -797 -25 -23 -44
-42 -42 -42 2 0 -182 -185 -408 -412 -226 -226 -412 -415 -412 -420 -1 -4 -2
-9 -3 -10 -2 -2 -5 -14 -7 -28 -3 -14 -14 -70 -25 -125 -12 -55 -23 -111 -25
-125 -3 -14 -12 -56 -20 -95 -8 -38 -17 -90 -21 -115 -3 -25 -8 -47 -12 -50
-3 -3 -7 -16 -8 -30 -1 -14 -4 -36 -7 -50 -12 -52 -28 -136 -31 -168 -4 -29
-2 -33 13 -27 9 4 31 9 47 11 17 3 41 7 53 10 13 3 43 7 65 11 23 3 44 8 47
12 3 3 14 7 25 8 37 4 158 26 205 38 14 4 32 7 40 7 8 0 22 2 30 5 18 7 36 11
75 17 17 3 74 14 127 24 96 20 98 21 152 75 30 31 57 53 60 50 3 -4 6 -1 6 5
0 6 92 102 205 214 113 112 205 203 205 201 0 -1 11 8 23 20 13 12 24 24 24
27 0 9 214 220 223 220 5 0 10 4 12 10 2 5 45 52 96 104 83 85 92 91 93 67 0
-14 1 -359 1 -767 0 -546 -2 -746 -11 -762 -6 -12 -10 -22 -7 -22 7 0 -53 -65
-62 -66 -4 0 -18 -5 -32 -11 -18 -8 -425 -11 -1309 -11 -1227 1 -1285 2 -1321
19 -39 19 -72 56 -85 97 -3 13 -7 903 -6 1979 l0 1957 28 40 c56 81 -8 76 951
76 l852 0 0 -437z m263 243 c40 -47 82 -95 127 -143 11 -12 20 -24 20 -27 0
-2 13 -17 28 -34 16 -16 39 -44 53 -61 13 -18 38 -46 54 -64 59 -64 85 -97 85
-107 0 -5 4 -10 9 -10 4 0 37 -35 72 -77 35 -43 73 -87 84 -99 40 -42 65 -74
65 -84 0 -6 7 -10 15 -10 8 0 15 -4 15 -9 0 -4 13 -24 30 -42 l29 -34 -312 -3
c-204 -2 -325 1 -350 8 -43 12 -93 57 -108 97 -8 22 -13 393 -10 743 l1 65 26
-30 c14 -16 44 -52 67 -79z m1807 -293 c41 -20 282 -261 274 -274 -3 -5 0 -9
7 -9 6 0 9 -8 6 -20 -3 -11 -2 -20 3 -20 4 0 6 -10 5 -22 -1 -13 -3 -31 -4
-40 0 -9 -8 -23 -16 -32 -9 -8 -15 -18 -14 -22 2 -9 -291 -304 -303 -304 -6 0
-106 95 -222 212 l-212 212 155 154 c85 85 168 160 185 168 42 18 96 17 136
-3z m-272 -759 l111 -111 -39 -41 c-21 -22 -41 -37 -44 -34 -3 3 -6 1 -6 -5 0
-10 -194 -207 -220 -223 -8 -5 -12 -10 -9 -10 4 0 -347 -354 -778 -786 l-784
-786 -53 49 c-29 26 -51 51 -49 56 3 4 0 7 -6 7 -11 0 -271 260 -271 272 0 4
-4 8 -10 8 -5 0 -18 9 -29 21 l-19 21 318 317 c174 175 330 327 345 339 15 12
24 22 19 22 -5 0 4 11 20 25 16 14 33 25 38 25 4 0 7 3 6 8 -2 4 254 264 567
577 l570 571 106 -106 c59 -58 156 -155 217 -216z m-2091 -1914 c182 -182 196
-200 161 -201 -13 0 -30 -2 -38 -4 -28 -6 -220 -45 -253 -50 -17 -4 -52 -11
-77 -16 -25 -6 -62 -13 -83 -16 -37 -5 -38 -4 -33 24 2 15 5 28 6 28 1 0 3 11
5 25 4 29 11 63 20 91 7 21 15 67 20 109 1 14 3 25 4 25 3 0 6 16 15 60 3 17
11 56 18 87 l12 58 29 -28 c16 -15 103 -101 194 -192z"/>
<path d="M13499 11812 c-30 -10 -67 -27 -83 -39 -15 -12 -30 -23 -34 -25 -4
-2 -22 -22 -40 -45 -34 -44 -58 -92 -67 -139 -3 -16 -6 -916 -6 -2000 0 -1723
1 -1976 14 -2007 9 -19 13 -38 9 -41 -3 -3 0 -6 6 -6 7 0 12 -7 12 -15 0 -21
105 -123 135 -131 14 -3 25 -10 25 -15 0 -5 3 -8 8 -8 4 1 9 0 12 -1 3 -1 14
-4 25 -7 11 -3 611 -6 1332 -7 l1312 -1 64 25 c70 29 116 66 156 125 59 87 56
-5 56 1662 l0 1533 -25 24 c-32 32 -105 115 -180 209 -8 10 -26 31 -40 46 -14
15 -41 46 -60 69 -19 23 -52 61 -73 85 -21 23 -64 73 -95 111 -32 39 -66 79
-77 91 -11 12 -40 45 -65 75 -25 29 -55 63 -68 76 -13 13 -21 24 -18 24 2 0
-8 12 -22 28 -15 15 -45 49 -67 76 -22 26 -49 58 -60 70 -11 12 -42 49 -70 81
-27 32 -57 66 -67 76 -15 16 -76 17 -955 17 -842 0 -944 -2 -994 -16z m1772
-584 c1 -238 1 -437 0 -442 -4 -19 33 -113 57 -146 39 -53 106 -112 116 -103
3 4 6 1 6 -6 0 -7 5 -9 10 -6 6 3 10 2 10 -3 0 -5 6 -9 13 -10 16 -1 52 -10
52 -12 0 -2 164 -3 365 -4 l365 -1 0 -1446 0 -1445 -24 -35 c-13 -20 -38 -44
-55 -55 -30 -19 -64 -19 -1319 -21 -725 0 -1302 3 -1320 8 -33 9 -87 56 -87
75 0 7 -6 14 -12 16 -10 4 -13 407 -13 1974 0 1083 2 1976 5 1984 3 8 12 20
20 27 8 7 12 13 8 13 -15 0 42 48 69 58 18 7 326 11 881 11 l852 1 1 -432z
m224 280 c11 -12 46 -54 78 -93 32 -38 64 -74 70 -80 7 -5 26 -29 43 -52 17
-24 34 -40 37 -36 4 3 7 2 7 -3 0 -5 10 -21 23 -36 12 -14 36 -43 53 -65 18
-21 44 -51 58 -66 14 -15 26 -30 26 -32 0 -3 14 -18 30 -33 17 -16 30 -34 30
-41 0 -6 4 -11 8 -11 5 0 30 -27 58 -60 27 -34 60 -74 74 -89 14 -16 40 -46
58 -67 18 -21 42 -49 55 -61 l22 -23 -323 0 c-268 0 -328 3 -360 16 -39 15
-82 54 -82 74 0 6 -4 10 -8 10 -5 0 -10 6 -11 13 -4 25 -7 782 -3 790 2 4 11
-1 20 -12 10 -10 26 -30 37 -43z"/>
<path d="M13770 11078 l0 -83 578 0 c317 -1 580 3 583 7 3 5 5 41 4 81 l-1 72
-582 3 -582 2 0 -82z"/>
<path d="M13769 10650 c0 -5 0 -39 0 -75 0 -36 0 -68 0 -73 1 -4 263 -7 583
-7 l583 0 0 80 0 80 -582 3 c-387 1 -583 -1 -584 -8z"/>
<path d="M13770 10077 l0 -82 1082 0 1082 0 1 83 1 82 -1083 0 -1083 0 0 -83z"/>
<path d="M13770 9575 l0 -84 1082 2 1082 2 1 80 0 80 -1082 3 -1083 2 0 -85z"/>
<path d="M13769 9124 c-1 -19 -1 -43 -1 -54 0 -11 0 -33 1 -49 l1 -29 1079 0
c795 0 1081 3 1084 12 3 9 2 128 -2 147 -1 3 -487 6 -1081 6 l-1080 0 -1 -33z"/>
<path d="M13768 8590 c-2 -37 -2 -75 0 -83 3 -14 121 -15 1085 -14 l1081 2 1
65 c1 36 -1 72 -3 81 -3 16 -90 17 -1082 16 l-1078 0 -4 -67z"/>
<path d="M13769 8124 c-1 -19 -1 -43 -1 -54 0 -11 0 -33 1 -49 l1 -29 1082 1
1083 2 0 81 0 81 -1082 0 -1083 0 -1 -33z"/>
<path d="M4699 11668 c0 -2 -2 -11 -4 -21 -3 -15 -1 -16 11 -6 7 6 11 15 8 20
-5 9 -13 12 -15 7z"/>
<path d="M17313 11373 c-3 -10 -8 -21 -10 -25 -2 -4 2 -5 9 -3 8 3 14 14 14
25 0 25 -5 25 -13 3z"/>
<path d="M4734 11321 c0 -11 4 -17 9 -14 5 3 7 -3 3 -13 -3 -11 -1 -26 4 -34
6 -9 8 -2 6 24 -3 39 -22 71 -22 37z"/>
<path d="M17633 11135 c0 -7 6 -12 14 -11 19 3 21 19 2 21 -9 2 -16 -3 -16
-10z"/>
<path d="M4275 11090 c3 -5 8 -10 11 -10 2 0 4 5 4 10 0 6 -5 10 -11 10 -5 0
-7 -4 -4 -10z"/>
<path d="M3955 10940 c-3 -5 -1 -10 4 -10 6 0 11 5 11 10 0 6 -2 10 -4 10 -3
0 -8 -4 -11 -10z"/>
<path d="M3657 10724 c6 -15 23 -19 23 -5 0 5 -7 11 -14 14 -10 4 -13 1 -9 -9z"/>
<path d="M18390 10680 c8 -5 20 -10 25 -10 6 0 3 5 -5 10 -8 5 -19 10 -25 10
-5 0 -3 -5 5 -10z"/>
<path d="M18653 10435 c0 -8 4 -12 9 -9 5 3 6 10 3 15 -9 13 -12 11 -12 -6z"/>
<path d="M18680 10396 c0 -2 7 -9 15 -16 9 -7 15 -8 15 -2 0 5 -7 12 -15 16
-8 3 -15 4 -15 2z"/>
<path d="M18841 10183 c-1 -17 16 -25 25 -12 4 7 3 9 -4 5 -5 -3 -13 0 -15 6
-4 9 -6 10 -6 1z"/>
<path d="M2913 9725 c0 -8 4 -12 9 -9 5 3 6 10 3 15 -9 13 -12 11 -12 -6z"/>
<path d="M19096 9723 c-6 -14 -5 -15 5 -6 7 7 10 15 7 18 -3 3 -9 -2 -12 -12z"/>
<path d="M2855 9641 c-6 -11 9 -23 19 -14 9 9 7 23 -3 23 -6 0 -12 -4 -16 -9z"/>
<path d="M19130 9639 c0 -6 24 -19 36 -19 2 0 4 6 4 14 0 9 -9 14 -20 13 -11
-1 -20 -4 -20 -8z"/>
<path d="M2775 9389 c-10 -15 3 -25 16 -12 7 7 7 13 1 17 -6 3 -14 1 -17 -5z"/>
<path d="M2740 9221 c-7 -14 -7 -22 2 -27 7 -4 8 -3 4 4 -4 7 -3 12 2 12 5 0
9 7 9 15 0 20 -4 19 -17 -4z"/>
<path d="M19270 9220 c-9 -6 -10 -10 -3 -10 6 0 15 5 18 10 8 12 4 12 -15 0z"/>
<path d="M19310 8975 c-7 -9 -10 -18 -6 -22 3 -3 6 -1 6 6 0 7 4 10 8 7 5 -3
9 1 9 9 0 19 -2 19 -17 0z"/>
<path d="M2690 8460 c0 -5 5 -10 11 -10 5 0 7 5 4 10 -3 6 -8 10 -11 10 -2 0
-4 -4 -4 -10z"/>
<path d="M2700 8400 c0 -5 5 -10 11 -10 5 0 7 5 4 10 -3 6 -8 10 -11 10 -2 0
-4 -4 -4 -10z"/>
<path d="M19314 8401 c4 -5 1 -12 -4 -14 -6 -3 -5 -4 2 -3 15 3 23 26 8 26 -6
0 -9 -4 -6 -9z"/>
<path d="M2690 8366 c0 -20 17 -29 26 -15 5 8 3 9 -6 4 -10 -6 -12 -4 -7 8 3
10 2 17 -3 17 -6 0 -10 -6 -10 -14z"/>
<path d="M2730 8161 c0 -6 4 -13 10 -16 6 -3 7 1 4 9 -7 18 -14 21 -14 7z"/>
<path d="M19260 8123 c0 -15 18 -35 23 -27 3 5 -1 15 -9 22 -8 7 -14 9 -14 5z"/>
<path d="M19188 7803 c7 -3 16 -2 19 1 4 3 -2 6 -13 5 -11 0 -14 -3 -6 -6z"/>
<path d="M19150 7679 c0 -5 5 -7 10 -4 6 3 10 8 10 11 0 2 -4 4 -10 4 -5 0
-10 -5 -10 -11z"/>
<path d="M3145 7151 c-3 -5 0 -13 6 -17 8 -5 9 -3 4 6 -6 10 -4 12 9 7 10 -4
15 -3 11 3 -8 13 -22 13 -30 1z"/>
<path d="M18723 6985 c0 -6 6 -12 12 -12 6 0 12 6 12 12 0 6 -6 12 -12 12 -6
0 -12 -6 -12 -12z"/>
<path d="M3651 6604 c6 -7 16 -11 21 -8 11 7 3 17 -18 20 -12 2 -13 -1 -3 -12z"/>
<path d="M3950 6395 c0 -8 4 -15 8 -15 5 0 9 7 9 15 0 8 -4 15 -9 15 -4 0 -8
-7 -8 -15z"/>
<path d="M4196 6282 c-3 -5 1 -9 9 -9 8 0 12 4 9 9 -3 4 -7 8 -9 8 -2 0 -6 -4
-9 -8z"/>
<path d="M4274 6239 c-4 -7 -3 -9 4 -5 5 3 13 0 15 -6 4 -9 6 -10 6 -1 1 17
-16 25 -25 12z"/>
<path d="M17730 6240 c0 -5 5 -10 11 -10 5 0 7 5 4 10 -3 6 -8 10 -11 10 -2 0
-4 -4 -4 -10z"/>
<path d="M17640 6200 c10 -7 11 -10 3 -10 -20 0 -15 -16 5 -17 10 -1 18 6 19
16 1 11 -6 17 -20 18 -17 2 -19 0 -7 -7z"/>
<path d="M4607 6105 c3 -8 9 -12 14 -9 12 7 11 11 -5 17 -10 4 -13 1 -9 -8z"/>
<path d="M17223 6067 c0 -8 6 -14 14 -14 9 0 10 4 2 14 -6 7 -12 13 -14 13 -1
0 -2 -6 -2 -13z"/>
<path d="M5076 6027 c3 -10 9 -15 12 -12 3 3 0 11 -7 18 -10 9 -11 8 -5 -6z"/>
<path d="M9456 16608 c3 -4 11 -5 19 -1 21 7 19 12 -4 10 -11 0 -18 -5 -15 -9z"/>
<path d="M7650 16560 c0 -5 5 -10 10 -10 6 0 10 5 10 10 0 6 -4 10 -10 10 -5
0 -10 -4 -10 -10z"/>
<path d="M7345 16490 c-4 -6 -12 -7 -18 -4 -7 4 -9 3 -4 -1 4 -5 18 -10 30
-12 16 -2 18 -1 8 6 -11 7 -11 9 0 14 9 3 10 6 2 6 -6 1 -15 -4 -18 -9z"/>
<path d="M10242 16398 c2 -6 10 -13 16 -14 7 -1 8 0 2 3 -5 2 -8 9 -4 14 3 5
0 9 -6 9 -7 0 -10 -5 -8 -12z"/>
<path d="M10565 16279 c-4 -6 -4 -13 -1 -16 3 -4 6 -1 6 6 0 7 5 9 12 5 7 -4
8 -3 4 4 -9 15 -13 15 -21 1z"/>
<path d="M6683 16239 c3 -15 21 -13 25 3 3 10 2 10 -6 -1 -7 -9 -11 -10 -15
-2 -4 7 -5 8 -4 0z"/>
<path d="M11200 15940 c-9 -6 -10 -10 -3 -10 6 0 15 5 18 10 8 12 4 12 -15 0z"/>
<path d="M11736 15531 c-4 -5 -2 -12 3 -15 5 -4 12 -2 15 3 4 5 2 12 -3 15 -5
4 -12 2 -15 -3z"/>
<path d="M13855 15321 c-3 -5 -2 -12 3 -15 5 -3 9 1 9 9 0 17 -3 19 -12 6z"/>
<path d="M13637 15283 c-4 -6 1 -14 10 -17 20 -8 40 9 22 19 -8 5 -10 4 -5 -3
4 -7 3 -12 -3 -12 -5 0 -11 5 -13 12 -3 8 -6 9 -11 1z"/>
<path d="M13150 15150 c0 -5 5 -10 11 -10 5 0 7 5 4 10 -3 6 -8 10 -11 10 -2
0 -4 -4 -4 -10z"/>
<path d="M15530 15139 c0 -5 5 -7 10 -4 6 3 10 8 10 11 0 2 -4 4 -10 4 -5 0
-10 -5 -10 -11z"/>
<path d="M5130 15074 c0 -1 8 -8 17 -15 9 -8 14 -9 10 -2 -4 6 -1 13 5 16 7 3
3 4 -9 4 -13 -1 -23 -2 -23 -3z"/>
<path d="M16370 14741 c0 -7 -5 -9 -12 -5 -7 5 -8 3 -3 -5 5 -9 10 -10 18 -2
6 6 8 14 4 18 -4 3 -7 1 -7 -6z"/>
<path d="M4843 14695 c-9 -24 1 -27 15 -5 8 13 8 20 2 20 -6 0 -13 -7 -17 -15z"/>
<path d="M16650 14520 c0 -5 5 -10 10 -10 6 0 10 5 10 10 0 6 -4 10 -10 10 -5
0 -10 -4 -10 -10z"/>
<path d="M4479 14072 c9 -7 10 -11 2 -15 -7 -4 -8 -5 0 -3 15 2 13 20 -3 24
-10 3 -10 2 1 -6z"/>
<path d="M4395 13899 c-4 -6 -5 -12 -2 -15 2 -3 7 2 10 11 7 17 1 20 -8 4z"/>
<path d="M17318 13803 c7 -3 16 -2 19 1 4 3 -2 6 -13 5 -11 0 -14 -3 -6 -6z"/>
<path d="M4146 13198 c3 -5 10 -6 15 -3 13 9 11 12 -6 12 -8 0 -12 -4 -9 -9z"/>
<path d="M4130 13180 c0 -5 5 -10 11 -10 5 0 7 5 4 10 -3 6 -8 10 -11 10 -2 0
-4 -4 -4 -10z"/>
<path d="M4095 13020 c3 -5 8 -10 11 -10 2 0 4 5 4 10 0 6 -5 10 -11 10 -5 0
-7 -4 -4 -10z"/>
<path d="M4058 12783 c7 -3 16 -2 19 1 4 3 -2 6 -13 5 -11 0 -14 -3 -6 -6z"/>
<path d="M17910 12570 c0 -5 5 -10 11 -10 5 0 7 5 4 10 -3 6 -8 10 -11 10 -2
0 -4 -4 -4 -10z"/>
<path d="M17897 12544 c-7 -12 3 -28 21 -31 6 -2 12 4 12 13 0 8 -4 13 -9 10
-5 -4 -11 -1 -13 6 -3 7 -7 8 -11 2z"/>
<path d="M17943 12354 c0 -7 6 -10 14 -7 7 3 13 8 13 12 0 4 -6 8 -13 8 -8 0
-14 -6 -14 -13z"/>
<path d="M18319 11567 c7 -7 14 -8 21 -1 6 6 2 10 -12 11 -16 2 -18 -1 -9 -10z"/>
<path d="M18529 11458 c-6 -22 -4 -35 5 -35 6 0 12 9 12 19 0 14 -13 27 -17
16z"/>
<path d="M3346 11358 c3 -4 9 -8 15 -8 5 0 9 4 9 8 0 5 -7 9 -15 9 -8 0 -12
-4 -9 -9z"/>
<path d="M18640 11361 c0 -6 4 -13 10 -16 6 -3 7 1 4 9 -7 18 -14 21 -14 7z"/>
<path d="M18850 11198 c0 -4 4 -8 9 -8 6 0 12 4 15 8 3 5 -1 9 -9 9 -8 0 -15
-4 -15 -9z"/>
<path d="M3150 11180 c0 -5 5 -10 10 -10 6 0 10 5 10 10 0 6 -4 10 -10 10 -5
0 -10 -4 -10 -10z"/>
<path d="M18895 11150 c-8 -13 9 -20 24 -11 10 6 9 10 -3 14 -8 3 -18 2 -21
-3z"/>
<path d="M18988 11073 c7 -3 16 -2 19 1 4 3 -2 6 -13 5 -11 0 -14 -3 -6 -6z"/>
<path d="M2884 10942 c2 -8 10 -16 18 -18 10 -1 15 4 14 14 -2 8 -10 16 -18
18 -10 1 -15 -4 -14 -14z"/>
<path d="M2558 10533 c7 -3 16 -2 19 1 4 3 -2 6 -13 5 -11 0 -14 -3 -6 -6z"/>
<path d="M2473 10393 c0 -9 4 -10 14 -2 7 6 13 12 13 14 0 1 -6 2 -13 2 -8 0
-14 -6 -14 -14z"/>
<path d="M2159 9668 c-5 -18 -6 -38 -1 -34 7 8 12 36 6 36 -2 0 -4 -1 -5 -2z"/>
<path d="M19906 9525 c-11 -8 -15 -15 -9 -15 6 0 16 7 23 15 16 19 11 19 -14
0z"/>
<path d="M2071 9354 c0 -11 3 -14 6 -6 3 7 2 16 -1 19 -3 4 -6 -2 -5 -13z"/>
<path d="M19953 9355 c0 -8 4 -12 9 -9 5 3 6 10 3 15 -9 13 -12 11 -12 -6z"/>
<path d="M2050 9326 c0 -2 7 -7 16 -10 8 -3 12 -2 9 4 -6 10 -25 14 -25 6z"/>
<path d="M19986 9075 c-5 -15 11 -31 21 -21 4 3 0 6 -8 6 -12 0 -12 2 0 9 8 5
9 11 3 15 -5 3 -12 -1 -16 -9z"/>
<path d="M19991 8317 c-6 -8 -8 -17 -4 -20 12 -13 22 -7 20 13 -2 24 -1 24
-16 7z"/>
<path d="M19987 8219 c7 -7 15 -10 18 -7 3 3 -2 9 -12 12 -14 6 -15 5 -6 -5z"/>
<path d="M2063 8012 c-7 -4 -9 -13 -4 -21 6 -9 10 -7 14 8 3 12 4 21 4 21 -1
0 -7 -4 -14 -8z"/>
<path d="M19948 7973 c7 -3 16 -2 19 1 4 3 -2 6 -13 5 -11 0 -14 -3 -6 -6z"/>
<path d="M19910 7809 c0 -5 5 -7 10 -4 6 3 10 8 10 11 0 2 -4 4 -10 4 -5 0
-10 -5 -10 -11z"/>
<path d="M19813 7557 c0 -8 6 -14 14 -14 9 0 10 4 2 14 -6 7 -12 13 -14 13 -1
0 -2 -6 -2 -13z"/>
<path d="M19770 7440 c0 -5 5 -10 10 -10 6 0 10 5 10 10 0 6 -4 10 -10 10 -5
0 -10 -4 -10 -10z"/>
<path d="M2313 7225 c0 -8 4 -12 9 -9 5 3 6 10 3 15 -9 13 -12 11 -12 -6z"/>
<path d="M19525 6920 c3 -5 8 -10 11 -10 2 0 4 5 4 10 0 6 -5 10 -11 10 -5 0
-7 -4 -4 -10z"/>
<path d="M19322 6635 c-11 -12 -10 -15 3 -15 8 0 15 7 15 15 0 18 -2 18 -18 0z"/>
<path d="M2770 6521 c0 -6 4 -13 10 -16 6 -3 7 1 4 9 -7 18 -14 21 -14 7z"/>
<path d="M2805 6481 c-3 -5 -2 -12 3 -15 5 -3 9 1 9 9 0 17 -3 19 -12 6z"/>
<path d="M18946 6231 c-4 -5 -2 -12 3 -15 5 -4 12 -2 15 3 4 5 2 12 -3 15 -5
4 -12 2 -15 -3z"/>
<path d="M3130 6139 c0 -5 5 -7 10 -4 6 3 10 8 10 11 0 2 -4 4 -10 4 -5 0 -10
-5 -10 -11z"/>
<path d="M3595 5811 c-3 -5 -2 -12 3 -15 5 -3 9 1 9 9 0 17 -3 19 -12 6z"/>
<path d="M4090 5559 c0 -5 5 -7 10 -4 6 3 10 8 10 11 0 2 -4 4 -10 4 -5 0 -10
-5 -10 -11z"/>
<path d="M17900 5556 c0 -2 7 -7 16 -10 8 -3 12 -2 9 4 -6 10 -25 14 -25 6z"/>
<path d="M17791 5514 c0 -11 3 -14 6 -6 3 7 2 16 -1 19 -3 4 -6 -2 -5 -13z"/>
<path d="M4470 5440 c-13 -8 -12 -10 3 -10 9 0 17 5 17 10 0 12 -1 12 -20 0z"/>
<path d="M4650 5391 c0 -6 4 -13 10 -16 6 -3 7 1 4 9 -7 18 -14 21 -14 7z"/>
<path d="M17325 5391 c3 -5 -1 -11 -7 -14 -7 -3 -3 -4 10 -4 25 1 29 12 6 21
-8 3 -13 2 -9 -3z"/>
<path d="M4933 5347 c0 -8 6 -14 14 -14 9 0 10 4 2 14 -6 7 -12 13 -14 13 -1
0 -2 -6 -2 -13z"/>
</g>
</svg>
