<?xml version="1.0" standalone="no"?>
<!DOCTYPE svg PUBLIC "-//W3C//DTD SVG 20010904//EN"
 "http://www.w3.org/TR/2001/REC-SVG-20010904/DTD/svg10.dtd">
<svg version="1.0" xmlns="http://www.w3.org/2000/svg"
 width="2134.000000pt" height="2134.000000pt" viewBox="0 0 2134.000000 2134.000000"
 preserveAspectRatio="xMidYMid meet">
<metadata>
Created by potrace 1.11, written by Peter Selinger 2001-2013
</metadata>
<g transform="translate(0.000000,2134.000000) scale(0.100000,-0.100000)"
fill="#000000" stroke="none">
<path d="M8187 16645 c2 -6 13 -11 23 -12 11 -1 18 2 15 7 -3 4 3 7 12 6 10
-2 17 -7 16 -12 -4 -13 -67 -13 -75 0 -6 8 -8 8 -8 0 0 -6 -15 -11 -32 -10
-22 1 -32 6 -30 14 1 8 -2 11 -8 7 -6 -3 -8 -11 -5 -16 4 -5 -27 -9 -72 -10
-128 -2 -146 -4 -151 -18 -3 -10 1 -12 14 -7 30 12 36 12 41 0 2 -6 -13 -11
-39 -11 -162 -2 -217 -6 -221 -18 -3 -6 1 -12 9 -12 7 0 11 3 10 6 -2 3 6 7
19 7 17 1 21 -1 13 -10 -15 -16 -81 -19 -71 -3 5 9 3 9 -8 1 -8 -6 -32 -12
-55 -13 -56 -3 -67 -5 -83 -15 -11 -7 -11 -10 0 -17 11 -7 10 -9 -3 -9 -10 0
-18 6 -18 13 0 9 -2 9 -8 0 -4 -7 -36 -13 -74 -14 -37 -1 -67 -5 -66 -8 3 -29
1 -30 -109 -33 -30 -2 -32 -3 -17 -19 20 -22 10 -27 -64 -30 -33 -1 -59 -5
-57 -9 11 -17 -17 -30 -68 -31 -33 -1 -53 -6 -46 -10 7 -4 16 -6 19 -4 4 2 7
-2 7 -9 0 -7 -6 -13 -14 -13 -7 0 -13 5 -13 11 0 6 -4 5 -9 -2 -4 -7 -26 -14
-49 -15 -22 -1 -39 -4 -37 -7 9 -15 -15 -31 -47 -32 -26 -1 -38 -6 -41 -20 -4
-13 -15 -18 -40 -18 -25 0 -36 -5 -39 -18 -4 -12 -17 -19 -44 -21 -21 -2 -48
-4 -58 -4 -22 -2 -31 -34 -10 -34 16 0 19 13 4 20 -6 3 -5 4 2 3 24 -5 13 -29
-14 -33 -16 -1 -40 -4 -55 -6 -15 -2 -29 -10 -31 -18 -2 -8 0 -10 5 -4 12 15
30 16 30 1 0 -7 -5 -13 -11 -13 -47 1 -64 -5 -69 -23 -5 -19 -32 -26 -74 -21
-7 1 -13 -7 -13 -19 0 -17 -6 -20 -40 -20 -33 0 -40 -3 -40 -20 0 -19 -21 -26
-70 -21 -8 1 -4 -5 10 -13 l25 -15 -42 -7 c-37 -6 -43 -10 -43 -30 0 -21 -5
-24 -37 -25 -21 -1 -41 -1 -45 0 -5 0 -8 -4 -8 -10 0 -6 7 -9 14 -6 10 4 13 1
10 -8 -3 -8 -9 -14 -12 -13 -24 3 -51 -4 -68 -17 -14 -11 -15 -14 -3 -9 10 3
20 1 24 -5 6 -10 -37 -17 -74 -12 -7 2 -11 -4 -8 -11 2 -7 11 -12 20 -12 9 1
14 -2 11 -7 -3 -5 -11 -9 -17 -8 -7 1 -25 1 -41 0 -23 -1 -26 -4 -17 -14 14
-17 4 -27 -25 -27 -14 0 -24 -8 -27 -21 -4 -14 -10 -18 -18 -13 -10 6 -10 9
-1 12 17 5 15 19 -2 19 -8 0 -13 -8 -11 -17 2 -9 -6 -22 -17 -29 -11 -7 -17
-8 -13 -2 3 6 1 11 -4 11 -6 0 -11 -7 -11 -15 0 -8 5 -15 10 -15 16 0 12 -16
-5 -18 -8 -1 -22 -3 -30 -4 -8 -1 -15 -10 -15 -20 0 -11 -7 -18 -20 -18 -14 0
-20 -7 -20 -21 0 -11 -4 -18 -9 -15 -4 3 -19 -3 -31 -14 -16 -14 -19 -20 -9
-21 8 -1 -2 -5 -21 -10 -19 -4 -40 -7 -46 -5 -6 2 -11 -2 -11 -9 0 -7 6 -11
13 -8 6 2 15 0 19 -6 3 -6 0 -9 -8 -5 -8 3 -18 1 -21 -4 -3 -6 -16 -8 -29 -5
-22 5 -22 5 -2 -10 11 -8 17 -19 12 -23 -4 -4 -7 -2 -7 4 0 7 -5 12 -10 12 -6
0 -9 -6 -8 -12 2 -8 -6 -13 -19 -12 -19 1 -22 -3 -19 -22 4 -20 0 -24 -20 -24
-17 0 -24 -5 -24 -20 0 -13 -7 -20 -20 -20 -14 0 -20 -6 -18 -17 2 -13 -5 -19
-25 -21 -23 -3 -28 -8 -24 -23 4 -15 0 -19 -19 -19 -17 0 -24 -6 -24 -20 0
-13 -7 -20 -20 -20 -14 0 -20 -7 -20 -24 0 -19 -4 -23 -20 -19 -16 4 -20 0
-20 -21 0 -19 -5 -26 -20 -26 -11 0 -20 -4 -20 -9 0 -6 10 -8 21 -6 12 3 18 1
15 -3 -4 -4 -11 -7 -14 -7 -4 -1 -17 -6 -28 -13 -12 -6 -25 -8 -29 -4 -4 4 -6
0 -5 -8 5 -32 0 -40 -22 -36 -19 3 -23 -1 -25 -21 0 -14 -6 -29 -13 -33 -9 -6
-9 -9 1 -14 8 -3 4 -4 -8 -2 -22 4 -27 -4 -24 -32 2 -9 -6 -12 -21 -10 -20 3
-23 -1 -20 -26 3 -25 1 -28 -18 -23 -18 5 -21 2 -17 -13 4 -17 -28 -56 -36
-42 -2 4 -2 2 -1 -5 2 -7 -8 -21 -22 -32 -14 -11 -25 -22 -25 -25 4 -37 -1
-46 -24 -46 -19 0 -25 -6 -26 -22 -1 -13 -2 -30 -3 -40 -1 -9 -5 -20 -9 -24
-4 -5 -5 -1 -1 9 5 13 2 16 -10 11 -8 -3 -15 -9 -14 -12 0 -4 0 -20 -1 -35 -1
-24 -3 -26 -21 -17 -18 9 -20 8 -20 -15 0 -19 -5 -25 -21 -25 -11 0 -18 -4
-14 -10 3 -5 13 -7 23 -4 14 5 14 4 2 -4 -8 -6 -18 -8 -22 -6 -4 3 -8 -9 -8
-26 0 -18 -4 -29 -10 -25 -5 3 -10 1 -10 -5 0 -6 -4 -9 -9 -5 -5 3 -11 -5 -13
-17 -2 -17 -9 -22 -23 -20 -18 3 -18 2 3 -13 12 -9 22 -22 22 -28 0 -7 -4 -6
-10 3 -7 11 -10 11 -10 2 0 -7 -4 -11 -9 -7 -5 3 -11 -7 -13 -22 -2 -23 -7
-27 -25 -25 -19 3 -23 -2 -24 -25 -1 -15 0 -34 1 -42 1 -9 -5 -12 -20 -8 -18
5 -21 2 -17 -13 4 -17 -13 -44 -24 -37 -2 1 1 -3 8 -9 19 -17 16 -26 -5 -15
-16 9 -19 6 -21 -25 -3 -62 -5 -71 -18 -71 -8 0 -9 6 -2 18 7 14 6 17 -4 14
-12 -5 -18 -33 -20 -91 -1 -11 -7 -21 -14 -21 -9 0 -10 4 -3 12 7 9 6 14 -3
18 -15 5 -15 5 -18 -64 -1 -31 -6 -46 -15 -46 -10 0 -11 4 -3 13 7 8 7 14 -1
19 -5 3 -10 5 -11 3 -5 -20 -9 -51 -10 -85 -2 -36 -6 -43 -23 -43 -18 0 -19 2
-6 11 13 9 13 10 0 6 -10 -2 -16 -19 -18 -51 -2 -26 -7 -44 -13 -41 -12 8 -12
-1 0 -24 7 -13 6 -18 -4 -18 -7 0 -11 6 -8 13 2 6 0 15 -6 19 -7 4 -11 -9 -11
-39 0 -38 -3 -44 -18 -41 -14 2 -18 -4 -19 -31 0 -22 3 -32 11 -27 6 3 6 0 -1
-8 -7 -7 -13 -25 -13 -40 0 -15 -5 -31 -12 -35 -6 -4 -8 -3 -5 3 4 6 1 16 -7
22 -10 9 -13 6 -13 -11 1 -102 -3 -129 -20 -126 -19 3 -19 4 -24 -99 -2 -35
-7 -63 -12 -63 -4 0 -7 6 -5 14 2 8 -1 15 -7 15 -12 1 -12 -4 -14 -82 -1 -55
-2 -58 -23 -52 -22 6 -22 5 -3 -7 21 -14 31 -38 16 -38 -5 0 -11 7 -15 15 -10
26 -23 16 -24 -17 -2 -99 -4 -118 -15 -118 -9 0 -9 -2 0 -8 7 -4 11 -18 8 -31
-6 -31 -11 -35 -19 -16 -3 9 -2 14 2 11 5 -3 9 1 9 9 0 8 -4 12 -8 9 -4 -2 -9
2 -11 8 -3 7 -5 -9 -5 -37 -2 -152 -3 -166 -15 -159 -10 6 -10 4 -2 -7 16 -20
14 -48 -3 -42 -7 3 -13 9 -13 15 0 5 6 6 13 2 8 -5 8 -2 -2 9 -7 9 -14 17 -15
17 -2 0 -3 -21 -3 -47 -2 -152 -8 -343 -11 -333 -2 5 -7 8 -11 6 -4 -3 -8 1
-8 9 0 8 3 12 7 10 3 -2 6 5 7 15 1 10 -4 20 -10 23 -9 3 -13 -89 -15 -382 -2
-212 -5 -387 -6 -388 -1 -1 -18 -3 -39 -5 -41 -2 -41 -2 -28 -27 8 -14 5 -17
-22 -16 -18 0 -38 -4 -46 -10 -8 -5 -16 -9 -18 -7 -1 1 -11 2 -20 1 -11 0 -13
-3 -5 -6 26 -10 10 -23 -28 -23 -33 0 -40 -3 -40 -20 0 -20 -17 -26 -62 -22
-20 2 -24 -13 -6 -24 7 -5 8 -3 3 7 -8 12 -6 12 8 0 22 -18 21 -21 -3 -16 -11
2 -20 1 -20 -3 0 -4 -19 -7 -42 -7 -25 0 -42 -5 -44 -13 -1 -7 0 -8 3 -2 7 14
20 13 26 -3 5 -14 1 -15 -48 -18 -17 -1 -24 -7 -23 -17 2 -10 -5 -18 -17 -20
-60 -9 -66 -13 -60 -32 5 -16 2 -20 -15 -20 -13 0 -24 -8 -27 -20 -3 -13 -14
-20 -29 -20 -17 0 -24 -6 -24 -20 0 -19 -24 -26 -68 -21 -7 1 -12 -2 -11 -6 4
-23 -3 -33 -21 -33 -14 0 -20 -6 -18 -17 2 -12 -4 -19 -19 -21 -15 -2 -23 -10
-23 -23 0 -13 -7 -19 -25 -20 -45 -2 -48 -4 -52 -19 -3 -9 -1 -11 4 -5 15 19
33 15 33 -6 0 -16 -5 -20 -20 -16 -19 5 -47 -23 -35 -35 3 -3 -2 -5 -10 -5
-18 0 -19 9 -3 25 9 9 9 12 0 12 -6 0 -14 -11 -18 -24 -4 -17 -12 -23 -24 -21
-12 2 -17 -2 -15 -13 1 -9 -2 -22 -7 -29 -5 -7 -6 -18 -2 -25 6 -9 3 -9 -10 1
-13 11 -14 16 -4 22 10 7 8 9 -5 9 -13 0 -17 -6 -15 -22 2 -17 -2 -23 -16 -23
-11 0 -21 -7 -23 -15 -4 -13 -3 -13 6 0 6 8 11 10 11 4 0 -6 -7 -17 -15 -24
-9 -7 -14 -19 -11 -26 3 -8 -2 -11 -15 -9 -10 2 -19 0 -19 -4 0 -5 -10 -8 -21
-7 -14 1 -23 -6 -25 -17 -1 -9 2 -15 7 -11 5 3 9 0 9 -5 0 -6 -7 -11 -15 -11
-9 0 -15 -6 -13 -12 2 -7 -2 -13 -7 -13 -5 0 -9 6 -7 13 2 6 -2 12 -7 12 -5 0
-8 -9 -6 -20 2 -11 0 -20 -5 -20 -5 0 -7 -9 -5 -20 2 -11 1 -19 -3 -19 -22 3
-32 -3 -32 -21 0 -13 -7 -20 -20 -20 -13 0 -20 -7 -20 -20 0 -13 -7 -20 -20
-20 -13 0 -20 -7 -20 -19 0 -11 -6 -22 -12 -24 -10 -4 -9 -8 2 -16 9 -7 11
-11 3 -11 -7 0 -17 8 -22 18 -9 15 -10 15 -11 -5 0 -12 6 -24 13 -26 6 -3 1
-6 -13 -7 -14 -1 -19 -4 -12 -7 18 -7 14 -33 -5 -33 -15 0 -16 2 -3 10 8 5 10
10 5 10 -17 0 -35 -22 -35 -42 0 -11 -7 -18 -20 -18 -19 0 -23 -9 -23 -62 0
-10 -5 -14 -13 -11 -8 3 -14 9 -14 15 0 5 5 6 12 2 7 -4 8 -3 4 5 -9 14 -28 4
-24 -12 5 -25 -12 -66 -26 -61 -9 3 -14 -5 -15 -28 -3 -53 -4 -57 -10 -56 -22
2 -31 -5 -31 -22 0 -18 -10 -25 -32 -21 -5 0 -8 -4 -8 -9 0 -6 7 -10 16 -8 10
2 19 -4 21 -12 4 -13 3 -13 -6 0 -8 11 -11 12 -11 2 0 -7 -4 -10 -10 -7 -6 4
-10 -5 -10 -19 0 -14 -4 -26 -10 -26 -5 0 -7 -6 -4 -14 3 -8 1 -17 -4 -20 -5
-3 -9 2 -8 11 0 9 -5 18 -12 20 -7 3 -13 -1 -11 -8 1 -8 1 -29 0 -46 -1 -26
-5 -33 -21 -33 -17 0 -20 -7 -20 -40 0 -37 -7 -45 -32 -41 -7 1 -13 -69 -8
-94 1 -5 -4 -4 -11 3 -18 17 -29 15 -29 -5 0 -15 2 -16 10 -3 8 13 10 12 10
-2 0 -10 -4 -18 -10 -18 -5 0 -10 -16 -10 -36 0 -31 -2 -35 -15 -24 -20 16
-19 6 1 -14 14 -15 14 -16 -5 -16 -17 0 -21 -6 -21 -35 0 -22 -8 -44 -20 -57
-19 -20 -23 -48 -23 -140 0 -20 -22 -24 -33 -6 -4 6 -3 8 4 4 17 -10 23 10 7
24 -17 14 -16 16 -20 -35 -9 -127 -10 -129 -35 -127 -6 0 -6 -10 -12 -145 -2
-51 -7 -96 -11 -100 -5 -4 -5 0 -2 9 4 9 1 19 -5 23 -8 5 -8 10 0 20 8 9 8 15
0 20 -14 8 -11 26 -20 -150 -2 -36 -9 -67 -18 -78 -14 -16 -14 -17 1 -11 10 3
17 1 17 -5 0 -10 -12 -15 -31 -13 -12 2 -4 -93 10 -104 11 -9 12 -12 1 -19 -9
-5 -11 -4 -6 3 4 7 3 12 -3 12 -7 0 -10 -114 -9 -335 1 -187 5 -335 10 -335 5
0 7 -4 3 -9 -3 -5 -1 -12 3 -15 13 -8 10 47 -3 57 -6 5 -4 7 5 4 11 -3 15 -20
16 -68 6 -245 7 -256 20 -256 9 0 10 5 3 18 -12 24 -11 29 4 24 6 -3 13 -19
14 -35 2 -22 -1 -29 -10 -23 -9 5 -9 4 0 -8 7 -8 14 -50 15 -92 2 -42 5 -72 6
-67 2 6 10 10 19 10 10 0 14 -9 12 -33 -2 -18 -1 -37 2 -42 3 -6 5 -29 4 -52
0 -23 1 -40 4 -38 2 3 9 0 16 -5 8 -7 12 -5 12 5 0 8 -5 11 -10 8 -6 -4 -7 -1
-2 7 5 8 4 11 -3 7 -6 -5 -8 1 -4 15 5 19 7 20 10 5 2 -9 7 -15 11 -13 4 3 7
-5 8 -17 2 -82 9 -124 20 -135 7 -7 13 -10 13 -5 0 5 -5 14 -11 20 -8 8 -8 13
0 17 6 4 12 5 12 2 1 -3 3 -10 4 -16 1 -5 3 -31 4 -56 0 -25 5 -43 9 -40 4 2
14 1 22 -4 13 -8 13 -13 2 -31 -8 -11 -9 -18 -3 -14 7 4 11 -5 11 -25 0 -24 4
-30 17 -28 18 3 19 1 21 -69 1 -24 6 -43 12 -43 5 0 7 8 3 18 -5 14 -3 13 10
-3 9 -11 17 -39 17 -63 0 -35 3 -42 18 -40 13 2 18 -5 20 -30 2 -18 8 -30 13
-27 5 4 9 1 9 -4 0 -6 -5 -11 -11 -11 -5 0 -7 -5 -4 -10 5 -8 11 -7 21 1 11 9
15 8 19 -3 3 -8 5 -19 4 -24 -1 -5 0 -12 1 -16 1 -5 3 -12 4 -18 0 -5 6 -9 11
-7 6 1 9 8 9 14 -1 7 2 11 5 8 7 -4 13 -54 13 -105 0 -21 1 -22 9 -7 6 9 7 22
3 28 -4 7 -1 10 6 7 13 -4 20 -25 22 -65 0 -16 7 -23 19 -23 18 0 22 -11 22
-62 0 -20 12 -24 22 -8 3 6 1 10 -5 10 -6 0 -8 5 -5 11 9 14 15 7 21 -27 7
-46 12 -54 29 -48 13 5 20 -14 17 -47 -1 -3 5 -6 13 -6 8 0 12 4 9 9 -3 4 2 8
11 8 11 0 15 -6 10 -19 -3 -11 1 -25 10 -34 17 -17 20 -31 5 -22 -5 3 -10 1
-10 -6 0 -6 8 -9 20 -6 16 4 20 0 20 -19 0 -13 3 -23 8 -23 20 3 32 -3 32 -17
0 -22 27 -48 33 -31 3 6 6 2 6 -10 1 -21 11 -28 34 -24 4 0 7 -5 7 -13 0 -9
-8 -13 -22 -10 -21 4 -20 3 2 -7 14 -6 32 -12 39 -13 21 -4 25 -22 6 -30 -9
-3 -13 -2 -10 3 3 5 2 12 -3 15 -4 2 -8 -4 -9 -14 -1 -11 5 -19 15 -19 40 -1
51 -5 45 -14 -4 -6 0 -8 9 -4 10 3 15 0 14 -11 0 -10 5 -16 14 -14 12 3 13 1
3 -9 -14 -14 -17 -30 -5 -28 26 4 41 -3 36 -16 -6 -15 33 -37 49 -28 5 3 4 -4
-2 -16 -14 -26 3 -29 19 -3 10 15 10 15 8 -3 -2 -14 2 -19 14 -17 9 1 19 -2
22 -7 3 -5 -2 -8 -11 -7 -9 0 -18 -6 -20 -14 -4 -13 -3 -13 6 0 8 11 11 12 11
2 0 -7 4 -10 10 -7 5 3 11 -1 11 -9 1 -9 2 -21 3 -28 0 -7 19 -14 41 -16 48
-5 53 -8 35 -25 -10 -9 -11 -9 -6 1 4 6 2 12 -4 12 -7 0 -10 -6 -8 -12 5 -13
9 -14 48 -17 22 -1 27 -26 8 -34 -7 -3 2 -6 20 -6 25 -1 32 -5 32 -21 0 -13 7
-20 20 -20 13 0 20 -7 20 -20 0 -12 7 -20 18 -20 13 0 14 2 4 9 -11 7 -11 9 2
14 9 4 15 3 15 -1 -4 -25 3 -33 22 -27 18 6 19 4 11 -12 -9 -16 -7 -19 20 -21
40 -3 47 -8 41 -30 -3 -12 2 -18 14 -20 48 -5 64 -15 47 -30 -4 -4 -4 -2 -1 4
3 6 0 11 -7 11 -7 0 -13 -6 -13 -12 0 -7 7 -12 16 -12 64 0 73 -3 62 -17 -15
-18 -4 -24 42 -28 23 -1 37 -7 37 -15 0 -11 -5 -11 -20 -3 -15 8 -18 8 -14 -3
2 -7 21 -14 41 -15 37 -3 57 -18 47 -34 -3 -5 -2 -8 3 -7 4 1 23 1 41 0 25 -1
32 -5 32 -21 0 -17 7 -20 40 -20 22 0 40 -5 40 -11 0 -5 6 -7 13 -3 6 4 4 -2
-7 -14 l-18 -21 53 -3 c42 -2 53 -6 52 -18 -2 -9 5 -16 15 -17 67 -3 80 -7 72
-23 -7 -12 1 -15 43 -18 32 -2 58 -9 67 -19 11 -12 12 -14 1 -8 -9 5 -12 4 -7
-3 4 -7 16 -12 28 -12 18 0 19 2 7 17 -13 17 -12 17 7 0 11 -9 39 -18 61 -20
23 -1 39 -5 36 -10 -2 -4 -9 -5 -14 -2 -5 4 -9 0 -9 -7 0 -10 -3 -9 -11 2 -8
11 -10 12 -7 1 4 -14 47 -23 120 -24 29 -1 35 -4 26 -14 -13 -16 -22 -17 -12
-1 4 7 3 8 -4 4 -31 -19 1 -25 141 -29 34 -1 34 -5 2 -17 -14 -5 -25 -15 -24
-22 0 -10 2 -10 6 0 5 13 39 17 46 5 2 -5 3 -3 1 3 -1 6 2 17 8 25 8 11 9 11
5 -2 -10 -31 8 -38 97 -41 86 -3 112 -10 80 -22 -8 -3 -12 -2 -9 4 9 14 -1 12
-13 -3 -9 -10 -4 -13 21 -14 18 0 90 -2 160 -4 71 -1 131 -7 133 -11 3 -5 12
-4 20 3 10 8 14 8 14 0 0 -6 -3 -11 -7 -12 -5 0 -16 -2 -26 -4 -9 -2 -15 1
-11 6 8 14 -12 11 -25 -4 -9 -11 -1 -14 39 -14 27 -1 48 2 45 6 -2 4 2 8 10 8
8 0 12 -4 9 -9 -3 -4 2666 -8 5931 -8 4746 0 5935 3 5929 13 -6 10 -4 10 7 0
7 -7 17 -13 22 -13 4 0 5 6 1 13 -6 8 -3 8 9 -1 14 -12 19 -12 31 1 8 8 12 18
8 23 -4 5 1 2 11 -5 12 -9 17 -10 17 -2 0 7 6 11 13 10 30 -4 251 3 240 8 -7
2 -13 9 -13 14 0 4 7 5 17 2 10 -4 14 -2 10 4 -3 5 1 10 9 10 10 0 11 -4 4
-11 -5 -5 -10 -14 -10 -20 0 -5 8 1 19 12 14 17 30 22 72 22 75 0 127 5 135
12 3 4 -6 5 -20 4 -15 -2 -23 1 -19 7 4 6 0 8 -10 4 -10 -3 -17 -3 -17 2 0 5
9 11 20 14 11 3 18 1 14 -4 -3 -5 -1 -9 5 -9 5 0 12 6 14 13 4 9 8 9 15 -2 7
-10 11 -10 14 -1 2 7 28 12 64 13 45 2 57 5 50 13 -6 7 -14 10 -18 8 -4 -2 -9
-1 -12 4 -2 4 5 8 17 9 114 5 147 8 147 16 0 5 -8 6 -19 2 -11 -3 -21 0 -24 7
-3 9 7 13 32 14 73 3 91 8 91 25 0 11 8 17 23 16 63 -1 105 7 100 20 -4 9 -9
10 -18 3 -8 -7 -12 -6 -12 4 0 7 7 13 16 13 92 1 103 3 99 21 -6 20 -1 21 62
23 31 0 32 2 13 9 -15 6 -21 15 -17 25 3 8 8 15 11 15 3 0 3 -7 -1 -15 -3 -9
0 -15 9 -15 8 0 15 7 15 15 0 11 11 15 40 15 23 0 40 5 40 11 0 6 -8 9 -18 7
-10 -3 -19 0 -19 6 0 6 10 12 21 12 83 6 96 8 84 15 -6 4 -15 6 -18 4 -4 -2
-7 2 -7 9 0 7 15 13 35 14 44 3 53 9 45 28 -4 10 -1 15 8 14 8 -1 29 -2 47 -1
25 1 32 5 32 21 0 19 10 23 63 23 13 0 15 3 8 10 -19 19 -12 27 27 28 20 0 32
3 26 5 -19 8 -4 43 20 46 13 2 20 10 19 21 0 11 4 16 12 13 7 -2 23 2 35 11
17 12 19 17 9 25 -11 7 -11 9 1 7 48 -5 70 2 70 21 0 13 7 20 20 20 13 0 20 7
20 20 0 19 17 25 60 21 11 -1 11 1 -3 9 -23 15 -22 30 3 30 11 0 20 5 20 11 0
5 5 7 10 4 6 -3 10 -1 10 4 0 6 -4 11 -10 11 -18 0 -10 16 9 17 15 1 18 -4 16
-22 -1 -14 2 -22 7 -19 5 3 8 11 7 17 -3 27 2 36 19 32 11 -2 19 3 20 13 4 36
8 52 17 59 4 4 6 4 3 -2 -3 -5 1 -17 10 -24 14 -13 15 -13 10 6 -3 11 -2 27 3
34 5 8 9 9 9 3 0 -6 6 -11 13 -11 8 0 14 6 14 13 0 7 -5 10 -11 7 -6 -4 -5 1
2 9 8 9 19 15 27 12 17 -7 29 12 14 22 -8 5 -9 3 -4 -6 5 -9 4 -11 -3 -6 -18
11 -14 27 6 24 11 -2 17 3 17 16 0 11 6 21 13 24 6 2 12 -1 12 -8 0 -6 -4 -8
-10 -5 -6 4 -7 -1 -3 -11 5 -15 7 -15 15 0 5 8 10 28 11 44 1 19 8 29 21 30
17 1 17 0 2 -17 -9 -10 -16 -22 -16 -27 0 -5 5 -1 11 9 6 9 15 14 21 11 6 -4
8 -2 4 4 -3 6 -2 13 3 16 5 3 7 16 3 28 -4 18 -2 20 16 16 18 -5 22 -2 22 18
0 18 5 24 18 22 11 -2 18 4 20 20 2 14 10 22 23 22 18 0 25 19 20 57 -1 6 3
14 8 17 5 3 8 -2 7 -11 0 -9 6 -18 14 -20 13 -4 13 -3 0 6 -10 7 -11 11 -3 11
7 0 12 3 12 8 -3 19 2 33 11 27 6 -3 10 -2 10 4 0 5 -6 11 -12 14 -7 2 -10 8
-6 12 4 4 13 3 21 -3 10 -8 13 -5 15 14 3 36 9 43 33 37 16 -5 20 -2 17 8 -3
8 -11 13 -17 11 -7 -1 -10 2 -6 8 3 6 11 8 16 5 9 -6 12 5 10 35 0 10 2 11 5
3 10 -22 41 7 36 33 -3 19 -1 22 17 17 17 -4 21 -1 22 18 1 13 1 30 0 38 -2 7
2 10 8 7 5 -4 13 -1 17 5 4 7 3 9 -4 5 -6 -3 -13 -2 -17 4 -3 5 3 10 14 10 14
0 21 6 21 20 0 17 9 24 30 22 3 0 6 16 7 36 1 20 7 38 13 40 5 2 8 8 5 12 -3
5 0 12 6 16 7 4 9 3 5 -4 -3 -6 -2 -13 4 -17 6 -4 10 11 10 39 0 41 2 44 25
41 26 -2 34 10 13 18 -10 4 -10 6 0 6 7 1 12 14 12 31 0 17 5 30 10 30 7 0 7
6 1 18 -7 14 -6 19 4 19 7 0 11 -6 8 -13 -2 -6 0 -15 6 -19 9 -5 17 54 12 88
0 4 4 7 9 7 6 0 10 -6 10 -12 0 -9 3 -8 10 2 6 9 5 17 -3 22 -9 6 -9 8 1 8 6
0 12 12 12 28 0 15 6 34 13 41 9 11 9 13 0 7 -7 -4 -13 -2 -13 5 0 6 8 9 19 6
17 -4 20 0 19 35 0 38 16 63 34 52 15 -9 8 3 -9 17 -11 10 -14 10 -9 2 4 -8 2
-13 -4 -13 -7 0 -9 7 -6 16 3 9 6 19 6 22 0 4 4 0 10 -8 14 -22 18 -11 22 65
4 59 7 70 21 67 14 -2 17 5 17 43 0 29 4 45 13 45 8 0 7 4 -3 10 -13 9 -13 12
1 23 9 6 15 20 13 29 -1 11 3 15 12 11 13 -5 19 50 17 153 0 6 6 11 13 11 7 0
11 -4 8 -9 -3 -5 -7 -21 -10 -36 -4 -24 -3 -25 7 -8 11 18 21 138 22 283 1 36
6 64 12 67 13 5 13 -23 0 -43 -5 -10 -4 -12 3 -7 16 9 15 -7 0 -22 -9 -9 -9
-12 1 -12 7 0 9 -5 5 -12 -4 -7 -3 -9 1 -5 15 13 16 248 2 266 -9 12 -9 13 0
7 10 -6 13 42 11 224 -1 206 -3 230 -17 225 -14 -4 -14 -3 0 8 21 16 21 77 0
77 -10 0 -11 -3 -2 -14 9 -10 8 -15 -1 -19 -9 -3 -13 5 -13 24 -1 15 3 25 7
23 4 -3 8 1 8 8 0 9 3 9 10 -2 5 -8 10 -10 10 -4 0 6 -8 18 -17 25 -11 10 -14
10 -9 2 4 -7 3 -13 -3 -13 -5 0 -10 44 -11 103 -2 136 -4 152 -21 155 -10 2
-16 20 -18 60 -6 119 -6 117 -27 115 -19 -2 -21 4 -23 60 -1 34 -7 67 -13 74
-7 9 -7 13 1 13 6 0 11 5 11 10 0 7 -6 7 -20 0 -18 -10 -20 -7 -21 32 -1 24
-1 46 0 51 1 6 -14 11 -30 9 -4 -1 -6 7 -6 16 0 86 -3 102 -21 102 -18 0 -22
20 -25 107 -1 15 -6 20 -19 18 -15 -3 -18 3 -18 41 0 37 -3 44 -20 44 -17 0
-20 7 -20 40 0 22 -3 39 -7 39 -30 -5 -44 3 -43 24 5 56 1 69 -20 64 -16 -4
-20 0 -21 21 -1 15 -1 33 0 40 1 8 -7 16 -18 19 -12 3 -21 14 -21 24 0 12 -7
19 -20 19 -12 0 -20 6 -19 13 1 6 1 27 0 46 -1 28 -4 33 -21 28 -16 -4 -20 0
-21 24 -3 53 -8 64 -26 45 -4 -5 -3 -7 3 -3 6 3 11 0 11 -7 0 -7 -6 -13 -12
-13 -7 0 -12 7 -12 16 0 51 -4 63 -16 58 -21 -8 -37 6 -39 36 -2 17 -6 23 -12
17 -6 -6 -15 -10 -20 -10 -6 0 -4 5 4 10 11 7 11 10 2 10 -7 0 -10 5 -7 10 3
6 -2 10 -12 10 -11 0 -14 3 -7 8 17 11 13 42 -5 40 -11 -2 -17 6 -19 23 -2 21
-7 26 -23 22 -15 -4 -19 0 -19 20 0 20 -4 24 -20 20 -12 -3 -20 -2 -19 3 4 23
-2 45 -11 39 -5 -3 -10 -2 -10 4 0 5 6 12 13 15 6 3 2 3 -10 0 -23 -5 -29 6
-24 43 1 6 -6 12 -16 12 -45 1 -54 4 -43 15 17 17 12 25 -22 40 -18 8 -27 15
-20 15 6 1 12 6 12 11 0 6 -3 9 -7 9 -23 -4 -33 3 -33 22 0 16 -5 20 -20 16
-18 -5 -25 3 -21 25 0 4 -10 10 -23 14 -13 3 -23 12 -22 21 0 9 -5 18 -12 20
-7 3 -10 -1 -6 -10 3 -8 2 -17 -3 -20 -5 -3 -9 2 -10 11 -3 43 -11 57 -31 58
-12 1 -30 2 -40 3 -10 0 -18 9 -18 20 0 11 4 18 7 15 4 -2 11 0 14 6 4 6 3 10
-2 9 -35 -6 -63 3 -63 20 0 13 -8 21 -22 23 -16 2 -22 9 -20 21 2 11 -4 17
-18 17 -18 0 -25 10 -21 33 0 4 -5 7 -13 7 -9 0 -13 -8 -10 -22 3 -19 2 -18
-6 3 -8 20 -17 25 -35 23 -13 -1 -24 1 -24 4 3 22 -3 32 -21 32 -13 0 -20 7
-20 20 0 14 -7 20 -23 20 -18 0 -23 5 -23 23 1 15 -4 22 -16 21 -10 -1 -18 2
-18 6 0 4 -11 5 -24 3 -21 -4 -24 -2 -19 16 5 21 -2 24 -69 24 -19 0 -24 12
-9 21 5 4 11 1 13 -5 3 -8 7 -7 15 2 9 11 6 14 -15 15 -75 4 -103 15 -69 27 6
2 9 8 5 12 -4 4 -15 2 -25 -6 -11 -9 -14 -10 -9 -1 5 8 -1 12 -18 12 -19 0
-26 5 -26 20 0 13 -7 20 -18 20 -10 0 -24 6 -31 13 -11 10 -13 10 -7 0 5 -8 1
-13 -9 -13 -11 0 -15 5 -12 15 9 21 -11 29 -30 13 -9 -7 -14 -8 -11 -3 4 6 -5
15 -18 22 -13 6 -22 7 -18 2 3 -5 0 -9 -5 -9 -6 0 -11 11 -11 23 0 20 -5 24
-36 25 -20 1 -39 3 -41 5 -2 2 -4 84 -5 181 -1 98 -6 180 -11 183 -16 10 -20
-7 -7 -32 11 -20 11 -28 1 -38 -10 -9 -11 -8 -5 7 4 11 3 17 -2 14 -5 -4 -10
45 -12 115 -4 182 -6 215 -14 222 -4 4 -5 -4 -2 -19 3 -18 1 -24 -9 -20 -15 5
-16 31 -2 53 5 10 4 12 -3 7 -12 -7 -13 2 -15 122 -1 31 -10 41 -21 23 -4 -5
-1 -11 5 -13 7 -2 6 -8 -4 -16 -12 -10 -17 -10 -23 -1 -4 8 -3 9 4 5 7 -4 12
-3 12 3 0 5 -6 12 -12 14 -10 4 -10 6 0 6 6 1 12 9 12 19 0 15 -2 15 -11 2 -8
-12 -10 -12 -8 5 4 55 -2 135 -11 135 -6 0 -9 -5 -8 -11 2 -6 -4 -14 -12 -16
-13 -4 -13 -3 0 6 13 10 13 11 0 11 -9 1 -5 6 10 15 24 14 24 14 3 15 -19 0
-22 6 -25 43 -2 23 -8 42 -15 42 -6 0 -15 3 -19 7 -3 4 3 6 15 3 13 -2 21 1
21 10 0 8 -6 12 -14 9 -20 -8 -24 4 -28 73 -1 34 -5 61 -8 61 -25 -2 -30 6
-30 46 0 36 -3 44 -17 42 -14 -1 -19 8 -21 42 -3 38 -5 42 -24 36 -18 -5 -19
-4 -7 9 8 8 17 13 22 10 4 -2 7 1 7 7 0 7 -8 9 -20 5 -18 -6 -20 -2 -20 44 0
42 -3 51 -17 51 -15 0 -16 -2 -3 -10 12 -7 11 -9 -6 -8 -13 1 -21 10 -22 25
-1 13 -3 34 -4 48 -1 17 -8 25 -20 25 -17 0 -21 11 -21 63 0 19 -8 22 -23 7
-9 -9 -15 15 -17 76 -1 11 -7 21 -14 21 -6 0 -9 -5 -6 -10 3 -6 1 -7 -5 -3 -7
4 -12 18 -12 32 0 13 -5 24 -11 24 -5 0 -7 6 -3 13 5 7 1 6 -10 -2 -16 -13
-18 -13 -16 0 7 44 -1 69 -20 69 -12 0 -20 6 -19 13 3 28 -2 35 -25 31 -15 -2
-24 1 -23 9 2 57 -4 77 -23 77 -16 0 -20 7 -20 33 0 17 -4 28 -8 22 -22 -30
-40 -2 -33 53 1 6 -3 12 -9 12 -6 0 -8 -4 -5 -10 3 -5 1 -10 -5 -10 -6 0 -8
-6 -4 -12 4 -8 3 -9 -2 -5 -9 9 -10 13 -12 59 -2 21 -6 25 -22 21 -16 -4 -20
0 -20 21 0 19 -5 26 -20 26 -14 0 -20 7 -21 25 -3 45 -4 48 -22 51 -18 2 -18
1 -2 -16 16 -17 16 -18 -2 -16 -10 2 -19 8 -19 14 -1 7 -2 17 -3 23 0 5 -6 7
-12 3 -8 -4 -8 0 0 15 14 26 -3 29 -19 4 -8 -14 -10 -14 -9 -3 4 43 -2 59 -23
62 -15 2 -22 9 -20 20 2 11 -5 18 -20 20 -17 2 -22 9 -20 26 3 17 -2 22 -17
22 -14 0 -21 6 -21 20 0 13 -7 20 -20 20 -14 0 -20 6 -18 18 2 12 -5 18 -27
20 -16 2 -34 8 -40 14 -7 8 -6 9 3 4 7 -4 12 -1 12 8 0 10 -9 16 -24 16 -19 0
-23 4 -19 20 4 15 0 20 -16 20 -14 0 -21 6 -21 20 0 14 -7 20 -25 21 -41 2
-45 4 -43 14 1 6 8 9 15 7 7 -2 13 4 13 12 0 9 -7 13 -20 11 -11 -2 -21 0 -21
6 -1 5 -2 15 -3 21 0 7 -8 13 -16 14 -8 1 -27 2 -42 2 -21 2 -28 7 -28 22 0
12 -7 20 -16 20 -9 0 -18 9 -21 20 -3 11 -14 20 -24 20 -12 0 -19 7 -19 19 0
10 -6 19 -12 18 -55 -2 -70 3 -65 23 4 16 0 20 -19 20 -22 0 -30 13 -25 43 1
7 -48 12 -77 8 -10 -2 -12 4 -7 18 5 18 2 21 -19 21 -19 0 -26 5 -26 20 0 17
-7 20 -41 20 -36 0 -41 2 -36 20 4 17 0 20 -29 20 -19 0 -34 5 -34 11 0 8 -4
8 -13 0 -10 -8 -14 -7 -14 4 0 8 4 12 9 9 4 -3 8 0 8 5 0 6 -15 11 -34 11 -26
0 -33 4 -32 18 1 13 -8 18 -36 20 -31 3 -38 7 -38 25 0 18 -6 22 -37 25 -45 3
-65 18 -43 33 11 7 6 9 -17 5 -18 -2 -35 -1 -37 3 -3 4 -19 6 -35 5 -17 -1
-34 2 -37 8 -9 15 4 22 19 10 10 -9 14 -8 14 1 0 15 -8 16 -74 18 -24 1 -43 5
-43 11 0 5 4 7 9 4 5 -3 11 0 14 7 3 8 -11 13 -47 15 -28 1 -60 4 -71 7 -11 2
-23 4 -27 4 -15 2 -8 18 7 18 8 0 11 -5 8 -10 -3 -6 -1 -7 5 -3 22 13 12 23
-25 25 -82 5 -88 6 -85 19 3 17 -10 20 -93 26 -82 5 -75 4 -74 14 4 27 -4 32
-51 32 -27 0 -50 5 -50 10 0 6 -5 10 -11 10 -5 0 -8 -4 -5 -8 2 -4 -4 -8 -14
-8 -11 0 -17 2 -15 4 2 3 -2 10 -10 18 -8 9 -41 14 -94 15 -45 1 -81 6 -81 11
0 5 4 6 10 3 5 -3 17 -2 26 3 15 8 15 10 0 15 -10 4 -15 3 -11 -3 8 -13 -1
-13 -24 0 -10 5 -79 10 -153 11 -100 2 -135 6 -135 15 0 7 5 10 11 6 19 -12
35 -10 30 3 -7 18 -799 20 -810 3 -4 -6 -3 -8 3 -5 5 3 10 1 10 -6 0 -20 -69
-16 -87 4 -11 14 -19 16 -30 9 -13 -9 -12 -10 4 -8 10 2 21 -3 23 -9 4 -10
-17 -13 -82 -13 -76 0 -90 -3 -105 -20 -15 -18 -19 -18 -24 -5 -3 9 -2 13 3
10 5 -3 12 -1 15 3 10 17 -46 6 -58 -11 -10 -12 -30 -17 -85 -18 -39 -1 -74
-6 -77 -11 -3 -5 -13 -3 -22 4 -15 11 -15 11 -4 -3 8 -11 21 -15 35 -11 12 3
18 1 14 -4 -8 -9 -23 -11 -124 -15 -61 -3 -81 -17 -51 -35 8 -5 9 -1 5 12 -7
18 -6 18 6 2 8 -10 16 -17 18 -15 2 1 3 0 1 -3 -3 -5 -20 -6 -114 -9 -41 -1
-48 -4 -48 -21 0 -18 -7 -20 -66 -20 -39 0 -63 -4 -59 -10 3 -5 12 -7 20 -3 8
3 15 0 15 -5 0 -6 -9 -9 -20 -7 -11 2 -20 -1 -20 -7 0 -6 -9 -8 -20 -5 -11 3
-22 2 -25 -3 -2 -4 -18 -6 -34 -4 -17 2 -33 0 -35 -5 -3 -5 0 -8 7 -7 6 0 13
-3 15 -9 2 -10 -1 -11 -80 -17 -36 -2 -44 -6 -36 -15 12 -15 22 -17 13 -3 -9
15 1 12 13 -3 9 -11 5 -13 -21 -12 -36 1 -60 -12 -50 -28 3 -6 1 -7 -6 -3 -6
4 -9 12 -6 17 4 5 -1 9 -9 9 -9 0 -16 -8 -16 -19 0 -16 -8 -20 -37 -23 -31 -2
-39 -7 -41 -25 -4 -26 -12 -29 -31 -10 -11 10 -13 10 -7 0 7 -12 -10 -18 -41
-14 -7 1 -13 -7 -13 -19 0 -16 -6 -20 -30 -20 -16 0 -30 -5 -30 -11 0 -5 4 -8
8 -5 5 3 9 0 9 -7 0 -7 -16 -13 -35 -14 -33 -2 -56 -19 -46 -34 2 -4 -16 -6
-41 -6 -41 0 -45 3 -45 24 0 17 -4 22 -12 17 -10 -6 -10 -4 0 7 13 14 16 30 5
28 -23 -4 -33 3 -33 21 0 13 -7 20 -20 20 -15 0 -20 7 -20 25 0 18 -5 25 -20
25 -15 0 -20 7 -20 25 0 17 -4 23 -14 19 -8 -3 -17 0 -22 7 -4 8 -3 10 4 5 7
-4 12 -2 12 4 0 6 5 8 12 4 7 -4 8 -3 4 5 -4 6 -12 9 -17 5 -6 -3 -17 2 -25
12 -9 11 -13 14 -10 8 3 -6 -1 -11 -8 -11 -8 0 -13 7 -11 16 1 9 -3 22 -9 30
-6 8 -10 17 -9 20 2 3 -3 7 -10 7 -6 1 -17 2 -23 3 -7 0 -11 9 -10 18 0 10 -6
18 -14 18 -8 0 -18 13 -21 30 -4 17 -7 24 -8 16 -1 -10 -7 -7 -21 9 -11 12
-17 27 -14 31 3 5 -4 9 -15 9 -14 0 -21 6 -21 19 0 13 -8 21 -22 23 -16 2 -22
9 -20 21 2 11 -4 17 -18 17 -13 0 -20 7 -20 20 0 15 -7 20 -29 20 -17 0 -33 5
-37 12 -4 7 -3 8 4 4 7 -4 12 -1 12 8 0 11 -9 16 -29 16 -16 0 -35 8 -42 18
-11 14 -11 15 1 5 19 -17 30 -16 30 3 0 9 -9 18 -20 21 -18 5 -24 15 -21 35 0
4 -7 7 -17 7 -25 0 -47 6 -49 14 -6 16 -2 19 12 7 10 -9 15 -9 15 -1 0 10 -13
15 -32 12 -5 0 -8 3 -8 8 0 5 -10 7 -22 3 -17 -4 -20 -2 -15 11 7 18 -19 37
-40 30 -6 -2 -13 6 -15 19 -2 15 -9 22 -20 20 -13 -2 -18 4 -18 19 0 12 -3 19
-6 16 -4 -3 -16 -1 -28 5 -11 7 -25 11 -29 10 -5 -1 -6 2 -2 8 3 5 1 10 -4 10
-6 0 -11 9 -11 20 0 12 -7 20 -17 20 -15 0 -16 -2 -3 -10 13 -8 12 -10 -3 -10
-14 0 -17 5 -12 20 5 17 2 20 -20 20 -22 0 -26 4 -22 20 4 17 0 20 -26 21 -18
1 -36 1 -42 -1 -5 -1 -4 4 3 11 6 7 12 18 12 24 0 5 -5 3 -10 -5 -6 -10 -10
-11 -10 -2 0 7 -13 12 -30 12 -23 0 -30 4 -30 20 0 16 -7 20 -32 21 -18 0 -27
3 -20 6 15 6 16 33 1 33 -5 0 -7 -4 -4 -10 3 -5 1 -10 -4 -10 -6 0 -11 5 -11
10 0 6 -12 10 -26 10 -22 0 -25 4 -21 21 6 23 -2 28 -52 32 -20 1 -36 9 -38
17 -4 13 -3 13 6 0 8 -12 13 -12 23 -2 6 6 10 12 7 13 -2 0 -13 3 -24 5 -11 3
-28 5 -37 5 -11 0 -18 8 -18 20 0 15 -7 19 -31 19 -21 0 -28 4 -23 13 6 10 4
10 -7 0 -18 -17 -34 -17 -20 0 14 17 4 27 -25 27 -17 0 -22 5 -19 18 3 16 -5
19 -58 21 -69 2 -77 6 -57 24 7 6 10 7 7 1 -3 -6 0 -11 7 -11 7 0 13 6 13 12
0 7 -7 12 -16 12 -51 0 -60 4 -63 26 -2 12 -10 22 -18 23 -8 1 -28 2 -43 2
-23 2 -27 6 -22 21 4 15 1 19 -13 18 -10 0 -19 -7 -19 -14 0 -6 4 -10 9 -7 4
3 8 0 8 -5 0 -19 -22 -12 -27 9 -5 18 -38 27 -75 21 -12 -2 -10 13 3 26 7 7 5
10 -8 10 -52 0 -86 4 -80 9 13 13 -23 34 -57 34 -21 0 -36 5 -36 12 0 9 -3 9
-12 0 -13 -13 -32 -16 -24 -4 11 18 -12 30 -62 34 -29 2 -52 7 -52 11 0 4 0 9
0 12 0 3 9 1 20 -5 15 -8 18 -8 14 3 -3 8 -24 14 -57 16 -28 1 -55 8 -59 14
-6 9 -8 9 -8 0 0 -7 -4 -13 -10 -13 -5 0 -9 10 -7 23 2 18 -3 22 -28 24 -99 5
-122 9 -122 20 0 9 4 10 13 2 8 -7 14 -7 19 1 3 5 5 10 3 11 -8 3 -97 9 -130
9 -30 0 -38 4 -38 18 0 12 -8 18 -22 19 -109 4 -158 9 -155 17 2 5 9 12 17 14
7 3 10 0 7 -5 -3 -5 3 -9 14 -9 12 0 15 4 9 10 -5 5 -51 11 -102 13 -58 3 -95
8 -100 16 -6 9 -8 9 -8 0 0 -15 -57 -14 -70 2 -7 8 -5 12 5 12 8 0 12 -4 9 -9
-3 -4 -1 -8 4 -8 6 0 12 6 15 13 3 9 -21 13 -97 14 -206 5 -306 10 -311 14 -2
3 4 5 13 5 9 1 26 5 36 9 12 5 17 5 14 -1 -4 -5 9 -10 28 -10 19 0 34 4 34 8
0 5 -10 6 -21 3 -13 -4 -19 -3 -16 2 4 6 -154 10 -423 11 -293 0 -430 -3 -430
-10 0 -5 7 -8 15 -4 22 8 18 -2 -5 -14 -11 -6 -20 -7 -19 -3 4 23 -5 29 -45
28 -26 0 -42 -4 -39 -10z m838 -5 c3 -6 -1 -7 -9 -4 -18 7 -21 14 -7 14 6 0
13 -4 16 -10z m-695 -10 c0 -5 -5 -10 -11 -10 -5 0 -7 5 -4 10 3 6 8 10 11 10
2 0 4 -4 4 -10z m1074 -36 c3 -8 2 -12 -4 -9 -6 3 -10 10 -10 16 0 14 7 11 14
-7z m234 -41 c-12 -15 -22 -18 -14 -4 4 5 0 11 -6 14 -7 3 -3 4 9 4 17 -1 19
-4 11 -14z m-2107 -46 c-10 -9 -11 -8 -5 6 3 10 9 15 12 12 3 -3 0 -11 -7 -18z
m2282 9 c4 -10 1 -13 -8 -9 -8 3 -12 9 -9 14 7 12 11 11 17 -5z m-2443 -37 c0
-5 -4 -7 -10 -4 -5 3 -10 1 -10 -6 0 -7 -3 -10 -6 -6 -8 7 4 27 17 27 5 0 9
-5 9 -11z m-128 -61 c-7 -7 -12 -8 -12 -2 0 14 12 26 19 19 2 -3 -1 -11 -7
-17z m2858 2 c0 -5 -2 -10 -4 -10 -3 0 -8 5 -11 10 -3 6 -1 10 4 10 6 0 11 -4
11 -10z m-2974 -32 c4 -7 3 -8 -4 -4 -7 4 -12 2 -12 -4 0 -6 -5 -8 -11 -4 -8
4 -7 9 2 15 18 11 17 11 25 -3z m3311 -90 c-3 -8 -6 -5 -6 6 -1 11 2 17 5 13
3 -3 4 -12 1 -19z m-3527 2 c0 -5 -2 -10 -4 -10 -3 0 -8 5 -11 10 -3 6 -1 10
4 10 6 0 11 -4 11 -10z m3826 -117 c-2 -9 -9 -19 -17 -21 -11 -3 -11 -1 1 7
13 10 13 11 0 11 -13 0 -13 1 0 10 19 12 19 13 16 -7z m167 -88 c1 -5 -7 -11
-18 -12 -11 -2 -14 0 -6 3 11 5 11 8 0 16 -11 7 -10 8 4 6 10 -2 19 -7 20 -13z
m-4573 -71 c0 -8 -19 -13 -24 -6 -3 5 1 9 9 9 8 0 15 -2 15 -3z m4697 -11 c0
-9 -4 -10 -14 -2 -7 6 -13 12 -13 14 0 1 6 2 13 2 8 0 14 -6 14 -14z m-2844
-28 c-3 -9 -8 -14 -10 -11 -3 3 -2 9 2 15 9 16 15 13 8 -4z m127 3 c0 -5 5 -8
11 -8 5 0 8 4 5 9 -4 5 122 8 302 7 285 -1 307 -2 306 -18 -1 -10 3 -15 8 -12
5 3 7 12 4 20 -4 9 2 14 15 14 13 0 18 -4 13 -12 -5 -7 -3 -8 7 -2 8 5 42 9
75 9 48 0 61 -2 56 -13 -4 -11 -6 -11 -13 0 -7 10 -9 10 -9 1 0 -7 -5 -13 -11
-13 -5 0 -8 4 -5 9 4 5 -2 8 -11 7 -9 -2 -19 -9 -21 -17 -3 -12 -2 -12 6 0 6
8 12 9 15 3 6 -8 82 -12 279 -15 26 -1 44 -5 42 -9 -3 -5 -9 -6 -14 -3 -4 3
-6 -4 -3 -15 3 -11 14 -20 25 -20 10 0 16 5 13 10 -4 6 -11 8 -16 5 -17 -11
-9 2 14 21 12 10 17 12 10 5 -21 -24 9 -39 83 -42 54 -2 72 -6 82 -21 11 -14
27 -18 83 -18 42 0 69 -4 69 -11 0 -5 -4 -8 -8 -5 -5 3 -9 -1 -9 -8 0 -7 6
-13 13 -13 7 0 11 3 9 7 -2 3 0 12 6 20 7 12 9 10 9 -7 0 -21 4 -23 61 -23 37
0 58 -4 54 -10 -8 -13 8 -13 21 0 6 6 15 5 24 -1 13 -10 13 -10 0 -6 -9 3 -25
-2 -35 -10 -20 -14 -20 -15 0 -13 11 1 44 2 73 1 45 -1 52 -4 52 -21 0 -23 10
-25 29 -7 11 10 13 10 7 0 -5 -9 1 -13 18 -13 14 0 26 -6 27 -12 0 -10 2 -10
6 0 2 6 9 12 14 12 6 0 7 -4 4 -10 -3 -5 1 -10 10 -10 9 0 13 -4 10 -10 -4 -6
13 -10 43 -10 47 0 49 -1 45 -24 -4 -19 -1 -25 13 -24 26 1 95 -10 100 -15 3
-3 -2 -7 -11 -11 -11 -4 -14 -2 -9 6 4 7 3 8 -5 4 -19 -12 -4 -23 33 -21 33 1
53 -16 41 -34 -2 -4 2 -8 10 -8 8 0 12 4 9 9 -3 4 1 8 8 9 7 0 4 4 -7 9 -15 7
-16 9 -4 9 9 1 23 -7 30 -16 12 -15 12 -16 -1 -8 -11 6 -12 5 -4 -4 6 -6 27
-12 47 -13 20 -1 34 -4 32 -8 -9 -14 13 -29 48 -33 44 -5 55 -12 32 -21 -9 -3
-13 -2 -10 4 3 6 -1 7 -9 4 -27 -10 -18 -19 21 -21 20 -1 39 -7 43 -14 5 -8
10 -8 14 -1 4 6 13 9 22 5 8 -3 12 -8 10 -11 -10 -10 15 -31 30 -25 10 4 14
-2 14 -21 0 -21 5 -26 26 -26 19 0 25 -4 21 -15 -4 -8 -2 -17 4 -20 5 -4 9 -3
8 2 -3 19 2 33 11 33 6 0 10 -8 8 -17 -2 -13 6 -19 32 -24 19 -4 29 -7 23 -8
-20 -2 -15 -31 5 -31 13 0 14 2 4 9 -11 7 -11 9 2 14 9 4 15 1 13 -6 -1 -7 10
-13 26 -15 15 -2 27 -8 27 -14 0 -5 -8 -7 -17 -4 -15 5 -15 4 1 -9 11 -8 26
-15 34 -15 21 0 45 -27 29 -34 -6 -4 -2 -4 11 -2 17 3 24 -2 28 -21 5 -18 9
-21 15 -12 5 8 3 17 -4 21 -8 5 -6 8 7 8 13 0 17 -5 13 -20 -4 -16 0 -20 19
-20 19 0 24 -5 24 -26 0 -21 4 -25 19 -21 14 3 21 -2 26 -20 4 -19 11 -24 25
-20 11 3 22 1 25 -4 3 -4 13 -5 22 -2 15 6 16 5 3 -9 -11 -11 -17 -13 -23 -4
-6 7 -7 6 -4 -4 4 -15 7 -17 52 -19 19 -1 25 -6 25 -25 0 -19 4 -23 20 -19 15
4 20 0 20 -15 0 -14 8 -22 23 -24 14 -2 21 -9 19 -20 -2 -11 5 -18 20 -20 17
-2 22 -9 20 -26 -2 -12 0 -22 5 -21 27 5 43 -3 43 -21 0 -13 7 -20 20 -20 18
0 25 -10 21 -32 0 -5 10 -8 23 -8 19 0 23 -4 19 -20 -4 -16 0 -20 20 -20 21 0
24 -4 19 -22 -4 -17 -2 -20 11 -15 17 6 42 -24 30 -37 -3 -3 3 -6 15 -6 21 0
26 -9 23 -36 -1 -6 7 -18 16 -25 16 -13 17 -12 5 3 -11 14 -11 16 7 11 12 -3
21 -14 21 -24 0 -10 5 -21 12 -25 7 -4 8 -3 4 4 -5 8 -2 10 8 6 9 -3 16 -15
16 -25 0 -12 7 -19 20 -19 11 0 20 -5 20 -11 0 -5 -4 -8 -8 -5 -4 2 -14 0 -22
-6 -13 -8 -12 -9 2 -5 19 7 37 -11 33 -34 -2 -9 3 -16 11 -16 10 0 11 4 3 14
-11 12 -8 16 8 11 8 -3 14 -25 14 -50 0 -10 3 -17 7 -17 24 4 32 -4 32 -32 0
-25 3 -29 13 -20 16 13 27 5 27 -20 0 -11 9 -19 23 -21 13 -2 22 -10 22 -20 0
-9 3 -20 7 -23 4 -4 4 -13 2 -20 -4 -8 3 -15 18 -17 15 -2 22 -9 20 -20 -2
-12 4 -18 18 -18 19 0 25 -20 23 -78 -1 -7 5 -11 13 -8 16 6 23 -4 26 -38 2
-17 6 -22 12 -16 15 15 26 12 20 -4 -3 -8 -1 -17 4 -20 6 -3 8 -15 5 -26 -4
-15 0 -20 16 -20 16 0 21 -6 21 -26 0 -16 4 -23 11 -18 8 4 8 1 1 -13 -9 -15
-7 -19 8 -20 13 -1 17 3 13 13 -3 8 -1 14 4 14 5 0 10 -17 11 -37 3 -36 18
-57 34 -47 4 3 8 0 8 -6 0 -6 -7 -10 -16 -8 -10 2 -19 -3 -22 -11 -3 -9 1 -11
17 -6 18 5 21 2 21 -19 0 -24 4 -26 40 -26 22 0 40 5 40 11 0 5 -6 7 -12 3 -9
-5 -9 -2 1 9 7 9 22 17 32 17 12 0 19 7 19 20 0 13 7 20 20 20 15 0 20 7 20
26 0 19 4 25 15 20 8 -3 21 1 29 9 7 8 17 11 22 7 5 -4 2 1 -5 11 -12 15 -11
17 12 17 17 0 24 5 23 18 -1 12 8 18 34 22 33 5 54 29 27 31 -6 1 4 4 23 8 26
5 34 11 32 24 -3 17 9 20 70 20 10 0 15 4 12 8 -3 5 -10 7 -15 4 -5 -4 -9 0
-9 7 0 10 -3 9 -11 -2 -9 -13 -10 -13 -6 0 2 8 12 15 23 16 63 3 64 4 64 29 0
20 5 25 28 26 15 1 33 1 40 0 6 -1 12 3 12 9 0 6 -3 9 -7 7 -5 -3 -14 1 -21 9
-10 11 -10 14 5 12 46 -4 63 2 63 22 0 17 7 20 49 20 44 0 49 2 44 20 -5 18 0
20 35 20 23 0 44 5 48 12 4 6 3 8 -3 5 -5 -3 -10 0 -10 8 0 8 3 14 6 13 3 0
23 0 44 1 29 1 37 5 37 20 0 15 8 19 42 19 24 1 44 6 46 11 2 6 8 11 13 11 6
0 7 -6 3 -12 -5 -9 -3 -9 9 1 19 15 13 33 -8 24 -8 -3 -15 -1 -15 4 0 9 10 10
85 14 27 1 35 5 35 20 0 16 8 19 48 20 26 1 52 2 57 4 6 1 16 3 24 3 10 2 11
5 2 15 -12 15 -16 14 72 18 31 1 57 7 57 12 0 5 7 4 15 -3 13 -11 14 -10 9 4
-7 19 -16 20 -33 4 -11 -11 -13 -10 -9 2 5 16 11 17 111 19 40 1 67 5 67 12 0
5 -6 7 -12 4 -7 -4 -6 0 3 7 10 8 47 15 90 16 40 2 80 9 88 15 11 9 13 9 8 0
-5 -8 11 -11 58 -10 64 2 81 9 49 21 -8 3 -13 2 -10 -3 3 -4 -4 -8 -16 -7 -12
0 -23 7 -24 14 -1 7 0 8 3 2 2 -5 9 -10 14 -10 6 0 8 3 5 8 -2 4 21 7 52 7 42
0 56 -4 54 -13 -1 -8 2 -11 8 -7 6 3 8 10 5 16 -4 5 89 8 227 8 202 -1 236 -3
253 -17 18 -15 18 -15 7 -1 -11 15 -8 17 23 16 19 -1 35 -5 35 -9 0 -4 5 -8
11 -8 5 0 8 4 5 8 -3 5 1 9 9 9 8 0 15 -4 15 -9 0 -4 5 -8 11 -8 5 0 8 4 5 8
-3 5 1 9 9 9 22 0 -2 -25 -28 -30 -12 -2 -4 -4 18 -3 22 1 46 5 54 10 9 6 12
5 8 -1 -4 -6 4 -11 21 -11 114 0 189 -8 189 -19 0 -9 -4 -10 -14 -2 -7 6 -13
9 -13 5 0 -3 0 -9 0 -13 0 -8 5 -8 127 -14 40 -2 69 -6 65 -9 -16 -11 -11 -30
8 -30 11 0 20 5 20 11 0 5 -5 7 -12 3 -7 -5 -8 -3 -3 6 7 11 10 10 19 -1 13
-16 21 -18 85 -21 31 -2 48 -7 48 -16 0 -9 -4 -9 -11 -2 -12 12 -29 13 -22 1
4 -5 0 -11 -6 -14 -7 -2 16 -5 52 -6 43 -1 70 -7 80 -17 13 -13 13 -14 -5 -8
-11 4 -17 4 -13 -1 7 -7 46 -13 110 -17 15 0 27 -4 26 -7 -3 -29 4 -41 27 -41
14 0 25 -6 26 -12 0 -10 2 -10 6 0 7 17 20 15 27 -4 3 -8 2 -12 -4 -9 -6 3
-10 1 -10 -4 0 -6 22 -11 51 -11 46 0 51 -2 46 -20 -5 -18 0 -20 39 -20 37 0
44 -3 44 -20 0 -16 7 -20 33 -21 17 -1 36 -1 41 0 5 1 6 -5 3 -13 -7 -18 2
-25 37 -28 17 -2 22 -6 16 -12 -13 -13 -13 -26 1 -26 5 0 8 4 5 8 -2 4 4 13
15 20 10 7 19 9 18 5 -4 -23 3 -33 22 -33 11 0 17 -4 14 -10 -3 -5 -1 -10 6
-10 8 0 8 -4 -1 -15 -11 -13 -8 -15 19 -16 17 -1 36 -3 41 -4 6 -1 13 -3 16
-4 3 0 2 -6 -1 -11 -5 -8 -11 -8 -19 -1 -9 8 -13 7 -13 -3 0 -7 7 -13 16 -13
52 0 62 -4 59 -20 -2 -13 4 -18 22 -18 20 -1 24 -5 22 -21 -2 -17 2 -21 23
-19 14 2 25 -1 25 -7 0 -5 9 -6 20 -3 15 5 20 2 20 -12 0 -11 -3 -14 -8 -7 -5
9 -11 8 -21 -3 -11 -12 -11 -14 0 -12 44 6 69 -2 69 -21 0 -13 7 -20 20 -20
15 0 20 -7 20 -25 0 -18 5 -25 20 -25 13 0 20 -7 20 -20 0 -14 7 -20 24 -20
20 0 23 -4 19 -21 -5 -19 -3 -21 20 -17 23 4 27 2 27 -18 0 -19 5 -24 24 -24
14 0 28 -5 32 -12 4 -7 3 -8 -4 -4 -7 4 -12 1 -12 -10 0 -11 6 -15 20 -11 18
5 26 -7 21 -35 0 -5 8 -8 19 -8 19 0 24 -10 21 -37 -1 -6 3 -14 9 -18 5 -3 10
-1 10 5 0 6 5 8 10 5 6 -3 10 -15 10 -27 0 -15 5 -19 19 -15 16 4 21 -1 23
-22 2 -21 8 -25 26 -23 20 3 23 0 20 -20 -2 -18 1 -23 20 -22 23 1 30 -10 12
-21 -5 -3 -10 -1 -10 5 0 6 -5 8 -11 5 -13 -9 -6 -16 18 -19 12 -2 17 -10 15
-25 -2 -12 0 -21 5 -20 24 4 33 -4 33 -30 0 -17 5 -33 12 -37 7 -4 8 -3 4 4
-4 7 -1 12 8 12 10 0 16 -9 16 -26 0 -21 3 -24 21 -19 14 5 20 3 18 -7 -6 -44
2 -68 21 -68 11 0 20 -7 20 -15 0 -8 11 -25 25 -39 22 -22 32 -58 26 -90 -1
-5 5 -3 14 4 22 19 29 6 8 -16 -17 -17 -17 -17 0 -11 13 5 17 1 17 -19 0 -20
4 -25 18 -22 13 4 18 -1 20 -20 1 -14 9 -33 18 -43 17 -18 22 -37 23 -81 1
-21 6 -28 21 -28 12 0 20 -7 20 -16 0 -14 -2 -15 -17 -3 -17 13 -17 13 0 -7 9
-11 17 -28 17 -37 0 -9 5 -17 10 -17 6 0 10 -5 10 -11 0 -5 -4 -8 -8 -5 -5 3
-9 -2 -9 -11 0 -13 4 -12 18 5 l17 22 -1 -23 c0 -12 2 -39 4 -59 3 -32 7 -38
26 -38 21 0 23 -5 24 -50 2 -70 3 -73 16 -77 8 -3 11 4 8 18 -2 12 -1 19 2 15
4 -4 9 -18 11 -33 2 -19 -1 -24 -12 -20 -9 4 -18 1 -22 -5 -4 -6 -3 -8 2 -5
22 13 33 -12 36 -76 1 -37 6 -67 9 -67 4 0 6 17 5 38 -1 22 3 39 9 39 6 0 11
-38 13 -96 3 -87 13 -118 33 -106 3 3 6 -9 7 -25 1 -27 -7 -35 -30 -31 -5 0
-8 -4 -8 -10 0 -6 9 -8 20 -4 19 6 20 2 20 -70 0 -55 3 -74 12 -69 8 5 8 3 2
-7 -9 -15 -13 -108 -4 -107 18 1 30 -4 30 -13 0 -6 -8 -8 -17 -5 -17 6 -17 5
0 -8 16 -13 18 -37 16 -334 -2 -212 -6 -319 -12 -315 -7 4 -8 -1 -3 -12 5 -15
4 -16 -9 -5 -12 10 -15 10 -15 -4 0 -12 10 -16 40 -16 36 0 44 -6 42 -30 0 -3
27 -6 60 -7 57 -1 84 -14 72 -34 -2 -4 0 -11 6 -14 6 -4 10 -3 9 2 -4 21 2 25
14 10 8 -12 29 -18 73 -20 46 -1 60 -5 56 -15 -4 -11 -7 -11 -12 -2 -9 14 -30
4 -29 -13 0 -9 2 -8 6 1 2 6 10 9 16 5 15 -9 32 -12 75 -15 27 -1 33 -5 29
-20 -4 -15 1 -18 39 -18 37 0 44 -3 42 -17 -2 -14 6 -19 42 -23 30 -3 45 -10
45 -19 0 -9 13 -16 35 -19 19 -2 36 -7 38 -10 9 -24 23 -33 53 -35 25 -1 35
-7 35 -18 0 -10 -6 -15 -13 -12 -7 3 -10 10 -6 17 3 6 2 7 -2 3 -14 -12 -15
-38 -2 -36 7 1 26 1 44 0 27 -1 30 -4 25 -23 -4 -18 -2 -20 16 -16 12 4 24 2
27 -2 3 -5 14 -7 24 -5 10 2 18 -3 18 -11 0 -10 -4 -11 -14 -3 -7 6 -13 9 -13
5 0 -3 0 -9 0 -13 0 -4 12 -8 27 -10 44 -6 53 -11 47 -28 -4 -10 0 -15 15 -15
14 0 21 -6 21 -18 0 -10 6 -19 13 -20 41 -3 55 -7 51 -14 -3 -4 0 -8 6 -8 6 0
9 -3 6 -8 -2 -4 7 -12 20 -19 13 -6 22 -7 18 -2 -3 5 0 9 6 9 6 0 10 -8 9 -17
-3 -34 1 -41 20 -36 15 4 20 -1 23 -19 2 -15 9 -22 21 -20 11 2 17 -4 17 -18
0 -13 7 -20 20 -20 13 0 20 -7 20 -20 0 -13 7 -20 20 -20 13 0 20 -7 20 -20 0
-13 7 -20 20 -20 13 0 20 -7 20 -19 0 -13 8 -21 22 -23 13 -2 24 -11 26 -22 3
-13 0 -16 -9 -11 -8 5 -10 4 -5 -3 4 -7 14 -12 22 -12 8 0 14 -6 14 -12 0 -9
4 -8 10 2 7 11 10 7 11 -20 1 -19 1 -38 1 -41 -1 -3 6 -6 13 -6 11 0 12 4 4
14 -11 12 -8 16 8 11 7 -3 11 -16 15 -50 1 -10 10 -18 20 -18 11 0 18 -7 18
-20 0 -13 7 -20 20 -20 19 0 26 -23 21 -66 -1 -7 5 -14 12 -17 8 -3 14 1 14 9
0 7 -4 11 -9 8 -4 -3 -5 2 -2 10 8 21 21 20 21 -1 0 -66 3 -73 28 -73 25 0 30
-13 28 -67 -1 -7 3 -10 8 -7 5 3 9 0 9 -7 0 -7 3 -10 6 -7 3 4 1 15 -5 25 -7
14 -7 20 2 20 7 0 13 -16 15 -36 2 -34 18 -55 34 -45 7 4 13 -53 9 -78 0 -5 8
-8 19 -8 11 0 19 -3 19 -7 -1 -5 -1 -23 0 -40 1 -26 5 -33 21 -33 11 0 19 -3
19 -7 -5 -31 3 -93 12 -93 5 0 7 5 4 10 -3 6 0 10 7 10 13 0 16 -15 21 -106 1
-17 6 -21 24 -18 19 4 23 0 23 -21 0 -14 6 -25 13 -25 9 0 9 -2 0 -8 -7 -4
-11 -17 -10 -29 1 -17 5 -20 19 -12 10 6 18 6 17 2 -1 -4 -1 -36 0 -70 1 -58
2 -61 24 -57 l22 5 -22 -12 c-12 -6 -21 -20 -20 -30 1 -19 12 -16 12 4 0 5 5
12 11 14 6 2 12 -18 13 -54 2 -32 4 -71 5 -87 1 -16 8 -31 16 -33 9 -3 11 -1
5 4 -16 13 -16 33 -2 33 9 0 14 -12 15 -30 0 -17 -5 -30 -11 -30 -9 0 -9 -2 0
-8 8 -5 13 -38 14 -90 1 -46 6 -82 11 -82 6 0 8 7 5 15 -7 16 8 31 17 17 3 -5
-3 -20 -12 -33 -22 -31 -25 -74 -4 -56 9 7 10 13 3 15 -15 5 -14 19 2 25 10 4
14 -8 14 -44 2 -45 0 -49 -18 -44 -11 4 -19 2 -19 -4 0 -6 3 -10 8 -10 31 5
32 -1 32 -244 0 -181 -3 -246 -12 -256 -10 -11 -10 -13 0 -7 6 4 12 2 12 -3 0
-6 -8 -11 -18 -11 -10 0 -19 -7 -19 -15 0 -11 4 -12 11 -5 14 14 23 13 23 -5
0 -8 -4 -12 -9 -9 -4 3 -8 0 -8 -6 0 -6 -4 -9 -9 -6 -5 3 -9 -40 -10 -96 -2
-110 -4 -120 -26 -111 -10 3 -15 -1 -15 -13 0 -11 4 -15 8 -9 10 13 32 17 32
6 0 -5 -9 -13 -20 -16 -20 -6 -23 -30 -23 -148 0 -13 -5 -16 -19 -12 -10 4
-18 3 -17 -2 1 -4 1 -30 0 -56 -1 -42 -3 -48 -19 -43 -14 5 -18 1 -19 -16 -2
-78 -8 -118 -17 -118 -6 0 -5 -4 2 -9 11 -7 11 -9 -2 -14 -8 -3 -18 -1 -22 5
-4 6 -3 8 2 5 6 -3 10 3 11 13 1 10 -4 21 -11 23 -8 3 -13 -4 -13 -21 -1 -90
-4 -103 -20 -110 -20 -8 -27 -25 -24 -61 1 -20 -1 -22 -15 -11 -8 8 -14 9 -13
4 1 -5 0 -11 -1 -14 -6 -17 -12 -49 -12 -71 0 -21 -4 -25 -20 -21 -16 4 -19 0
-16 -19 2 -13 -2 -24 -9 -24 -17 0 -25 -11 -29 -37 -9 -67 -18 -88 -28 -63 -4
11 -2 14 6 9 7 -4 8 -3 4 5 -10 16 -26 4 -19 -14 3 -8 1 -15 -5 -15 -6 0 -8
-9 -5 -20 4 -16 0 -20 -21 -20 -21 0 -26 -5 -27 -27 -1 -16 -1 -32 0 -37 1 -5
-4 -4 -13 3 -11 9 -16 9 -22 0 -4 -7 -3 -10 2 -7 5 3 15 -1 23 -9 12 -13 11
-14 -8 -8 -18 5 -21 2 -21 -19 0 -19 -5 -26 -20 -26 -13 0 -20 -7 -20 -20 0
-13 -7 -20 -20 -20 -19 0 -23 -10 -23 -62 0 -10 -3 -15 -8 -13 -4 3 -14 -1
-21 -9 -9 -9 -20 -11 -30 -5 -10 5 -15 4 -15 -5 0 -7 7 -13 15 -12 8 0 17 -5
20 -13 3 -10 0 -12 -11 -8 -9 3 -19 2 -22 -4 -4 -5 -10 -7 -14 -5 -4 3 -8 -1
-8 -9 0 -8 4 -12 9 -9 4 3 8 0 8 -6 0 -6 -10 -10 -22 -8 -17 2 -24 -3 -26 -20
-2 -14 -9 -22 -20 -20 -9 2 -18 -6 -21 -20 -3 -13 -9 -23 -13 -23 -24 2 -28
-1 -28 -19 0 -13 -7 -20 -20 -20 -18 0 -25 -10 -21 -32 0 -5 -8 -8 -19 -8 -15
0 -20 -7 -20 -25 0 -14 -3 -24 -7 -24 -23 4 -33 -3 -33 -23 0 -18 -2 -20 -9
-8 -6 8 -7 19 -3 25 3 5 -3 3 -14 -5 -29 -22 -30 -24 -11 -17 9 4 17 2 17 -3
0 -10 -14 -13 -52 -13 -20 0 -24 -12 -8 -22 6 -3 10 -1 10 5 0 6 5 8 11 5 13
-9 6 -16 -18 -19 -10 -2 -18 -8 -18 -14 0 -6 -4 -14 -8 -19 -5 -4 -7 -2 -5 6
2 7 -3 16 -11 19 -10 3 -12 -1 -8 -18 5 -19 3 -21 -20 -17 -22 4 -24 2 -20
-19 4 -24 -2 -27 -65 -27 -10 0 -18 -6 -18 -15 0 -12 3 -12 15 -2 8 7 15 10
15 6 0 -3 0 -9 0 -13 0 -5 -4 -8 -9 -8 -5 0 -12 -3 -16 -7 -4 -3 -18 -4 -32
-2 -22 4 -25 2 -20 -16 6 -25 -2 -30 -47 -32 -19 -1 -33 -4 -31 -8 8 -14 -12
-29 -42 -32 -17 -1 -30 -6 -27 -10 3 -4 12 -4 22 -1 15 6 15 5 3 -10 -8 -10
-28 -17 -46 -17 -20 0 -35 -6 -39 -16 -3 -8 -2 -12 4 -9 6 3 10 1 10 -4 0 -6
-21 -11 -50 -11 -43 0 -50 -3 -50 -20 0 -16 -7 -20 -32 -20 -36 -1 -78 -25
-56 -32 7 -3 -5 -5 -26 -6 -44 -2 -46 -3 -50 -28 -3 -20 -33 -28 -33 -8 0 7 5
12 10 11 5 -1 11 3 13 8 2 6 -4 11 -15 11 -11 0 -19 -3 -19 -6 3 -31 -4 -40
-33 -40 -21 0 -28 -4 -23 -12 6 -9 3 -9 -9 0 -14 12 -20 11 -39 -2 -12 -9 -18
-16 -12 -16 5 0 16 6 23 13 9 8 12 8 7 0 -3 -6 0 -14 6 -17 9 -4 8 -5 -2 -5
-60 4 -101 -2 -94 -13 5 -9 2 -9 -9 1 -17 13 -22 7 -18 -21 0 -3 -7 -5 -17 -4
-9 2 -15 7 -12 12 3 5 8 8 12 7 5 -2 8 1 8 6 0 6 -9 9 -19 8 -11 0 -19 -4 -19
-7 2 -25 -7 -29 -69 -32 -42 -2 -68 -8 -71 -15 -2 -7 1 -13 8 -13 6 0 9 4 6 8
-3 5 1 9 9 9 18 0 20 -13 3 -20 -7 -2 -58 -5 -113 -6 -135 -3 -139 -3 -147
-23 -7 -17 -310 -18 -5943 -18 -4750 0 -5935 2 -5929 12 6 10 4 11 -7 1 -18
-17 -49 -16 -49 1 0 20 -12 22 -135 25 -60 2 -129 4 -152 4 -23 1 -39 5 -36
10 2 4 9 5 14 2 5 -4 9 -1 9 5 0 6 4 9 9 5 5 -3 12 -2 14 2 3 5 -34 9 -82 11
-114 4 -126 7 -124 23 3 14 -15 17 -115 22 -20 1 -21 2 -7 16 14 14 17 14 26
1 9 -13 10 -13 6 0 -2 8 -15 16 -28 16 -117 6 -135 9 -135 25 0 8 6 16 12 16
7 0 10 -7 7 -16 -4 -14 -4 -14 6 -1 15 21 14 29 -6 28 -42 -1 -117 6 -106 9
27 9 -1 33 -38 33 -32 0 -39 3 -39 20 0 17 -7 20 -45 20 -38 0 -45 3 -43 17 2
10 -5 19 -16 21 -11 2 -28 14 -37 26 -10 11 -18 15 -19 9 0 -7 5 -13 10 -13 6
0 10 -4 10 -10 0 -18 -22 -10 -27 10 -3 12 -14 20 -29 21 -13 1 -28 3 -34 4
-5 1 -13 3 -16 4 -3 0 -2 6 1 11 5 8 11 8 19 1 9 -8 13 -7 13 2 0 8 -15 14
-40 16 -51 3 -56 6 -49 33 4 18 2 20 -16 16 -12 -4 -22 -2 -22 3 0 6 -7 9 -16
7 -10 -2 -19 3 -21 10 -3 6 0 12 7 12 6 0 8 -5 4 -12 -5 -9 -2 -9 9 1 20 16
21 17 5 18 -56 4 -68 9 -68 26 0 14 -5 18 -20 14 -16 -4 -20 0 -20 17 0 23 -5
25 -61 28 -19 2 -26 7 -25 23 1 16 -4 19 -23 17 -18 -3 -22 0 -18 11 6 16 -9
35 -28 36 -5 1 -11 6 -11 11 -1 6 -2 15 -3 20 0 6 -10 10 -20 10 -13 0 -21 8
-23 23 -2 15 -9 21 -22 19 -15 -3 -18 1 -13 17 4 17 0 21 -19 21 -17 0 -24 6
-24 20 0 15 -7 20 -25 20 -24 0 -32 18 -25 55 1 6 -4 4 -11 -2 -19 -19 -29
-16 -29 7 0 13 -7 20 -18 20 -10 0 -19 6 -19 13 -3 43 -8 67 -15 68 -4 1 -14
2 -20 3 -7 1 -12 11 -10 24 2 17 -2 22 -17 22 -15 0 -21 6 -21 24 0 19 -4 23
-20 19 -16 -4 -20 0 -20 21 0 22 -4 26 -24 22 -20 -4 -24 -1 -21 15 2 10 0 21
-5 24 -5 3 -6 13 -3 21 4 10 -2 17 -16 21 -13 3 -21 14 -22 29 -3 48 -12 64
-25 43 -4 -7 -3 -10 3 -6 5 3 10 0 10 -7 0 -28 -22 -11 -24 18 -2 43 -21 88
-33 81 -9 -5 -15 15 -11 38 0 4 -8 7 -19 7 -17 0 -20 7 -20 40 0 29 -5 42 -21
50 -11 6 -18 17 -16 23 2 7 -3 21 -12 31 -9 11 -10 16 -3 12 7 -4 12 -2 12 5
0 7 -10 9 -25 7 -17 -4 -25 -1 -25 9 0 9 5 11 13 7 9 -6 9 -5 1 7 -7 8 -14 33
-17 57 -4 39 -17 72 -17 44 0 -16 -16 -15 -17 1 -1 6 -2 38 -4 70 -1 33 -6 53
-10 46 -4 -7 -5 -17 -3 -21 3 -4 -1 -8 -9 -8 -10 0 -14 16 -16 57 -2 58 -20
88 -32 55 -5 -11 -7 -5 -6 16 0 17 4 32 9 32 5 0 7 -4 4 -9 -3 -5 0 -11 7 -14
7 -3 13 3 13 13 0 10 -3 17 -6 15 -15 -9 -28 14 -31 55 -2 25 -8 48 -14 52 -6
5 -6 8 3 8 6 0 12 5 12 11 0 6 -9 8 -22 4 l-23 -7 23 17 c21 15 22 42 1 29 -5
-3 -7 -10 -4 -15 4 -5 2 -9 -3 -9 -8 0 -16 93 -14 163 1 11 -4 15 -11 10 -9
-5 -9 -3 -1 8 14 18 14 51 0 46 -6 -2 -9 -13 -8 -23 2 -10 1 -16 -2 -13 -11
11 -16 50 -5 44 5 -4 9 -1 9 5 0 6 4 9 8 6 5 -3 9 1 9 9 0 8 -3 14 -6 13 -26
-2 -34 3 -23 14 7 7 12 17 12 22 0 6 -5 4 -10 -4 -7 -11 -10 -7 -10 18 0 19 5
32 13 33 9 0 9 2 -1 6 -9 4 -12 55 -12 220 1 179 3 213 15 203 10 -8 15 -8 21
1 4 7 3 9 -3 6 -17 -11 -30 15 -30 58 0 37 18 71 30 59 3 -3 6 37 6 90 1 75 4
100 18 115 19 23 21 33 24 119 1 34 6 62 11 62 4 0 8 -4 8 -10 0 -5 5 -10 10
-10 6 0 9 3 9 8 -1 4 -1 35 0 70 1 54 4 62 18 60 15 -3 18 6 21 52 3 50 16 75
32 65 4 -2 8 17 9 42 0 25 7 53 14 62 9 12 9 13 0 7 -8 -4 -13 -1 -13 8 0 12
5 14 25 6 19 -7 25 -7 24 3 -1 6 -1 27 0 45 1 25 5 32 21 32 19 0 23 10 23 63
0 10 7 17 18 17 16 0 19 8 19 45 0 25 3 44 8 44 22 -4 32 3 32 21 0 17 10 24
31 22 4 -1 6 7 6 16 0 46 4 63 13 57 18 -11 32 6 18 23 -10 12 -10 14 0 8 12
-7 13 -4 16 37 0 12 7 23 14 23 6 1 17 2 22 3 6 0 10 11 10 22 0 16 5 20 20
16 16 -4 20 0 20 18 0 15 8 25 23 30 13 4 17 8 10 12 -15 5 -18 24 -4 21 5 -2
10 2 11 7 3 17 22 35 31 29 8 -5 14 18 10 39 -1 5 8 6 19 2 17 -5 20 -2 20 25
0 27 3 32 20 27 16 -4 20 0 20 20 0 19 4 24 23 21 16 -2 23 3 25 19 2 14 11
23 25 25 12 2 22 10 22 18 0 8 9 18 20 21 12 3 19 12 17 22 -2 12 4 17 22 17
20 0 23 4 18 22 -4 17 -2 20 11 15 11 -4 20 1 27 13 6 12 17 17 28 14 14 -5
14 -4 2 4 -8 6 -18 8 -22 6 -4 -3 -8 0 -8 7 0 6 8 9 20 6 19 -5 23 1 21 33 0
10 1 11 5 3 3 -7 10 -13 15 -13 6 0 7 5 4 10 -4 6 -3 10 2 9 4 -1 20 -1 36 0
20 1 27 6 27 21 0 13 7 20 20 20 13 0 20 7 20 20 0 16 7 20 33 20 24 0 28 3
17 10 -13 8 -13 10 2 10 9 0 19 -6 22 -12 3 -7 3 -3 0 10 -4 18 -1 22 20 22
19 0 26 5 26 20 0 19 10 23 71 23 20 0 19 29 -1 35 -9 3 -11 -1 -6 -14 5 -15
4 -16 -5 -7 -13 13 -4 34 14 32 31 -4 81 2 72 9 -18 13 -17 35 1 28 9 -3 23
-1 30 5 7 6 18 8 24 4 6 -3 10 3 10 14 0 18 6 21 45 21 37 0 45 3 45 18 0 13
9 18 33 20 44 3 67 11 67 23 0 6 -4 7 -10 4 -6 -3 -10 -1 -10 4 0 9 73 17 103
12 5 -1 11 8 14 19 5 20 11 22 91 22 36 1 50 14 33 31 -9 9 -11 8 -6 -3 4 -11
-1 -16 -15 -17 -11 -1 -20 2 -20 8 0 5 5 9 11 9 5 0 8 4 5 8 -3 5 18 10 47 11
92 5 106 7 114 15 4 4 3 6 -2 4 -6 -2 -11 2 -13 7 -1 6 19 11 44 12 25 1 48 4
52 7 3 3 4 65 3 137 -1 94 -6 135 -15 145 -8 7 -16 11 -18 9 -3 -3 -5 2 -5 10
0 8 4 12 9 9 4 -3 8 -1 8 5 0 5 -4 12 -8 15 -4 2 -9 39 -9 81 -2 56 1 74 10
69 8 -5 8 -3 0 7 -15 16 -19 584 -4 575 14 -9 27 16 27 49 -1 23 -5 29 -18 27
-20 -3 -24 13 -7 24 8 4 7 9 -2 16 -11 8 -11 9 1 5 8 -2 14 -10 13 -16 -2 -6
1 -11 5 -11 5 0 9 50 10 112 2 102 12 145 32 133 4 -2 7 10 7 28 1 157 4 188
15 181 7 -5 8 -3 2 7 -15 25 -13 39 7 39 22 0 25 20 7 39 -10 11 -10 13 0 7
11 -7 15 20 15 106 0 10 4 15 8 12 5 -3 9 0 9 6 0 6 4 8 10 5 6 -4 10 18 10
59 0 65 6 76 26 56 7 -7 11 -7 11 2 4 96 8 126 15 122 4 -3 8 1 8 8 0 10 2 10
9 -1 10 -16 19 18 23 86 1 23 4 41 7 41 25 -2 31 6 31 42 0 23 5 40 11 40 8 0
8 4 0 14 -9 11 -9 16 0 22 7 4 10 3 7 -2 -3 -5 0 -14 6 -20 10 -9 13 -4 15 25
1 29 5 57 10 79 1 2 6 0 11 -3 8 -5 8 -11 1 -19 -8 -9 -7 -13 2 -13 13 0 14 7
18 95 1 43 2 45 11 19 5 -15 14 -24 20 -21 6 4 5 10 -3 16 -11 7 -11 11 -1 15
6 2 12 16 12 29 0 17 4 23 13 18 9 -5 9 -4 0 6 -17 18 -5 44 13 29 15 -12 14
-12 18 48 0 12 5 25 10 30 5 5 7 1 3 -9 -8 -21 3 -31 20 -17 7 6 13 26 13 44
0 24 5 34 20 38 11 3 20 9 19 14 -4 24 2 43 13 37 7 -5 8 -3 2 7 -4 8 -9 20
-10 27 -2 10 1 11 12 1 19 -16 26 -7 26 34 0 26 4 34 16 33 10 -1 18 8 20 22
3 20 13 27 35 23 4 -1 7 4 6 11 -1 7 -1 28 0 46 1 25 5 32 21 32 16 0 20 7 20
30 0 17 5 30 11 30 5 0 7 -4 4 -10 -3 -5 3 -10 14 -10 16 0 20 8 23 38 2 28 7
37 21 36 15 -2 22 14 18 40 -1 5 7 6 19 3 17 -4 20 0 20 28 0 28 3 32 20 28
12 -3 20 0 20 6 0 7 -4 10 -8 7 -4 -2 -14 0 -22 6 -12 8 -12 9 2 4 17 -5 36
15 36 39 1 12 22 20 22 8 0 -5 -5 -14 -10 -19 -7 -7 -6 -11 3 -11 8 0 14 5 14
11 4 54 9 66 25 66 17 0 22 10 19 36 -1 7 9 9 24 6 20 -3 25 0 25 17 0 14 6
21 19 21 14 0 21 8 23 28 2 19 8 26 21 24 11 -2 17 4 17 18 0 13 7 20 20 20
14 0 20 6 18 18 -2 11 4 18 20 20 16 2 22 10 22 27 0 18 4 22 20 18 12 -3 20
0 20 6 0 7 -5 9 -12 5 -9 -5 -9 -2 1 9 7 9 24 17 36 17 17 0 24 8 30 33 4 17
9 26 12 20 8 -22 23 -14 23 12 0 18 5 25 20 25 13 0 20 7 20 20 0 14 7 20 24
20 20 0 23 4 18 22 -4 18 -2 20 16 16 18 -5 22 -2 22 18 0 24 7 27 72 27 10 0
14 5 11 14 -5 12 -7 12 -14 1 -7 -10 -9 -10 -9 2 0 13 -1 13 -11 0 -8 -12 -10
-12 -7 -1 4 13 17 18 62 23 10 1 22 13 27 25 5 15 14 21 24 17 11 -5 15 1 15
20 0 19 5 26 20 26 18 0 25 11 21 33 -1 4 4 7 11 6 44 -5 68 2 68 21 0 15 7
20 25 20 19 0 25 5 25 21 0 11 5 17 10 14 6 -4 8 -10 5 -15 -3 -5 -1 -11 4
-15 6 -3 8 2 7 12 -2 10 2 24 10 31 8 7 14 8 14 2 0 -18 22 -11 27 10 3 11 14
20 24 20 12 0 19 7 19 19 0 15 7 19 29 19 36 -1 52 9 49 30 -2 13 5 18 30 20
57 4 61 5 59 16 -1 6 -6 14 -12 18 -5 4 6 8 25 9 19 1 41 3 49 3 8 1 16 8 18
16 4 13 3 13 -6 0 -8 -11 -11 -12 -11 -2 0 7 -4 10 -10 7 -5 -3 -10 -1 -10 5
0 6 6 10 13 9 35 -4 78 2 72 11 -11 18 6 32 23 18 12 -10 14 -10 8 0 -5 9 2
12 28 12 29 0 34 3 31 20 -3 13 2 20 12 20 9 0 13 -6 10 -15 -4 -8 -1 -17 6
-21 7 -4 9 -4 5 1 -16 17 11 41 45 40 22 -1 34 3 34 11 0 10 -4 11 -14 3 -7
-6 -13 -9 -13 -5 0 3 0 9 0 13 0 7 37 13 91 15 26 2 35 25 14 40 -8 6 39 11
117 11 11 0 15 6 13 18 -3 16 3 19 41 19 30 0 43 4 39 11 -4 6 -13 8 -19 6 -7
-3 -13 1 -13 8 0 10 5 11 18 4 24 -13 49 -12 29 1 -11 7 5 10 52 10 40 0 70 5
74 12 4 7 3 8 -4 4 -7 -4 -10 -2 -7 7 5 12 30 16 127 21 32 1 44 11 27 22 -8
5 -10 3 -4 -6 5 -8 3 -11 -5 -8 -23 7 -21 24 2 25 13 0 57 2 98 3 81 3 94 6
84 21 -3 6 -12 5 -22 -3 -13 -11 -14 -11 -10 2 5 16 12 17 137 21 69 2 80 5
66 15 -9 7 -26 11 -36 9 -11 -2 -17 0 -14 6 4 5 11 7 16 4 5 -4 9 -1 9 5 0 7
7 4 16 -5 9 -9 19 -13 22 -10 4 3 1 9 -6 14 -11 6 28 9 248 14 41 1 77 6 80
11 3 5 -3 10 -13 12 -9 1 -15 -2 -11 -7 3 -5 1 -9 -5 -9 -5 0 -12 6 -14 13 -4
9 -8 8 -16 -3 -6 -8 -11 -10 -11 -4 0 6 2 13 5 16 8 8 85 4 85 -4z m863 -1 c7
3 8 2 4 -2 -12 -13 -36 -15 -44 -3 -3 7 -1 8 5 4 7 -4 12 -1 13 6 0 10 2 10 6
0 2 -6 10 -9 16 -5z m-1443 -92 c0 -8 -4 -15 -10 -15 -5 0 -7 7 -4 15 4 8 8
15 10 15 2 0 4 -7 4 -15z m1887 -7 c-3 -8 -6 -5 -6 6 -1 11 2 17 5 13 3 -3 4
-12 1 -19z m-2182 -68 c3 -5 1 -10 -4 -10 -6 0 -11 5 -11 10 0 6 2 10 4 10 3
0 8 -4 11 -10z m2588 -45 c-3 -9 -8 -14 -10 -11 -3 3 -2 9 2 15 9 16 15 13 8
-4z m-2788 -34 c3 -5 1 -12 -5 -16 -5 -3 -10 -1 -10 6 0 8 -5 7 -17 -2 -16
-13 -17 -12 -4 4 15 19 27 22 36 8z m-142 -46 c-3 -9 -8 -14 -10 -11 -3 3 -2
9 2 15 9 16 15 13 8 -4z m3145 -9 c-7 -8 -15 -12 -17 -11 -5 6 10 25 20 25 5
0 4 -6 -3 -14z m1542 -212 c0 -8 -19 -13 -24 -6 -3 5 1 9 9 9 8 0 15 -2 15 -3z
m-5179 -41 c13 -16 12 -17 -3 -4 -17 13 -22 21 -14 21 2 0 10 -8 17 -17z
m-113 -88 c-3 -3 -9 2 -12 12 -6 14 -5 15 5 6 7 -7 10 -15 7 -18z m7496 -40
c-4 -8 -8 -15 -10 -15 -2 0 -4 7 -4 15 0 8 4 15 10 15 5 0 7 -7 4 -15z m61 6
c3 -5 2 -12 -3 -15 -5 -3 -9 1 -9 9 0 17 3 19 12 6z m615 5 c0 -2 -7 -6 -15
-10 -8 -3 -15 -1 -15 4 0 6 7 10 15 10 8 0 15 -2 15 -4z m39 -19 c0 -8 -2 -8
-6 1 -4 10 -8 10 -21 0 -15 -12 -16 -11 -3 4 14 19 32 15 30 -5z m-679 9 c0
-2 -7 -7 -16 -10 -8 -3 -12 -2 -9 4 6 10 25 14 25 6z m575 -6 c3 -6 -1 -7 -9
-4 -18 7 -21 14 -7 14 6 0 13 -4 16 -10z m-945 -43 c0 -7 -4 -6 -10 3 -8 12
-10 12 -10 1 0 -8 -3 -12 -6 -8 -9 9 6 28 17 22 5 -4 9 -12 9 -18z m1332 16
c-6 -3 -9 -10 -5 -16 4 -7 -1 -6 -10 2 -21 17 -21 17 6 18 12 0 16 -1 9 -4z
m-1775 -129 c-3 -3 -12 -4 -19 -1 -8 3 -5 6 6 6 11 1 17 -2 13 -5z m2271 -19
c-3 -3 -9 2 -12 12 -6 14 -5 15 5 6 7 -7 10 -15 7 -18z m-10273 -24 c3 -5 2
-12 -3 -15 -5 -3 -9 1 -9 9 0 17 3 19 12 6z m6948 -6 c-3 -9 -8 -14 -10 -11
-3 3 -2 9 2 15 9 16 15 13 8 -4z m-6990 -38 c7 3 8 2 4 -2 -14 -16 -36 -14
-29 3 4 10 7 12 10 4 2 -7 9 -9 15 -5z m10737 -81 c0 -2 -7 -7 -16 -10 -8 -3
-12 -2 -9 4 6 10 25 14 25 6z m-3200 -36 c0 -5 -5 -10 -11 -10 -5 0 -7 5 -4
10 3 6 8 10 11 10 2 0 4 -4 4 -10z m3283 -21 c-8 -8 -13 -7 -18 2 -5 8 -4 10
3 5 7 -4 12 -2 12 5 0 7 3 9 7 6 4 -4 2 -12 -4 -18z m-3371 -33 c7 4 8 2 4 -5
-9 -13 -26 -5 -25 12 0 9 2 8 6 -1 2 -6 10 -9 15 -6z m3458 10 c0 -2 -7 -7
-16 -10 -8 -3 -12 -2 -9 4 6 10 25 14 25 6z m-11079 -59 c-10 -9 -11 -8 -5 6
3 10 9 15 12 12 3 -3 0 -11 -7 -18z m-39 -39 c-7 -7 -12 -8 -12 -2 0 14 12 26
19 19 2 -3 -1 -11 -7 -17z m868 18 c0 -2 -7 -7 -16 -10 -8 -3 -12 -2 -9 4 6
10 25 14 25 6z m8929 -159 c-2 -1 -13 -9 -24 -17 -19 -14 -19 -14 -6 3 7 9 18
17 24 17 6 0 8 -1 6 -3z m-819 -13 c0 -8 -19 -13 -24 -6 -3 5 1 9 9 9 8 0 15
-2 15 -3z m-547 -119 c-3 -9 -8 -14 -10 -11 -3 3 -2 9 2 15 9 16 15 13 8 -4z
m-1556 -40 c0 -8 -4 -12 -9 -9 -5 3 -6 10 -3 15 9 13 12 11 12 -6z m4870 -10
c0 -17 -13 -20 -21 -6 -4 5 0 12 6 14 7 3 13 6 14 6 0 1 1 -6 1 -14z m-4660
-282 c0 -9 -4 -10 -14 -2 -7 6 -13 12 -13 14 0 1 6 2 13 2 8 0 14 -6 14 -14z
m5028 -92 c3 -5 0 -13 -6 -17 -7 -4 -9 -3 -5 4 3 5 0 13 -6 15 -9 4 -10 6 -1
6 6 1 14 -3 18 -8z m-898 -37 c-3 -3 -12 -4 -19 -1 -8 3 -5 6 6 6 11 1 17 -2
13 -5z m-10977 -85 c0 -5 -4 -9 -8 -9 -5 0 -9 7 -9 15 0 8 4 12 9 9 4 -3 8 -9
8 -15z m-38 -91 c-8 -8 -9 -4 -5 13 4 13 8 18 11 10 2 -7 -1 -18 -6 -23z
m-827 -218 c-5 -8 -11 -8 -17 -2 -6 6 -7 16 -3 22 5 8 11 8 17 2 6 -6 7 -16 3
-22z m13119 -68 c3 -5 -1 -9 -9 -9 -8 0 -12 4 -9 9 3 4 7 8 9 8 2 0 6 -4 9 -8z
m-697 -117 c0 -8 -4 -12 -9 -9 -5 3 -6 10 -3 15 9 13 12 11 12 -6z m778 -15
c-3 -5 -12 -10 -18 -10 -7 0 -6 4 3 10 19 12 23 12 15 0z m-13278 -45 c0 -6
-6 -12 -12 -12 -6 0 -12 6 -12 12 0 6 6 12 12 12 6 0 12 -6 12 -12z m663 -59
c0 -3 -4 -8 -10 -11 -5 -3 -10 -1 -10 4 0 6 5 11 10 11 6 0 10 -2 10 -4z
m12684 -62 c3 -8 2 -12 -4 -9 -6 3 -10 10 -10 16 0 14 7 11 14 -7z m-12738
-76 c0 -10 -1 -18 -3 -18 -1 0 -7 8 -12 18 -7 13 -6 19 2 19 7 0 13 -9 13 -19z
m12911 -292 c-3 -8 -2 -17 4 -20 5 -2 4 -3 -2 -2 -15 3 -21 36 -7 36 6 0 8 -6
5 -14z m-13688 -220 c-3 -3 -11 5 -18 17 -13 21 -12 21 5 5 10 -10 16 -20 13
-22z m653 17 c-6 -3 -9 -10 -5 -16 13 -21 13 -45 -1 -56 -11 -9 -13 -5 -12 26
2 41 14 69 25 57 3 -4 0 -9 -7 -11z m12416 -8 c-3 -3 -9 2 -12 12 -6 14 -5 15
5 6 7 -7 10 -15 7 -18z m-12454 -241 c3 -8 2 -12 -4 -9 -6 3 -10 10 -10 16 0
14 7 11 14 -7z m-9 -24 c3 -5 1 -10 -4 -10 -6 0 -11 5 -11 10 0 6 2 10 4 10 3
0 8 -4 11 -10z m-645 -64 c0 -2 -8 -10 -17 -17 -16 -13 -17 -12 -4 4 13 16 21
21 21 13z m657 -26 c-1 -11 -6 -20 -12 -20 -5 0 -3 -5 5 -10 8 -5 12 -10 8
-10 -5 0 -11 -1 -15 -2 -4 -2 -9 9 -10 25 -1 15 2 25 8 22 5 -4 9 -1 9 4 0 6
2 11 4 11 3 0 4 -9 3 -20z m-657 -24 c0 -3 -4 -8 -10 -11 -5 -3 -10 -1 -10 4
0 6 5 11 10 11 6 0 10 -2 10 -4z m13245 -36 c3 -6 -1 -7 -9 -4 -18 7 -21 14
-7 14 6 0 13 -4 16 -10z m665 -30 c0 -5 -2 -10 -4 -10 -3 0 -8 5 -11 10 -3 6
-1 10 4 10 6 0 11 -4 11 -10z m-631 -248 c-5 -2 -9 -8 -9 -13 0 -6 4 -8 8 -5
4 2 9 -6 10 -20 2 -24 -12 -33 -23 -14 -3 6 -1 10 6 10 7 0 8 4 2 13 -5 6 -10
22 -11 34 -1 18 2 20 13 10 7 -6 9 -13 4 -15z m665 -57 c3 -8 1 -15 -3 -15 -5
0 -11 7 -15 15 -3 8 -1 15 3 15 5 0 11 -7 15 -15z m3 -100 c0 -8 -4 -12 -9 -9
-5 3 -6 10 -3 15 9 13 12 11 12 -6z m-14202 -275 c-3 -5 -12 -10 -18 -10 -7 0
-6 4 3 10 19 12 23 12 15 0z m14445 0 c0 -5 -2 -10 -4 -10 -3 0 -8 5 -11 10
-3 6 -1 10 4 10 6 0 11 -4 11 -10z m-13535 -88 c-3 -3 -11 0 -18 7 -9 10 -8
11 6 5 10 -3 15 -9 12 -12z m-1200 -79 c-2 -10 -4 -20 -4 -23 -1 -3 -5 2 -10
10 -10 15 -6 30 9 30 4 0 7 -8 5 -17z m15035 10 c0 -5 -4 -14 -9 -21 -7 -11
-9 -11 -14 1 -3 8 -3 18 0 21 9 8 23 7 23 -1z m-13936 -209 c3 -8 2 -12 -4 -9
-6 3 -10 10 -10 16 0 14 7 11 14 -7z m12830 7 c7 -11 -22 -23 -35 -15 -5 3 -9
9 -9 15 0 12 37 12 44 0z m123 -46 c0 -10 -4 -12 -12 -5 -7 5 -15 7 -18 3 -4
-3 -7 -1 -7 5 0 7 8 12 18 12 10 0 19 -7 19 -15z m-13190 -50 c0 -6 -6 -12
-12 -12 -6 0 -12 6 -12 12 0 6 6 12 12 12 6 0 12 -6 12 -12z m14550 -11 c0
-10 -10 -11 -35 -5 -2 1 -1 5 2 9 8 13 33 10 33 -4z m-15833 -45 c-3 -5 -10
-7 -15 -3 -5 3 -7 10 -3 15 3 5 10 7 15 3 5 -3 7 -10 3 -15z m14791 -18 c3 -5
2 -12 -3 -15 -5 -3 -9 1 -9 9 0 17 3 19 12 6z m1109 -17 c3 -8 2 -12 -4 -9 -6
3 -10 10 -10 16 0 14 7 11 14 -7z m53 -46 c-3 -8 -6 -5 -6 6 -1 11 2 17 5 13
3 -3 4 -12 1 -19z m-16111 -81 c3 -21 1 -21 -20 2 -17 19 -17 19 0 17 9 -2 18
-10 20 -19z m16182 3 c-7 -10 -14 -18 -15 -16 -6 6 9 36 18 36 5 0 4 -9 -3
-20z m55 -47 c-6 -15 -19 -17 -27 -4 -7 11 0 18 18 18 8 0 12 -6 9 -14z
m-15460 -108 c-3 -9 -8 -14 -10 -11 -3 3 -2 9 2 15 9 16 15 13 8 -4z m15617
-89 c0 -3 -4 -8 -10 -11 -5 -3 -10 -1 -10 4 0 6 5 11 10 11 6 0 10 -2 10 -4z
m-16703 -131 c0 -8 -4 -12 -9 -9 -5 3 -6 10 -3 15 9 13 12 11 12 -6z m16176
-240 c-3 -9 -8 -14 -10 -11 -3 3 -2 9 2 15 9 16 15 13 8 -4z m787 1 c0 -2 -7
-9 -15 -16 -13 -11 -14 -10 -9 4 5 14 24 23 24 12z m-16506 -257 c-3 -5 -10
-7 -15 -3 -5 3 -7 10 -3 15 3 5 10 7 15 3 5 -3 7 -10 3 -15z m-734 1 c0 -5 -5
-10 -11 -10 -5 0 -7 5 -4 10 3 6 8 10 11 10 2 0 4 -4 4 -10z m17410 -86 c0 -8
-19 -13 -24 -6 -3 5 1 9 9 9 8 0 15 -2 15 -3z m-16799 -121 c13 -16 12 -17 -3
-4 -10 7 -18 15 -18 17 0 8 8 3 21 -13z m16123 1 c3 -8 2 -12 -4 -9 -6 3 -10
10 -10 16 0 14 7 11 14 -7z m37 -87 c-10 -9 -11 -8 -5 6 3 10 9 15 12 12 3 -3
0 -11 -7 -18z m-16891 0 c0 -8 -7 -14 -15 -14 -11 0 -12 4 -4 14 6 7 13 13 15
13 2 0 4 -6 4 -13z m16950 -125 c-21 -7 -23 -6 -26 10 -2 14 1 15 17 5 11 -7
15 -13 9 -15z m-16307 1 c-3 -7 -8 -13 -12 -13 -4 0 -8 6 -8 13 0 8 6 14 13
14 7 0 10 -6 7 -14z m17003 -21 c1 -7 0 -8 -3 -2 -2 5 -9 8 -14 4 -5 -3 -9 0
-9 6 0 15 23 7 26 -8z m-17039 -91 c1 -14 -3 -18 -13 -14 -11 4 -12 9 -3 19
15 18 14 18 16 -5z m17083 -41 c-8 -5 -19 -10 -25 -10 -5 0 -3 5 5 10 8 5 20
10 25 10 6 0 3 -5 -5 -10z m-17783 -13 c0 -8 -6 -14 -14 -14 -9 0 -10 4 -2 14
6 7 12 13 14 13 1 0 2 -6 2 -13z m17133 -21 c0 -2 -8 -10 -17 -17 -16 -13 -17
-12 -4 4 13 16 21 21 21 13z m-16470 -56 c0 -5 -7 -7 -15 -4 -8 4 -15 8 -15
10 0 2 7 4 15 4 8 0 15 -4 15 -10z m17166 -107 c2 -27 1 -27 -14 3 -8 15 -8
21 1 21 7 0 13 -11 13 -24z m-656 -7 c0 -3 -4 -8 -10 -11 -5 -3 -10 -1 -10 4
0 6 5 11 10 11 6 0 10 -2 10 -4z m-16553 -36 c-2 -11 -8 -25 -13 -30 -15 -15
-14 21 0 37 15 17 16 16 13 -7z m-701 -225 c0 -19 -4 -35 -8 -35 -4 0 -8 3 -9
8 0 4 -2 16 -4 26 -4 21 2 36 13 36 4 0 8 -16 8 -35z m661 11 c0 -8 -6 -12
-15 -9 -11 5 -11 7 0 14 7 5 13 9 14 9 0 0 1 -6 1 -14z m17293 -50 c0 -2 -7
-7 -16 -10 -8 -3 -12 -2 -9 4 6 10 25 14 25 6z m-17950 -610 c0 -2 -7 -7 -16
-10 -8 -3 -12 -2 -9 4 6 10 25 14 25 6z m17950 -10 c0 -2 -7 -9 -15 -16 -13
-11 -14 -10 -9 4 5 14 24 23 24 12z m-666 -61 c-4 -8 -11 -15 -16 -15 -6 0 -5
6 2 15 7 8 14 15 16 15 2 0 1 -7 -2 -15z m-17259 -225 c3 -5 1 -10 -4 -10 -6
0 -11 5 -11 10 0 6 2 10 4 10 3 0 8 -4 11 -10z m17872 -22 c-3 -8 -6 -5 -6 6
-1 11 2 17 5 13 3 -3 4 -12 1 -19z m-651 0 c4 -6 3 -8 -4 -4 -5 3 -13 0 -15
-6 -3 -8 -6 -6 -6 5 -1 19 14 23 25 5z m-82 -263 c-4 -8 -7 -15 -9 -15 -2 0
-5 7 -9 15 -3 9 0 15 9 15 9 0 12 -6 9 -15z m-16347 -119 c0 -8 -6 -12 -15 -9
-11 5 -11 7 0 14 7 5 13 9 14 9 0 0 1 -6 1 -14z m159 -343 c-10 -10 -19 5 -10
18 6 11 8 11 12 0 2 -7 1 -15 -2 -18z m15984 8 c0 -4 -6 -8 -14 -8 -8 0 -12 6
-9 14 5 13 23 9 23 -6z m-96 -159 c3 -5 -1 -9 -9 -9 -8 0 -12 4 -9 9 3 4 7 8
9 8 2 0 6 -4 9 -8z m657 -165 c-13 -13 -26 -3 -16 12 3 6 11 8 17 5 6 -4 6
-10 -1 -17z m-16288 -41 c4 -10 1 -13 -8 -9 -8 3 -12 9 -9 14 7 12 11 11 17
-5z m14804 -589 c0 -8 -6 -14 -14 -14 -17 0 -17 14 0 20 6 3 12 6 13 6 0 1 1
-5 1 -12z m873 -145 c0 -13 -12 -22 -22 -16 -10 6 -1 24 13 24 5 0 9 -4 9 -8z
m-15835 -53 c2 -9 -3 -16 -9 -16 -7 0 -13 9 -13 19 -2 23 19 19 22 -3z m1620
-129 c-3 -5 -11 -10 -16 -10 -6 0 -7 5 -4 10 3 6 11 10 16 10 6 0 7 -4 4 -10z
m322 -45 c2 -6 -12 -11 -31 -11 -19 0 -32 4 -30 8 3 4 1 8 -5 8 -5 0 -13 -5
-16 -10 -7 -11 -25 -4 -25 9 0 12 103 8 107 -4z m12028 5 c3 -5 1 -10 -4 -10
-6 0 -11 5 -11 10 0 6 2 10 4 10 3 0 8 -4 11 -10z m-60 -10 c3 -5 1 -10 -4
-10 -6 0 -11 5 -11 10 0 6 2 10 4 10 3 0 8 -4 11 -10z m1489 -116 c3 -8 2 -12
-4 -9 -6 3 -10 10 -10 16 0 14 7 11 14 -7z m-69 -33 c3 -5 2 -12 -3 -15 -5 -3
-9 1 -9 9 0 17 3 19 12 6z m-14738 -88 c0 -9 -4 -10 -14 -2 -7 6 -13 12 -13
14 0 1 6 2 13 2 8 0 14 -6 14 -14z m14353 -128 c7 -9 8 -15 2 -15 -5 0 -12 7
-16 15 -3 8 -4 15 -2 15 2 0 9 -7 16 -15z m-449 -162 c13 -16 12 -17 -3 -4
-10 7 -18 15 -18 17 0 8 8 3 21 -13z m-12867 -89 c3 -8 2 -12 -4 -9 -6 3 -10
10 -10 16 0 14 7 11 14 -7z m12246 -28 c0 -3 -4 -8 -10 -11 -5 -3 -10 -1 -10
4 0 6 5 11 10 11 6 0 10 -2 10 -4z"/>
<path d="M8356 15978 c3 -5 10 -6 15 -3 13 9 11 12 -6 12 -8 0 -12 -4 -9 -9z"/>
<path d="M9002 15981 c-11 -6 -10 -10 4 -15 9 -3 19 -4 22 -1 3 3 0 5 -7 5 -7
0 -9 5 -6 10 7 12 4 12 -13 1z"/>
<path d="M7984 15936 c1 -8 5 -18 8 -22 4 -3 5 1 4 10 -1 8 -5 18 -8 22 -4 3
-5 -1 -4 -10z"/>
<path d="M9328 15943 c6 -2 10 -8 7 -13 -3 -4 2 -11 10 -14 13 -4 14 -2 5 14
-6 11 -16 20 -23 19 -9 0 -9 -2 1 -6z"/>
<path d="M8015 15920 c3 -5 8 -10 11 -10 2 0 4 5 4 10 0 6 -5 10 -11 10 -5 0
-7 -4 -4 -10z"/>
<path d="M9535 15890 c-4 -6 -5 -10 -3 -11 25 -6 38 -6 38 1 0 12 -29 20 -35
10z"/>
<path d="M9976 15763 c-6 -14 -5 -15 5 -6 7 7 10 15 7 18 -3 3 -9 -2 -12 -12z"/>
<path d="M10461 15563 c-1 -17 16 -25 25 -12 4 7 3 9 -4 5 -5 -3 -13 0 -15 6
-4 9 -6 10 -6 1z"/>
<path d="M10630 15475 c-10 -13 -9 -15 8 -15 15 0 20 5 16 15 -4 8 -7 15 -9
15 -1 0 -8 -7 -15 -15z"/>
<path d="M6553 15387 c0 -8 6 -14 14 -14 9 0 10 4 2 14 -6 7 -12 13 -14 13 -1
0 -2 -6 -2 -13z"/>
<path d="M6305 15220 c-3 -6 1 -7 9 -4 18 7 21 14 7 14 -6 0 -13 -4 -16 -10z"/>
<path d="M6090 15060 c0 -5 5 -10 10 -10 6 0 10 5 10 10 0 6 -4 10 -10 10 -5
0 -10 -4 -10 -10z"/>
<path d="M11215 15060 c-3 -5 -1 -10 4 -10 6 0 11 5 11 10 0 6 -2 10 -4 10 -3
0 -8 -4 -11 -10z"/>
<path d="M14020 14639 c0 -5 5 -7 10 -4 6 3 10 8 10 11 0 2 -4 4 -10 4 -5 0
-10 -5 -10 -11z"/>
<path d="M14595 14630 c-3 -6 1 -7 9 -4 18 7 21 14 7 14 -6 0 -13 -4 -16 -10z"/>
<path d="M13723 14595 c0 -6 6 -12 12 -12 6 0 12 6 12 12 0 6 -6 12 -12 12 -6
0 -12 -6 -12 -12z"/>
<path d="M14875 14600 c-3 -5 -1 -10 4 -10 6 0 11 5 11 10 0 6 -2 10 -4 10 -3
0 -8 -4 -11 -10z"/>
<path d="M15086 14553 c-6 -14 -5 -15 5 -6 7 7 10 15 7 18 -3 3 -9 -2 -12 -12z"/>
<path d="M15215 14520 c-3 -5 -1 -10 4 -10 6 0 11 5 11 10 0 6 -2 10 -4 10 -3
0 -8 -4 -11 -10z"/>
<path d="M13310 14480 c0 -5 5 -10 11 -10 5 0 7 5 4 10 -3 6 -8 10 -11 10 -2
0 -4 -4 -4 -10z"/>
<path d="M15335 14480 c-3 -5 -1 -10 4 -10 6 0 11 5 11 10 0 6 -2 10 -4 10 -3
0 -8 -4 -11 -10z"/>
<path d="M15465 14440 c3 -6 0 -10 -7 -10 -8 0 -6 -5 5 -11 10 -6 21 -8 24 -5
4 3 0 6 -8 6 -11 0 -12 2 -1 9 11 7 10 9 -3 14 -9 4 -13 3 -10 -3z"/>
<path d="M13096 14387 c3 -10 9 -15 12 -12 3 3 0 11 -7 18 -10 9 -11 8 -5 -6z"/>
<path d="M11876 14352 c5 -4 12 -11 15 -15 3 -5 9 -2 12 5 3 9 -3 14 -15 15
-11 1 -16 -1 -12 -5z"/>
<path d="M5430 14346 c0 -2 7 -7 16 -10 8 -3 12 -2 9 4 -6 10 -25 14 -25 6z"/>
<path d="M12840 14271 c0 -6 4 -13 10 -16 6 -3 7 1 4 9 -7 18 -14 21 -14 7z"/>
<path d="M15795 14271 c-3 -5 -2 -12 3 -15 5 -3 9 1 9 9 0 17 -3 19 -12 6z"/>
<path d="M5353 14225 c0 -8 4 -12 9 -9 5 3 6 10 3 15 -9 13 -12 11 -12 -6z"/>
<path d="M11976 14223 c-6 -14 -5 -15 5 -6 7 7 10 15 7 18 -3 3 -9 -2 -12 -12z"/>
<path d="M4936 13434 c-8 -22 -4 -25 11 -9 7 8 9 16 4 19 -5 3 -12 -1 -15 -10z"/>
<path d="M16803 13353 c-17 -6 -17 -20 0 -20 8 0 14 6 14 14 0 7 -1 13 -1 12
-1 0 -7 -3 -13 -6z"/>
<path d="M4896 13298 c3 -5 10 -6 15 -3 13 9 11 12 -6 12 -8 0 -12 -4 -9 -9z"/>
<path d="M16871 13223 c0 -12 2 -14 6 -4 5 11 7 11 15 0 8 -12 9 -12 6 0 -6
22 -28 25 -27 4z"/>
<path d="M4806 13062 c-3 -5 1 -15 8 -21 11 -10 14 -9 12 3 -3 21 -13 29 -20
18z"/>
<path d="M17000 13011 c0 -5 5 -13 10 -16 6 -3 10 -2 10 4 0 5 -4 13 -10 16
-5 3 -10 2 -10 -4z"/>
<path d="M4764 12889 c-4 -7 -3 -9 4 -5 5 3 13 0 15 -6 4 -9 6 -10 6 -1 1 17
-16 25 -25 12z"/>
<path d="M17254 12269 c-3 -6 -2 -15 4 -21 6 -6 12 -6 17 3 6 8 4 10 -5 4 -10
-6 -12 -4 -7 8 7 19 2 23 -9 6z"/>
<path d="M17293 11915 c0 -8 4 -12 9 -9 5 3 6 10 3 15 -9 13 -12 11 -12 -6z"/>
<path d="M6520 11819 c0 -6 -4 -8 -9 -5 -11 7 -77 -19 -86 -34 -4 -6 -9 -8
-13 -6 -4 2 -16 -2 -27 -10 -10 -8 -16 -14 -13 -14 3 0 -11 -17 -30 -37 -40
-43 -69 -101 -78 -159 -9 -53 -8 -3549 0 -3563 4 -6 4 -11 1 -11 -4 0 1 -7 10
-17 9 -9 35 -41 58 -72 22 -31 44 -57 49 -59 4 -2 8 -10 8 -18 0 -8 4 -14 8
-14 4 0 16 -15 27 -32 10 -18 29 -44 42 -58 13 -14 23 -28 23 -31 0 -4 12 -21
28 -37 15 -17 38 -47 52 -67 14 -19 43 -59 65 -89 22 -29 51 -68 65 -86 47
-63 61 -76 67 -62 2 7 10 18 16 25 7 6 41 50 77 97 35 47 68 87 72 88 4 2 8
10 8 18 0 8 7 17 15 20 8 4 15 10 15 14 0 12 169 234 181 238 5 2 7 8 3 13 -3
5 2 12 10 15 9 3 16 12 16 19 0 7 7 19 16 26 9 8 27 31 40 51 l24 38 -2 1787
-3 1788 -26 55 c-28 59 -87 130 -107 130 -6 0 -12 4 -12 8 0 9 -60 40 -95 50
-36 10 -495 11 -495 1z m494 -183 c15 -11 39 -37 53 -59 26 -41 26 -50 24
-482 l-1 -100 -332 0 -333 0 0 275 0 275 25 37 c14 21 43 47 65 58 37 19 55
21 255 18 193 -3 218 -5 244 -22z m76 -864 c4 -468 0 -2605 -4 -2609 -4 -5
-394 -7 -614 -4 l-49 1 0 1334 0 1333 334 1 333 1 0 -57z m-45 -2784 c4 -3
-178 -242 -225 -296 -11 -13 -20 -26 -20 -28 0 -3 -11 -17 -25 -32 -14 -15
-25 -22 -25 -17 0 6 -14 26 -31 45 -18 19 -43 52 -57 73 -13 20 -29 37 -33 37
-5 0 -9 5 -9 10 0 6 -6 18 -12 26 -7 8 -18 20 -23 27 -34 40 -115 147 -115
151 0 3 15 6 33 8 43 4 538 1 542 -4z"/>
<path d="M8517 11823 c-3 -2 -11 -6 -19 -7 -40 -8 -68 -19 -68 -27 0 -5 -7 -9
-15 -9 -8 0 -15 -4 -15 -10 0 -5 -4 -9 -8 -7 -15 4 -81 -72 -109 -126 l-28
-52 -3 -1991 c-2 -1801 -1 -1995 14 -2037 9 -26 20 -47 26 -47 5 0 7 -4 4 -9
-7 -10 27 -55 68 -93 32 -28 100 -65 138 -75 13 -3 615 -6 1338 -7 1206 -1
1318 1 1350 16 19 9 42 18 50 20 8 2 22 11 31 21 9 9 19 17 23 17 11 0 65 64
78 93 7 15 16 27 20 27 5 0 7 3 6 8 -1 4 4 25 10 47 9 29 12 269 12 896 l0
855 117 117 c64 64 120 117 125 117 4 0 8 4 8 9 0 12 688 701 700 701 6 0 9 3
7 8 -1 4 70 79 158 167 188 188 196 197 219 255 18 47 37 170 25 170 -6 0 -13
30 -21 88 -1 6 -5 12 -10 12 -4 0 -8 5 -8 11 0 19 -52 78 -170 195 -102 102
-133 126 -212 165 -27 13 -136 20 -143 9 -4 -6 -10 -8 -15 -5 -12 7 -100 -15
-100 -26 0 -4 -10 -11 -22 -15 -13 -4 -153 -137 -311 -295 -159 -159 -293
-289 -299 -289 -5 0 -7 -3 -5 -7 2 -5 -7 -18 -19 -30 l-23 -21 -40 45 c-23 24
-41 48 -41 54 0 5 -6 9 -13 9 -8 0 -18 8 -23 19 -9 19 -88 113 -136 163 -14
16 -25 28 -22 28 2 0 -4 8 -13 18 -10 10 -40 44 -68 76 -27 32 -55 64 -60 70
-6 6 -48 56 -95 111 -46 55 -102 121 -124 146 -23 26 -57 65 -76 88 -19 23
-46 54 -60 70 -14 15 -44 50 -67 77 -23 27 -53 63 -68 79 -14 17 -42 49 -61
72 l-35 42 -949 -1 c-522 0 -951 -2 -953 -5z m1735 -620 l3 -458 26 -55 c26
-56 89 -130 109 -130 6 0 13 -7 16 -15 4 -8 14 -15 23 -15 9 0 21 -4 27 -10 5
-5 24 -10 42 -12 17 -1 32 -5 32 -8 0 -3 162 -5 360 -5 l360 0 -43 -43 c-216
-221 -692 -692 -700 -692 -6 0 -8 -2 -5 -5 5 -5 -145 -158 -172 -175 -8 -5
-12 -10 -8 -10 3 0 -162 -168 -368 -373 -334 -334 -374 -377 -380 -411 -3 -21
-8 -48 -10 -60 -3 -11 -7 -32 -10 -46 -2 -14 -25 -124 -50 -245 -25 -121 -47
-233 -50 -250 -2 -16 -9 -52 -14 -80 -6 -27 -13 -64 -16 -82 l-5 -31 55 12
c31 7 58 11 60 9 3 -3 10 -1 17 3 7 4 24 9 37 10 13 2 56 10 95 19 40 9 83 18
97 20 14 2 35 6 47 9 41 9 118 20 126 18 4 -1 7 3 7 8 0 5 3 9 8 8 6 -1 38 3
127 18 6 1 12 3 15 4 18 7 83 18 108 19 16 1 80 57 207 184 102 101 185 182
185 180 0 -1 26 26 58 61 31 35 62 65 67 65 6 1 18 13 29 29 10 15 36 41 57
57 21 17 38 33 39 36 0 9 383 389 388 385 8 -9 3 -1523 -6 -1546 -16 -40 -65
-87 -104 -98 -52 -14 -2569 -14 -2610 0 -43 15 -66 36 -90 83 l-21 40 0 1946
c0 1439 3 1955 12 1981 14 42 57 86 97 98 16 4 410 9 876 9 l847 1 3 -457z
m198 329 c0 -8 3 -13 6 -10 3 4 42 -37 87 -90 45 -53 89 -104 97 -113 8 -9 33
-38 55 -64 22 -27 48 -57 58 -67 9 -10 17 -20 17 -23 0 -2 15 -20 33 -38 17
-19 43 -48 57 -66 14 -17 36 -44 50 -59 14 -15 44 -50 67 -77 50 -60 71 -85
126 -149 23 -26 47 -54 52 -60 6 -6 19 -22 29 -34 l20 -23 -326 1 c-301 1
-329 3 -366 20 -42 20 -74 57 -87 100 -4 13 -7 180 -7 370 1 463 -1 425 17
410 8 -7 15 -19 15 -28z m1879 -365 c45 -27 141 -120 141 -137 0 -7 3 -11 6
-7 8 7 112 -96 107 -105 -2 -5 0 -8 6 -8 13 0 30 -82 24 -115 -3 -14 -10 -25
-15 -25 -5 0 -6 -4 -3 -10 3 -5 -13 -31 -37 -56 -24 -25 -44 -50 -46 -55 -2
-5 -9 -9 -15 -9 -7 -1 -25 -19 -42 -40 -16 -21 -35 -39 -42 -40 -6 0 -14 -8
-18 -17 -3 -10 -26 -35 -51 -55 -25 -21 -42 -38 -38 -38 4 0 -1 -6 -11 -14
-18 -13 -36 3 -235 202 l-216 216 150 149 c82 82 163 157 180 166 43 25 113
24 155 -2z m-169 -872 c0 -3 -4 -3 -10 0 -5 3 -10 1 -10 -4 0 -13 -37 -51 -49
-51 -5 0 -13 -8 -16 -17 -4 -10 -47 -55 -95 -100 -49 -46 -87 -83 -86 -83 2 0
-78 -81 -177 -180 -99 -99 -184 -180 -189 -180 -4 0 -8 -4 -8 -10 0 -5 -280
-289 -621 -631 l-621 -621 -30 29 c-72 67 -98 96 -98 106 0 6 -2 8 -5 5 -6 -6
-285 272 -285 285 0 4 -4 5 -10 2 -5 -3 -10 -4 -10 -1 0 3 424 430 943 948
l942 944 218 -217 c119 -120 217 -220 217 -224z m-2194 -1804 c96 -96 174
-177 174 -181 0 -3 -10 -7 -22 -8 -31 -3 -49 -7 -71 -17 -10 -4 -21 -5 -24 -2
-3 4 -13 2 -22 -3 -10 -5 -35 -11 -57 -14 -21 -3 -61 -11 -89 -17 -27 -6 -61
-12 -75 -14 -36 -5 -80 -14 -118 -25 -33 -9 -33 -9 -27 23 3 18 8 46 9 62 2
17 5 30 6 30 8 0 31 137 26 152 -3 8 -2 12 3 9 5 -3 12 16 16 42 14 87 21 124
25 130 4 4 7 22 9 44 1 26 -14 39 237 -211z"/>
<path d="M13538 11825 c-2 -2 -19 -7 -38 -10 -19 -3 -42 -13 -51 -21 -8 -8
-18 -11 -21 -8 -10 10 -115 -100 -137 -144 -11 -23 -24 -58 -27 -79 -9 -54 -9
-3898 0 -3958 10 -68 48 -141 102 -192 24 -24 44 -40 44 -37 0 4 6 1 13 -5 8
-6 34 -18 58 -27 40 -16 159 -17 1362 -18 724 -1 1317 3 1317 7 0 5 4 6 8 3
13 -8 113 44 146 75 17 16 35 29 39 29 5 0 6 4 3 8 -3 5 4 19 15 30 11 12 16
22 12 22 -4 0 -2 4 5 8 7 5 15 18 17 30 3 12 8 32 11 45 4 12 7 710 8 1552 1
1348 -1 1532 -14 1546 -8 8 -26 29 -40 45 -55 64 -136 160 -155 183 -11 13
-31 34 -45 47 -14 13 -22 24 -18 24 3 0 -8 15 -25 33 -18 18 -63 70 -101 115
-38 45 -73 82 -78 82 -4 0 -8 6 -8 14 0 8 -12 24 -26 35 -15 12 -24 21 -21 21
3 0 -10 16 -29 36 -18 20 -44 50 -56 66 -22 28 -36 44 -105 121 -18 20 -33 41
-33 47 0 6 -4 8 -10 5 -5 -3 -10 -1 -10 6 0 6 -8 19 -17 28 -19 17 -62 67
-123 140 -19 24 -47 56 -61 71 l-26 28 -941 0 c-517 0 -942 -2 -944 -3z m1725
-617 c1 -249 6 -466 10 -482 15 -57 79 -138 141 -177 32 -22 67 -39 78 -39 27
0 32 -1 43 -9 6 -4 171 -7 368 -7 l357 1 0 -1435 0 -1435 -21 -39 c-27 -52
-56 -77 -80 -72 -3 0 -12 -4 -20 -10 -17 -14 -2586 -17 -2595 -3 -3 5 -12 9
-21 9 -8 0 -28 11 -45 25 -16 14 -26 25 -22 25 4 0 -1 9 -12 21 -19 21 -19 68
-19 1989 0 2119 -3 1991 48 2043 47 47 30 46 934 47 l852 0 4 -452z m227 293
c19 -24 56 -66 82 -94 26 -29 48 -58 48 -65 0 -7 4 -11 8 -8 4 2 17 -9 27 -25
11 -16 23 -29 28 -29 4 0 7 -6 7 -14 0 -8 9 -18 21 -21 11 -4 18 -9 15 -12 -3
-3 0 -11 7 -18 14 -14 40 -45 117 -135 30 -36 61 -69 67 -73 7 -4 13 -12 13
-17 0 -5 12 -21 28 -37 15 -16 38 -42 52 -58 94 -113 137 -161 147 -168 7 -4
13 -13 13 -18 0 -6 10 -19 23 -30 22 -18 16 -18 -306 -19 -310 0 -330 1 -367
20 -23 12 -52 39 -67 63 l-27 42 -1 380 c-1 209 1 386 3 394 4 12 7 11 16 -1
6 -8 27 -34 46 -57z"/>
<path d="M13759 11143 c-3 -57 -1 -123 3 -134 5 -12 102 -14 579 -13 316 1
576 2 579 3 3 0 5 36 5 79 l0 77 -582 3 c-550 2 -583 1 -584 -15z"/>
<path d="M13759 10655 c0 -3 -1 -34 -1 -70 0 -36 1 -71 1 -78 1 -9 123 -12
581 -12 319 0 581 2 581 5 1 3 2 40 3 83 l2 77 -583 0 c-321 0 -583 -2 -584
-5z"/>
<path d="M13759 10140 c0 -11 -1 -40 -1 -65 0 -25 1 -53 1 -63 1 -16 59 -17
1074 -17 589 0 1077 3 1083 7 6 4 10 39 10 80 l-1 73 -1082 3 c-1078 2 -1083
2 -1084 -18z"/>
<path d="M13759 9650 c0 -5 -1 -39 -1 -75 0 -36 1 -69 1 -74 1 -10 2160 -13
2162 -3 1 4 2 42 3 85 l2 77 -1083 0 c-715 0 -1083 -3 -1084 -10z"/>
<path d="M13759 9154 c0 -2 -1 -33 -1 -69 0 -36 1 -72 1 -80 1 -12 144 -14
1083 -12 l1082 2 1 80 0 80 -1082 1 c-596 1 -1083 0 -1084 -2z"/>
<path d="M13759 8644 c-1 -8 -1 -39 -1 -69 0 -30 0 -61 1 -69 1 -12 159 -14
1084 -14 l1082 0 1 79 c0 63 -3 80 -16 83 -8 2 -495 4 -1082 4 -894 -1 -1068
-3 -1069 -14z"/>
<path d="M13759 8154 c0 -2 -1 -33 -1 -69 0 -36 1 -72 1 -80 1 -12 143 -14
1084 -14 l1083 0 -1 82 0 82 -1082 1 c-596 1 -1083 0 -1084 -2z"/>
<path d="M4694 11638 c-12 -19 -12 -47 1 -58 7 -6 11 -3 12 10 1 11 -3 23 -9
26 -7 4 -6 9 3 15 7 4 11 11 7 14 -3 4 -10 0 -14 -7z"/>
<path d="M4695 11550 c3 -5 8 -10 11 -10 2 0 4 5 4 10 0 6 -5 10 -11 10 -5 0
-7 -4 -4 -10z"/>
<path d="M17293 11405 c0 -8 4 -12 9 -9 5 3 6 10 3 15 -9 13 -12 11 -12 -6z"/>
<path d="M17299 11368 c0 -2 -2 -20 -4 -41 -2 -25 1 -37 8 -34 14 4 16 26 5
49 -5 10 -3 18 5 21 9 4 9 6 0 6 -7 1 -13 0 -14 -1z"/>
<path d="M4723 11314 c0 -7 6 -10 14 -7 7 3 13 8 13 12 0 4 -6 8 -13 8 -8 0
-14 -6 -14 -13z"/>
<path d="M4735 11290 c-3 -5 -3 -10 2 -10 4 0 2 -4 -6 -9 -9 -6 -10 -11 -2
-15 6 -4 11 -4 12 1 0 4 2 16 4 26 4 19 -1 22 -10 7z"/>
<path d="M18333 10725 c0 -8 4 -15 9 -15 4 0 8 4 8 9 0 6 -4 12 -8 15 -5 3 -9
-1 -9 -9z"/>
<path d="M3640 10720 c-12 -7 -10 -9 8 -7 12 0 22 5 22 9 0 11 -12 10 -30 -2z"/>
<path d="M18370 10696 c0 -2 8 -10 18 -17 15 -13 16 -12 3 4 -13 16 -21 21
-21 13z"/>
<path d="M3346 10418 c3 -5 10 -6 15 -3 13 9 11 12 -6 12 -8 0 -12 -4 -9 -9z"/>
<path d="M3306 10382 c-3 -5 1 -9 9 -9 8 0 12 4 9 9 -3 4 -7 8 -9 8 -2 0 -6
-4 -9 -8z"/>
<path d="M3266 10351 c-4 -5 -2 -12 3 -15 5 -4 12 -2 15 3 4 5 2 12 -3 15 -5
4 -12 2 -15 -3z"/>
<path d="M3134 10182 c2 -8 10 -16 18 -18 10 -1 15 4 14 14 -2 8 -10 16 -18
18 -10 1 -15 -4 -14 -14z"/>
<path d="M2896 9722 c-3 -5 1 -9 9 -9 8 0 12 4 9 9 -3 4 -7 8 -9 8 -2 0 -6 -4
-9 -8z"/>
<path d="M2686 8981 c-4 -5 -1 -13 5 -17 8 -4 7 -9 -2 -15 -7 -4 -10 -11 -6
-15 9 -10 17 -1 22 24 4 23 -10 39 -19 23z"/>
<path d="M19290 8399 c0 -5 5 -7 10 -4 6 3 10 8 10 11 0 2 -4 4 -10 4 -5 0
-10 -5 -10 -11z"/>
<path d="M19221 7961 c-8 -5 -9 -11 -3 -15 5 -3 12 1 16 9 6 17 6 18 -13 6z"/>
<path d="M19100 7611 c0 -7 -5 -9 -12 -5 -7 5 -8 3 -3 -5 5 -9 10 -10 18 -2 6
6 8 14 4 18 -4 3 -7 1 -7 -6z"/>
<path d="M3134 7149 c-8 -14 14 -19 25 -6 8 10 7 14 -5 14 -8 0 -17 -4 -20 -8z"/>
<path d="M18795 7100 c3 -5 8 -10 11 -10 2 0 4 5 4 10 0 6 -5 10 -11 10 -5 0
-7 -4 -4 -10z"/>
<path d="M18719 6992 c9 -7 10 -11 2 -15 -7 -4 -8 -5 0 -4 15 3 13 21 -3 25
-10 3 -10 2 1 -6z"/>
<path d="M3315 6939 c-4 -6 -5 -12 -2 -15 2 -3 7 2 10 11 7 17 1 20 -8 4z"/>
<path d="M18429 6683 c-13 -16 -12 -17 4 -4 9 7 17 15 17 17 0 8 -8 3 -21 -13z"/>
<path d="M3596 6643 c-6 -14 -5 -15 5 -6 7 7 10 15 7 18 -3 3 -9 -2 -12 -12z"/>
<path d="M3634 6609 c-8 -14 14 -19 25 -6 8 10 7 14 -5 14 -8 0 -17 -4 -20 -8z"/>
<path d="M18095 6440 c3 -5 8 -10 11 -10 2 0 4 5 4 10 0 6 -5 10 -11 10 -5 0
-7 -4 -4 -10z"/>
<path d="M4606 6107 c3 -10 9 -15 12 -12 3 3 0 11 -7 18 -10 9 -11 8 -5 -6z"/>
<path d="M17211 6064 c0 -11 3 -14 6 -6 3 7 2 16 -1 19 -3 4 -6 -2 -5 -13z"/>
<path d="M5089 6023 c-13 -16 -12 -17 4 -4 16 13 21 21 13 21 -2 0 -10 -8 -17
-17z"/>
<path d="M16877 6033 c-10 -9 -9 -23 1 -23 5 0 9 7 9 15 0 17 -1 18 -10 8z"/>
<path d="M16947 6024 c6 -15 40 -14 40 1 0 6 -10 11 -23 11 -13 0 -20 -5 -17
-12z"/>
<path d="M9188 16653 c7 -3 16 -2 19 1 4 3 -2 6 -13 5 -11 0 -14 -3 -6 -6z"/>
<path d="M9475 16609 c-4 -6 -5 -12 -2 -15 2 -3 7 2 10 11 7 17 1 20 -8 4z"/>
<path d="M9854 16532 c3 -5 0 -13 -6 -15 -9 -4 -10 -6 -1 -6 17 -1 25 16 12
25 -7 4 -9 3 -5 -4z"/>
<path d="M10566 16273 c-6 -14 -5 -15 5 -6 7 7 10 15 7 18 -3 3 -9 -2 -12 -12z"/>
<path d="M6757 16269 c7 -7 15 -10 18 -7 3 3 -2 9 -12 12 -14 6 -15 5 -6 -5z"/>
<path d="M6682 16236 c7 -8 15 -12 17 -11 5 6 -10 25 -20 25 -5 0 -4 -6 3 -14z"/>
<path d="M6425 16109 c-11 -16 -1 -19 13 -3 7 8 8 14 3 14 -5 0 -13 -5 -16
-11z"/>
<path d="M6337 16059 c7 -7 15 -10 18 -7 3 3 -2 9 -12 12 -14 6 -15 5 -6 -5z"/>
<path d="M11510 15706 c0 -2 7 -9 15 -16 12 -10 15 -10 15 4 0 9 -7 16 -15 16
-8 0 -15 -2 -15 -4z"/>
<path d="M11686 15563 c-6 -14 -5 -15 5 -6 7 7 10 15 7 18 -3 3 -9 -2 -12 -12z"/>
<path d="M13887 15312 c4 -9 9 -9 17 -2 9 6 16 6 25 -3 10 -9 11 -9 6 4 -4 10
-16 16 -29 15 -15 0 -22 -6 -19 -14z"/>
<path d="M15185 15240 c3 -5 12 -7 20 -3 21 7 19 13 -6 13 -11 0 -18 -4 -14
-10z"/>
<path d="M15340 15198 c0 -4 5 -8 11 -8 5 0 7 -5 3 -12 -4 -7 -3 -8 4 -4 17
10 15 33 -3 33 -8 0 -15 -4 -15 -9z"/>
<path d="M12185 15070 c-3 -6 1 -7 9 -4 18 7 21 14 7 14 -6 0 -13 -4 -16 -10z"/>
<path d="M12273 14985 c0 -8 4 -12 9 -9 5 3 6 10 3 15 -9 13 -12 11 -12 -6z"/>
<path d="M12500 14861 c0 -6 4 -13 10 -16 6 -3 7 1 4 9 -7 18 -14 21 -14 7z"/>
<path d="M16150 14861 c0 -6 4 -12 8 -15 5 -3 9 1 9 9 0 8 -4 15 -9 15 -4 0
-8 -4 -8 -9z"/>
<path d="M12380 14823 c0 -21 19 -24 47 -8 21 11 23 15 8 13 -11 -2 -23 -7
-27 -13 -5 -6 -12 -4 -18 5 -6 9 -10 10 -10 3z"/>
<path d="M16230 14809 c0 -5 5 -7 10 -4 6 3 10 8 10 11 0 2 -4 4 -10 4 -5 0
-10 -5 -10 -11z"/>
<path d="M16347 14736 c-4 -10 -1 -13 8 -9 8 3 12 9 9 14 -7 12 -11 11 -17 -5z"/>
<path d="M4830 14700 c0 -5 5 -10 10 -10 6 0 10 5 10 10 0 6 -4 10 -10 10 -5
0 -10 -4 -10 -10z"/>
<path d="M16478 14633 c7 -3 16 -2 19 1 4 3 -2 6 -13 5 -11 0 -14 -3 -6 -6z"/>
<path d="M16630 14531 c0 -6 4 -13 10 -16 6 -3 7 1 4 9 -7 18 -14 21 -14 7z"/>
<path d="M17195 13989 c-4 -6 -5 -12 -2 -15 2 -3 7 2 10 11 7 17 1 20 -8 4z"/>
<path d="M17386 13696 c7 -18 26 -17 30 2 1 7 0 8 -3 2 -3 -8 -9 -7 -19 1 -12
10 -13 9 -8 -5z"/>
<path d="M17725 13069 c-11 -16 -1 -19 13 -3 7 8 8 14 3 14 -5 0 -13 -5 -16
-11z"/>
<path d="M4005 12519 c-4 -6 -4 -13 -1 -16 3 -4 6 -1 6 6 0 7 5 9 12 5 7 -4 8
-3 4 4 -9 15 -13 15 -21 1z"/>
<path d="M17976 12105 c4 -8 11 -15 16 -15 6 0 5 6 -2 15 -7 8 -14 15 -16 15
-2 0 -1 -7 2 -15z"/>
<path d="M18646 11354 c-5 -14 -4 -15 9 -4 17 14 19 20 6 20 -5 0 -12 -7 -15
-16z"/>
<path d="M18855 11180 c-3 -5 -1 -10 4 -10 6 0 11 5 11 10 0 6 -2 10 -4 10 -3
0 -8 -4 -11 -10z"/>
<path d="M2920 10989 c0 -15 18 -19 23 -6 3 8 -1 14 -9 14 -8 0 -14 -4 -14 -8z"/>
<path d="M2475 10399 c-4 -6 -5 -12 -2 -15 2 -3 7 2 10 11 7 17 1 20 -8 4z"/>
<path d="M19522 10394 c-7 -8 -8 -14 -3 -14 10 0 25 19 20 25 -2 1 -10 -3 -17
-11z"/>
<path d="M19760 9901 c0 -10 19 -25 25 -20 1 2 -3 10 -11 17 -8 7 -14 8 -14 3z"/>
<path d="M19804 9782 c3 -18 18 -20 24 -4 1 5 -4 12 -12 15 -9 4 -13 0 -12
-11z"/>
<path d="M19903 7853 c4 -3 2 -12 -5 -20 -8 -11 -7 -12 6 -7 18 7 22 34 4 34
-6 0 -8 -3 -5 -7z"/>
<path d="M2095 7800 c-3 -5 -1 -10 4 -10 6 0 11 5 11 10 0 6 -2 10 -4 10 -3 0
-8 -4 -11 -10z"/>
<path d="M19900 7799 c0 -5 5 -7 10 -4 6 3 10 8 10 11 0 2 -4 4 -10 4 -5 0
-10 -5 -10 -11z"/>
<path d="M19844 7686 c0 -16 5 -22 13 -19 7 3 13 9 13 13 0 4 -6 12 -13 18
-10 9 -13 6 -13 -12z"/>
<path d="M2215 7440 c-3 -5 -2 -10 4 -10 5 0 13 5 16 10 3 6 2 10 -4 10 -5 0
-13 -4 -16 -10z"/>
<path d="M19770 7419 c0 -5 5 -7 10 -4 6 3 10 8 10 11 0 2 -4 4 -10 4 -5 0
-10 -5 -10 -11z"/>
<path d="M2263 7353 c-17 -6 -17 -20 0 -26 8 -3 13 3 13 14 0 11 0 19 -1 18 0
0 -6 -3 -12 -6z"/>
<path d="M19440 6805 c-7 -9 -8 -15 -2 -15 5 0 12 7 16 15 3 8 4 15 2 15 -2 0
-9 -7 -16 -15z"/>
<path d="M2626 6672 c-3 -5 1 -9 9 -9 8 0 15 4 15 9 0 4 -4 8 -9 8 -6 0 -12
-4 -15 -8z"/>
<path d="M19180 6486 c0 -2 8 -10 18 -17 15 -13 16 -12 3 4 -13 16 -21 21 -21
13z"/>
<path d="M2873 6385 c0 -8 7 -15 15 -15 12 0 12 3 2 15 -7 8 -13 15 -15 15 -1
0 -2 -7 -2 -15z"/>
<path d="M18690 6015 c-10 -12 -10 -15 2 -15 8 0 15 7 15 15 0 8 -1 15 -2 15
-2 0 -8 -7 -15 -15z"/>
<path d="M4076 5562 c-3 -5 1 -9 9 -9 8 0 15 4 15 9 0 4 -4 8 -9 8 -6 0 -12
-4 -15 -8z"/>
<path d="M4624 5389 c1 -7 10 -13 19 -15 9 -1 15 2 11 7 -3 5 -9 7 -14 4 -4
-3 -11 0 -13 5 -3 6 -4 5 -3 -1z"/>
<path d="M17350 5390 c-9 -6 -10 -10 -3 -10 6 0 15 5 18 10 8 12 4 12 -15 0z"/>
<path d="M4918 5353 c6 -3 10 -9 6 -14 -8 -14 2 -11 14 4 8 10 6 13 -11 14
-12 0 -16 -1 -9 -4z"/>
<path d="M17035 5351 c-3 -6 -10 -9 -15 -6 -5 3 -11 2 -14 -3 -2 -4 4 -8 14
-9 19 -2 37 14 27 23 -3 3 -8 0 -12 -5z"/>
<path d="M17065 5349 c-4 -6 -4 -13 -1 -16 3 -4 6 -1 6 6 0 7 5 9 12 5 7 -4 8
-3 4 4 -9 15 -13 15 -21 1z"/>
<path d="M17101 5344 c0 -11 3 -14 6 -6 3 7 2 16 -1 19 -3 4 -6 -2 -5 -13z"/>
</g>
</svg>
